<?xml version="1.0" encoding="UTF-8"?>
<!--Generator: Apple Native CoreSVG 149-->
<!DOCTYPE svg
PUBLIC "-//W3C//DTD SVG 1.1//EN"
       "http://www.w3.org/Graphics/SVG/1.1/DTD/svg11.dtd">
<svg version="1.1" xmlns="http://www.w3.org/2000/svg" xmlns:xlink="http://www.w3.org/1999/xlink" width="3300" height="2200">
 <!--glyph: "uni100628.medium", point size: 100.000000, font version: "Version 16.0d12e3", template writer version: "8"-->
 <g id="Notes">
  <rect height="2200" id="artboard" style="fill:white;opacity:1" width="3300" x="0" y="0"/>
  <line id="" style="fill:none;stroke:black;opacity:1;stroke-width:0.5;" x1="263" x2="3036" y1="292" y2="292"/>
  <text style="stroke:none;fill:black;font-family:-apple-system,&quot;SF Pro Display&quot;,&quot;SF Pro Text&quot;,Helvetica,sans-serif;font-weight:bold;" transform="matrix(1 0 0 1 263 322)">Weight/Scale Variations</text>
  <text style="stroke:none;fill:black;font-family:-apple-system,&quot;SF Pro Display&quot;,&quot;SF Pro Text&quot;,Helvetica,sans-serif;text-anchor:middle;" transform="matrix(1 0 0 1 559.711 322)">Ultralight</text>
  <text style="stroke:none;fill:black;font-family:-apple-system,&quot;SF Pro Display&quot;,&quot;SF Pro Text&quot;,Helvetica,sans-serif;text-anchor:middle;" transform="matrix(1 0 0 1 856.422 322)">Thin</text>
  <text style="stroke:none;fill:black;font-family:-apple-system,&quot;SF Pro Display&quot;,&quot;SF Pro Text&quot;,Helvetica,sans-serif;text-anchor:middle;" transform="matrix(1 0 0 1 1153.13 322)">Light</text>
  <text style="stroke:none;fill:black;font-family:-apple-system,&quot;SF Pro Display&quot;,&quot;SF Pro Text&quot;,Helvetica,sans-serif;text-anchor:middle;" transform="matrix(1 0 0 1 1449.84 322)">Regular</text>
  <text style="stroke:none;fill:black;font-family:-apple-system,&quot;SF Pro Display&quot;,&quot;SF Pro Text&quot;,Helvetica,sans-serif;text-anchor:middle;" transform="matrix(1 0 0 1 1746.56 322)">Medium</text>
  <text style="stroke:none;fill:black;font-family:-apple-system,&quot;SF Pro Display&quot;,&quot;SF Pro Text&quot;,Helvetica,sans-serif;text-anchor:middle;" transform="matrix(1 0 0 1 2043.27 322)">Semibold</text>
  <text style="stroke:none;fill:black;font-family:-apple-system,&quot;SF Pro Display&quot;,&quot;SF Pro Text&quot;,Helvetica,sans-serif;text-anchor:middle;" transform="matrix(1 0 0 1 2339.98 322)">Bold</text>
  <text style="stroke:none;fill:black;font-family:-apple-system,&quot;SF Pro Display&quot;,&quot;SF Pro Text&quot;,Helvetica,sans-serif;text-anchor:middle;" transform="matrix(1 0 0 1 2636.69 322)">Heavy</text>
  <text style="stroke:none;fill:black;font-family:-apple-system,&quot;SF Pro Display&quot;,&quot;SF Pro Text&quot;,Helvetica,sans-serif;text-anchor:middle;" transform="matrix(1 0 0 1 2933.4 322)">Black</text>
  <line id="" style="fill:none;stroke:black;opacity:1;stroke-width:0.5;" x1="263" x2="3036" y1="1903" y2="1903"/>
  <g id="" transform="matrix(1 0 0 1 263 1933)">
   <path d="M9.24805 0.830078C13.5547 0.830078 17.1387-2.74414 17.1387-7.05078C17.1387-11.3574 13.5449-14.9316 9.23828-14.9316C4.94141-14.9316 1.36719-11.3574 1.36719-7.05078C1.36719-2.74414 4.95117 0.830078 9.24805 0.830078ZM9.24805-0.654297C5.70312-0.654297 2.87109-3.49609 2.87109-7.05078C2.87109-10.6055 5.69336-13.4473 9.23828-13.4473C12.793-13.4473 15.6348-10.6055 15.6445-7.05078C15.6543-3.49609 12.8027-0.654297 9.24805-0.654297ZM9.22852-3.62305C9.69727-3.62305 9.9707-3.93555 9.9707-4.45312L9.9707-6.31836L12.002-6.31836C12.5-6.31836 12.832-6.57227 12.832-7.04102C12.832-7.51953 12.5195-7.7832 12.002-7.7832L9.9707-7.7832L9.9707-9.81445C9.9707-10.332 9.69727-10.6543 9.22852-10.6543C8.75977-10.6543 8.50586-10.3125 8.50586-9.81445L8.50586-7.7832L6.49414-7.7832C5.97656-7.7832 5.64453-7.51953 5.64453-7.04102C5.64453-6.57227 5.99609-6.31836 6.49414-6.31836L8.50586-6.31836L8.50586-4.45312C8.50586-3.95508 8.75977-3.62305 9.22852-3.62305Z"/>
  </g>
  <g id="" transform="matrix(1 0 0 1 281.506 1933)">
   <path d="M11.709 2.91016C17.1582 2.91016 21.6699-1.61133 21.6699-7.05078C21.6699-12.5 17.1484-17.0117 11.6992-17.0117C6.25977-17.0117 1.74805-12.5 1.74805-7.05078C1.74805-1.61133 6.26953 2.91016 11.709 2.91016ZM11.709 1.25C7.09961 1.25 3.41797-2.44141 3.41797-7.05078C3.41797-11.6602 7.08984-15.3516 11.6992-15.3516C16.3086-15.3516 20-11.6602 20.0098-7.05078C20.0195-2.44141 16.3184 1.25 11.709 1.25ZM11.6797-2.66602C12.207-2.66602 12.5098-3.01758 12.5098-3.59375L12.5098-6.23047L15.3223-6.23047C15.8691-6.23047 16.25-6.51367 16.25-7.03125C16.25-7.55859 15.8887-7.86133 15.3223-7.86133L12.5098-7.86133L12.5098-10.6836C12.5098-11.25 12.207-11.6113 11.6797-11.6113C11.1621-11.6113 10.8789-11.2305 10.8789-10.6836L10.8789-7.86133L8.07617-7.86133C7.50977-7.86133 7.13867-7.55859 7.13867-7.03125C7.13867-6.51367 7.5293-6.23047 8.07617-6.23047L10.8789-6.23047L10.8789-3.59375C10.8789-3.03711 11.1621-2.66602 11.6797-2.66602Z"/>
  </g>
  <g id="" transform="matrix(1 0 0 1 304.924 1933)">
   <path d="M14.9707 5.66406C21.9336 5.66406 27.6953-0.0976562 27.6953-7.05078C27.6953-14.0137 21.9238-19.7754 14.9609-19.7754C8.00781-19.7754 2.25586-14.0137 2.25586-7.05078C2.25586-0.0976562 8.01758 5.66406 14.9707 5.66406ZM14.9707 3.84766C8.93555 3.84766 4.08203-1.01562 4.08203-7.05078C4.08203-13.0957 8.92578-17.9492 14.9609-17.9492C21.0059-17.9492 25.8594-13.0957 25.8691-7.05078C25.8789-1.01562 21.0156 3.84766 14.9707 3.84766ZM14.9414-1.38672C15.5176-1.38672 15.8594-1.77734 15.8594-2.38281L15.8594-6.13281L19.7754-6.13281C20.3711-6.13281 20.7812-6.46484 20.7812-7.02148C20.7812-7.59766 20.3906-7.93945 19.7754-7.93945L15.8594-7.93945L15.8594-11.8652C15.8594-12.4805 15.5176-12.8711 14.9414-12.8711C14.375-12.8711 14.0527-12.4609 14.0527-11.8652L14.0527-7.93945L10.1465-7.93945C9.53125-7.93945 9.13086-7.59766 9.13086-7.02148C9.13086-6.46484 9.55078-6.13281 10.1465-6.13281L14.0527-6.13281L14.0527-2.38281C14.0527-1.79688 14.375-1.38672 14.9414-1.38672Z"/>
  </g>
  <text style="stroke:none;fill:black;font-family:-apple-system,&quot;SF Pro Display&quot;,&quot;SF Pro Text&quot;,Helvetica,sans-serif;font-weight:bold;" transform="matrix(1 0 0 1 263 1953)">Design Variations</text>
  <text style="stroke:none;fill:black;font-family:-apple-system,&quot;SF Pro Display&quot;,&quot;SF Pro Text&quot;,Helvetica,sans-serif;" transform="matrix(1 0 0 1 263 1971)">Symbols are supported in up to nine weights and three scales.</text>
  <text style="stroke:none;fill:black;font-family:-apple-system,&quot;SF Pro Display&quot;,&quot;SF Pro Text&quot;,Helvetica,sans-serif;" transform="matrix(1 0 0 1 263 1989)">For optimal layout with text and other symbols, vertically align</text>
  <text style="stroke:none;fill:black;font-family:-apple-system,&quot;SF Pro Display&quot;,&quot;SF Pro Text&quot;,Helvetica,sans-serif;" transform="matrix(1 0 0 1 263 2007)">symbols with the adjacent text.</text>
  <line id="" style="fill:none;stroke:#00AEEF;stroke-width:0.5;opacity:1.0;" x1="776" x2="776" y1="1919" y2="1933"/>
  <g id="" transform="matrix(1 0 0 1 776 1933)">
   <path d="M3.31055 0.126953C3.82812 0.126953 4.08203-0.0683594 4.26758-0.605469L5.52734-4.0625L11.2891-4.0625L12.5488-0.605469C12.7344-0.0683594 12.9883 0.126953 13.4961 0.126953C14.0137 0.126953 14.3457-0.185547 14.3457-0.673828C14.3457-0.839844 14.3164-0.986328 14.2383-1.20117L9.6582-13.3887C9.43359-13.9941 9.0332-14.2871 8.4082-14.2871C7.80273-14.2871 7.39258-13.9941 7.17773-13.3984L2.59766-1.19141C2.51953-0.976562 2.49023-0.830078 2.49023-0.664062C2.49023-0.175781 2.80273 0.126953 3.31055 0.126953ZM6.00586-5.53711L8.37891-12.1094L8.42773-12.1094L10.8008-5.53711Z"/>
  </g>
  <line id="" style="fill:none;stroke:#00AEEF;stroke-width:0.5;opacity:1.0;" x1="792.836" x2="792.836" y1="1919" y2="1933"/>
  <text style="stroke:none;fill:black;font-family:-apple-system,&quot;SF Pro Display&quot;,&quot;SF Pro Text&quot;,Helvetica,sans-serif;font-weight:bold;" transform="matrix(1 0 0 1 776 1953)">Margins</text>
  <text style="stroke:none;fill:black;font-family:-apple-system,&quot;SF Pro Display&quot;,&quot;SF Pro Text&quot;,Helvetica,sans-serif;" transform="matrix(1 0 0 1 776 1971)">Leading and trailing margins on the left and right side of each symbol</text>
  <text style="stroke:none;fill:black;font-family:-apple-system,&quot;SF Pro Display&quot;,&quot;SF Pro Text&quot;,Helvetica,sans-serif;" transform="matrix(1 0 0 1 776 1989)">can be adjusted by modifying the x-location of the margin guidelines.</text>
  <text style="stroke:none;fill:black;font-family:-apple-system,&quot;SF Pro Display&quot;,&quot;SF Pro Text&quot;,Helvetica,sans-serif;" transform="matrix(1 0 0 1 776 2007)">Modifications are automatically applied proportionally to all</text>
  <text style="stroke:none;fill:black;font-family:-apple-system,&quot;SF Pro Display&quot;,&quot;SF Pro Text&quot;,Helvetica,sans-serif;" transform="matrix(1 0 0 1 776 2025)">scales and weights.</text>
  <g id="" transform="matrix(1 0 0 1 1289 1933)">
   <path d="M2.8418 1.86523L4.54102 3.57422C5.40039 4.44336 6.38672 4.38477 7.31445 3.35938L17.4902-7.85156C17.7539-7.76367 18.0273-7.7832 18.3398-7.8418L19.4043-8.03711L20.0684-7.36328L20.0293-6.80664C19.9902-6.30859 20.1172-5.92773 20.6055-5.44922L21.3672-4.70703C21.8457-4.22852 22.4609-4.19922 22.9297-4.66797L25.8398-7.58789C26.3086-8.05664 26.2891-8.65234 25.8105-9.13086L25.0391-9.89258C24.5605-10.3711 24.1895-10.5273 23.7109-10.4883L23.1348-10.4395L22.4902-11.0742L22.7344-12.1973C22.8613-12.7637 22.7051-13.2031 22.1191-13.7891L19.9219-15.9766C16.582-19.2969 12.1484-19.2188 9.25781-16.3281C8.83789-15.918 8.80859-15.3418 9.04297-14.9512C9.27734-14.5898 9.73633-14.3555 10.3809-14.5215C11.8457-14.8633 13.3691-14.9219 14.7949-13.9844L14.209-12.5293C14.0137-12.0508 13.9844-11.6504 14.1113-11.2891L3.04688-0.898438C2.06055 0.0195312 1.98242 0.996094 2.8418 1.86523ZM10.752-15.957C13.1836-17.7344 16.4746-17.4316 18.7012-15.2051L21.1328-12.793C21.3672-12.5586 21.4062-12.373 21.3379-12.0312L21.0156-10.5469L22.5195-9.0625L23.5059-9.12109C23.7598-9.13086 23.8379-9.11133 24.0332-8.91602L24.6094-8.33984L22.168-5.89844L21.5918-6.47461C21.3965-6.66992 21.3672-6.74805 21.377-7.01172L21.4453-7.98828L19.9512-9.47266L18.4277-9.21875C18.1055-9.15039 17.959-9.17969 17.7148-9.41406L15.7129-11.416C15.459-11.6504 15.4297-11.8164 15.5859-12.1875L16.4648-14.2773C14.9023-15.7324 12.8711-16.3574 10.8398-15.7617C10.6836-15.7227 10.625-15.8496 10.752-15.957ZM5.27344 2.30469L4.10156 1.14258C3.63281 0.683594 3.74023 0.341797 4.14062-0.0195312L14.9512-10.1953L16.416-8.71094L6.42578 2.27539C6.07422 2.67578 5.74219 2.77344 5.27344 2.30469Z"/>
  </g>
  <text style="stroke:none;fill:black;font-family:-apple-system,&quot;SF Pro Display&quot;,&quot;SF Pro Text&quot;,Helvetica,sans-serif;font-weight:bold;" transform="matrix(1 0 0 1 1289 1953)">Exporting</text>
  <text style="stroke:none;fill:black;font-family:-apple-system,&quot;SF Pro Display&quot;,&quot;SF Pro Text&quot;,Helvetica,sans-serif;" transform="matrix(1 0 0 1 1289 1971)">Symbols should be outlined when exporting to ensure the</text>
  <text style="stroke:none;fill:black;font-family:-apple-system,&quot;SF Pro Display&quot;,&quot;SF Pro Text&quot;,Helvetica,sans-serif;" transform="matrix(1 0 0 1 1289 1989)">design is preserved when submitting to Xcode.</text>
  <text id="template-version" style="stroke:none;fill:black;font-family:-apple-system,&quot;SF Pro Display&quot;,&quot;SF Pro Text&quot;,Helvetica,sans-serif;text-anchor:end;" transform="matrix(1 0 0 1 3036 1933)">Template v.2.0</text>
  <text style="stroke:none;fill:black;font-family:-apple-system,&quot;SF Pro Display&quot;,&quot;SF Pro Text&quot;,Helvetica,sans-serif;text-anchor:end;" transform="matrix(1 0 0 1 3036 1951)">Requires Xcode 12 or greater</text>
  <text style="stroke:none;fill:black;font-family:-apple-system,&quot;SF Pro Display&quot;,&quot;SF Pro Text&quot;,Helvetica,sans-serif;text-anchor:end;" transform="matrix(1 0 0 1 3036 1969)">Generated from goforward.plus</text>
  <text style="stroke:none;fill:black;font-family:-apple-system,&quot;SF Pro Display&quot;,&quot;SF Pro Text&quot;,Helvetica,sans-serif;text-anchor:end;" transform="matrix(1 0 0 1 3036 1987)">Typeset at 100 points</text>
  <text style="stroke:none;fill:black;font-family:-apple-system,&quot;SF Pro Display&quot;,&quot;SF Pro Text&quot;,Helvetica,sans-serif;" transform="matrix(1 0 0 1 263 726)">Small</text>
  <text style="stroke:none;fill:black;font-family:-apple-system,&quot;SF Pro Display&quot;,&quot;SF Pro Text&quot;,Helvetica,sans-serif;" transform="matrix(1 0 0 1 263 1156)">Medium</text>
  <text style="stroke:none;fill:black;font-family:-apple-system,&quot;SF Pro Display&quot;,&quot;SF Pro Text&quot;,Helvetica,sans-serif;" transform="matrix(1 0 0 1 263 1586)">Large</text>
 </g>
 <g id="Guides">
  <g id="H-reference" style="fill:#27AAE1;stroke:none;" transform="matrix(1 0 0 1 339 696)">
   <path d="M0.976562 0L3.66211 0L12.9883-24.4629L45.752-24.4629L55.127 0L57.7637 0L30.6152-70.459L28.125-70.459ZM29.3457-67.1387L29.4434-67.1387L44.873-26.709L13.8672-26.709Z"/>
  </g>
  <line id="Baseline-S" style="fill:none;stroke:#27AAE1;opacity:1;stroke-width:0.5;" x1="263" x2="3036" y1="696" y2="696"/>
  <line id="Capline-S" style="fill:none;stroke:#27AAE1;opacity:1;stroke-width:0.5;" x1="263" x2="3036" y1="625.541" y2="625.541"/>
  <g id="H-reference" style="fill:#27AAE1;stroke:none;" transform="matrix(1 0 0 1 339 1126)">
   <path d="M0.976562 0L3.66211 0L12.9883-24.4629L45.752-24.4629L55.127 0L57.7637 0L30.6152-70.459L28.125-70.459ZM29.3457-67.1387L29.4434-67.1387L44.873-26.709L13.8672-26.709Z"/>
  </g>
  <line id="Baseline-M" style="fill:none;stroke:#27AAE1;opacity:1;stroke-width:0.5;" x1="263" x2="3036" y1="1126" y2="1126"/>
  <line id="Capline-M" style="fill:none;stroke:#27AAE1;opacity:1;stroke-width:0.5;" x1="263" x2="3036" y1="1055.54" y2="1055.54"/>
  <g id="H-reference" style="fill:#27AAE1;stroke:none;" transform="matrix(1 0 0 1 339 1556)">
   <path d="M0.976562 0L3.66211 0L12.9883-24.4629L45.752-24.4629L55.127 0L57.7637 0L30.6152-70.459L28.125-70.459ZM29.3457-67.1387L29.4434-67.1387L44.873-26.709L13.8672-26.709Z"/>
  </g>
  <line id="Baseline-L" style="fill:none;stroke:#27AAE1;opacity:1;stroke-width:0.5;" x1="263" x2="3036" y1="1556" y2="1556"/>
  <line id="Capline-L" style="fill:none;stroke:#27AAE1;opacity:1;stroke-width:0.5;" x1="263" x2="3036" y1="1485.54" y2="1485.54"/>
  <line id="left-margin" style="fill:none;stroke:#00AEEF;stroke-width:0.5;opacity:1.0;" x1="1391.3" x2="1391.3" y1="1030.79" y2="1150.12"/>
  <line id="right-margin" style="fill:none;stroke:#00AEEF;stroke-width:0.5;opacity:1.0;" x1="1508.39" x2="1508.39" y1="1030.79" y2="1150.12"/>
 </g>
 <g id="Symbols">
  <g id="Black-L" transform="matrix(1 0 0 1 2854.05 1556)">
   <path d="M79.3457 32.8125C116.748 32.8125 147.412 2.14844 147.412-35.2539C147.412-52.9297 139.111-73.0957 126.807-83.6914C121.338-88.5742 115.234-88.5254 111.377-84.3262C107.08-79.6875 108.545-73.584 112.793-68.9941C121.68-59.8145 126.953-48.5352 126.953-35.2539C127.002-8.88672 105.713 12.3535 79.3457 12.3535C52.9785 12.3535 31.7383-8.88672 31.7383-35.2539C31.7383-56.1523 45.0195-73.8281 63.6719-80.2734L63.6719-71.582C63.6719-65.5762 68.9453-63.7207 74.3652-67.6758L99.1699-85.8398C103.467-88.9648 103.369-94.1406 99.1699-97.2168L74.3652-115.479C69.043-119.385 63.6719-117.725 63.6719-111.523L63.6719-101.514C33.7402-94.3848 11.2793-67.334 11.2793-35.2539C11.2793 2.14844 41.9434 32.8125 79.3457 32.8125ZM79.1992-8.74023C83.7402-8.74023 86.9629-11.9629 86.9629-16.5039L86.9629-27.3926L98.8281-27.3926C103.271-27.3926 106.543-30.6152 106.543-35.1074C106.543-39.6484 103.32-42.8711 98.8281-42.8711L86.9629-42.8711L86.9629-54.1504C86.9629-58.6914 83.7402-61.9141 79.1992-61.9141C74.707-61.9141 71.4844-58.6426 71.4844-54.1504L71.4844-42.8711L59.668-42.8711C55.1758-42.8711 51.9043-39.6484 51.9043-35.1074C51.9043-30.6152 55.2246-27.3926 59.668-27.3926L71.4844-27.3926L71.4844-16.5039C71.4844-12.0117 74.707-8.74023 79.1992-8.74023Z"/>
  </g>
  <g id="Heavy-L" transform="matrix(1 0 0 1 2558.39 1556)">
   <path d="M78.2715 31.7383C115.088 31.7383 145.312 1.5625 145.312-35.2539C145.312-53.8574 136.328-73.7793 122.998-84.5703C118.262-88.7207 112.891-88.5254 109.668-84.8633C106.055-80.7617 107.324-75.4883 111.084-71.582C121.289-62.3047 127.49-49.8047 127.539-35.2539C127.539-8.00781 105.566 13.9648 78.2715 13.9648C51.0254 13.9648 29.0527-8.00781 29.0527-35.2539C29.0527-57.4219 43.5059-76.0254 63.5254-82.2754L63.5254-73.2422C63.5254-67.6758 68.2129-66.0156 73.0469-69.5312L96.7285-86.7188C100.586-89.5508 100.537-94.0918 96.7285-96.9238L73.0957-114.111C68.2617-117.676 63.5254-116.113 63.5254-110.449L63.5254-100.635C33.7402-93.8477 11.2793-66.9922 11.2793-35.2539C11.2793 1.5625 41.5039 31.7383 78.2715 31.7383ZM78.1738-8.30078C82.3242-8.30078 85.2051-11.2793 85.2051-15.4785L85.2051-28.125L98.7793-28.125C102.93-28.125 105.957-31.0059 105.957-35.1074C105.957-39.3066 102.979-42.1875 98.7793-42.1875L85.2051-42.1875L85.2051-55.3711C85.2051-59.5703 82.3242-62.5 78.1738-62.5C74.0234-62.5 71.1426-59.5215 71.1426-55.3711L71.1426-42.1875L57.6172-42.1875C53.418-42.1875 50.4395-39.3066 50.4395-35.1074C50.4395-31.0059 53.4668-28.125 57.6172-28.125L71.1426-28.125L71.1426-15.4785C71.1426-11.3281 74.0234-8.30078 78.1738-8.30078Z"/>
  </g>
  <g id="Bold-L" transform="matrix(1 0 0 1 2262.88 1556)">
   <path d="M77.0996 30.5664C113.232 30.5664 142.92 0.878906 142.92-35.2539C142.92-54.834 133.252-74.5117 118.75-85.5469C114.844-88.8672 110.303-88.5742 107.764-85.4004C104.932-81.9336 106.006-77.6367 109.229-74.5117C120.801-65.0879 128.125-51.2207 128.174-35.2539C128.174-6.93359 105.371 15.8203 77.0996 15.8203C48.8281 15.8203 26.0742-6.93359 26.0742-35.2539C26.0742-58.7891 41.7969-78.5156 63.3789-84.4727L63.3789-75.0488C63.3789-70.0684 67.3828-68.6035 71.6309-71.6797L93.9453-87.6953C97.3633-90.1855 97.3633-94.0918 93.9453-96.582L71.6797-112.646C67.4316-115.723 63.3789-114.307 63.3789-109.229L63.3789-99.6094C33.7402-93.2129 11.2793-66.6504 11.2793-35.2539C11.2793 0.878906 41.0156 30.5664 77.0996 30.5664ZM76.9531-7.86133C80.7129-7.86133 83.2031-10.498 83.2031-14.3066L83.2031-29.0039L98.8281-29.0039C102.539-29.0039 105.273-31.4453 105.273-35.1562C105.273-38.8672 102.637-41.3574 98.8281-41.3574L83.2031-41.3574L83.2031-56.7383C83.2031-60.5469 80.7129-63.1836 76.9531-63.1836C73.291-63.1836 70.8496-60.498 70.8496-56.7383L70.8496-41.3574L55.2734-41.3574C51.4648-41.3574 48.7793-38.8672 48.7793-35.1562C48.7793-31.4453 51.5137-29.0039 55.2734-29.0039L70.8496-29.0039L70.8496-14.3066C70.8496-10.5469 73.291-7.86133 76.9531-7.86133Z"/>
  </g>
  <g id="Semibold-L" transform="matrix(1 0 0 1 1966.97 1556)">
   <path d="M76.2695 29.7852C111.914 29.7852 141.309 0.390625 141.309-35.2051C141.309-55.5176 131.152-75 115.82-86.2305C112.5-89.0137 108.545-88.5742 106.445-85.791C104.15-82.7637 105.078-79.1016 107.91-76.5137C120.508-66.9922 128.564-52.1973 128.613-35.2051C128.662-6.25 105.273 17.0898 76.2695 17.0898C47.3145 17.0898 24.0234-6.25 24.0234-35.2051C24.0234-59.7168 40.625-80.1758 63.2812-85.9375L63.2812-76.3184C63.2812-71.7285 66.7969-70.3613 70.6543-73.1445L92.041-88.3789C95.166-90.625 95.166-94.0918 92.041-96.3379L70.7031-111.572C66.8457-114.355 63.2812-113.086 63.2812-108.398L63.2812-98.9258C33.7402-92.8223 11.2793-66.4062 11.2793-35.2051C11.2793 0.390625 40.6738 29.7852 76.2695 29.7852ZM76.1719-7.51953C79.5898-7.51953 81.7871-9.91211 81.7871-13.4766L81.7871-29.6387L98.8281-29.6387C102.295-29.6387 104.785-31.7871 104.785-35.1562C104.785-38.5742 102.393-40.7715 98.8281-40.7715L81.7871-40.7715L81.7871-57.666C81.7871-61.2305 79.5898-63.623 76.1719-63.623C72.8027-63.623 70.6543-61.1816 70.6543-57.666L70.6543-40.7715L53.6621-40.7715C50.0977-40.7715 47.6562-38.5742 47.6562-35.1562C47.6562-31.7871 50.1953-29.6387 53.6621-29.6387L70.6543-29.6387L70.6543-13.4766C70.6543-10.0098 72.8027-7.51953 76.1719-7.51953Z"/>
  </g>
  <g id="Medium-L" transform="matrix(1 0 0 1 1670.87 1556)">
   <path d="M75.6836 29.1992C110.938 29.1992 140.088 0.0488281 140.088-35.2051C140.088-56.0547 129.492-75.3906 113.623-86.7676C110.693-89.1113 107.178-88.5742 105.42-86.084C103.564-83.3984 104.395-80.2246 106.934-78.0273C120.264-68.457 128.906-52.9297 128.906-35.2051C128.955-5.71289 105.176 18.0176 75.6836 18.0176C46.1426 18.0176 22.4609-5.71289 22.4609-35.2051C22.4609-60.4492 39.7461-81.4453 63.1836-87.0117L63.1836-77.2461C63.1836-72.9492 66.3574-71.7285 69.9219-74.2188L90.625-88.8672C93.5059-90.918 93.5059-94.043 90.625-96.1426L69.9707-110.791C66.4062-113.379 63.1836-112.158 63.1836-107.764L63.1836-98.3887C33.7891-92.4805 11.2793-66.2598 11.2793-35.2051C11.2793 0.0488281 40.3809 29.1992 75.6836 29.1992ZM75.5371-7.27539C78.7109-7.27539 80.7129-9.52148 80.7129-12.8418L80.7129-30.0781L98.877-30.0781C102.1-30.0781 104.443-32.0312 104.443-35.1562C104.443-38.3301 102.246-40.332 98.877-40.332L80.7129-40.332L80.7129-58.3984C80.7129-61.7676 78.7109-63.9648 75.5371-63.9648C72.4121-63.9648 70.5078-61.6699 70.5078-58.3984L70.5078-40.332L52.3926-40.332C49.0234-40.332 46.7773-38.3301 46.7773-35.1562C46.7773-32.0312 49.1699-30.0781 52.3926-30.0781L70.5078-30.0781L70.5078-12.8418C70.5078-9.57031 72.4121-7.27539 75.5371-7.27539Z"/>
  </g>
  <g id="Regular-L" transform="matrix(1 0 0 1 1374.97 1556)">
   <path d="M74.8535 28.3691C109.668 28.3691 138.477-0.390625 138.477-35.2051C138.477-56.7383 127.393-75.9277 110.742-87.4023C108.35-89.209 105.42-88.5742 104.102-86.4258C102.783-84.1797 103.467-81.6406 105.664-80.0293C119.922-70.3125 129.297-53.9062 129.346-35.2051C129.395-5.0293 105.078 19.2871 74.8535 19.2871C44.6777 19.2871 20.4102-5.0293 20.4102-35.2051C20.4102-61.377 38.5742-83.1055 63.0859-88.4277L63.0859-78.5156C63.0859-74.5605 65.8203-73.4863 68.9453-75.6836L88.7207-89.5508C91.3086-91.3574 91.3574-94.043 88.7207-95.8984L68.9941-109.766C65.8203-112.012 63.0859-110.938 63.0859-106.934L63.0859-97.7051C33.7891-92.0898 11.2793-66.0156 11.2793-35.2051C11.2793-0.390625 40.0879 28.3691 74.8535 28.3691ZM74.7559-6.98242C77.6367-6.98242 79.3457-8.93555 79.3457-12.0117L79.3457-30.7129L98.9258-30.7129C101.904-30.7129 103.955-32.373 103.955-35.1562C103.955-38.0371 102.002-39.7461 98.9258-39.7461L79.3457-39.7461L79.3457-59.375C79.3457-62.5 77.6367-64.4531 74.7559-64.4531C71.9238-64.4531 70.3125-62.4023 70.3125-59.375L70.3125-39.7461L50.7812-39.7461C47.7051-39.7461 45.7031-38.0371 45.7031-35.1562C45.7031-32.373 47.8027-30.7129 50.7812-30.7129L70.3125-30.7129L70.3125-12.0117C70.3125-9.0332 71.9238-6.98242 74.7559-6.98242Z"/>
  </g>
  <g id="Light-L" transform="matrix(1 0 0 1 1079.18 1556)">
   <path d="M73.9258 27.4902C108.301 27.4902 136.621-0.830078 136.621-35.1562C136.621-57.0801 125.049-76.5137 107.715-87.6953C105.908-89.0137 103.711-88.5254 102.734-86.8652C101.758-85.1562 102.295-83.2031 103.955-82.0312C119.434-72.2168 129.688-54.9316 129.736-35.1562C129.736-4.3457 104.785 20.6055 73.9258 20.6055C43.1152 20.6055 18.2129-4.3457 18.2129-35.1562C18.2129-62.1582 37.2559-84.6191 62.6465-89.7949L62.6465-78.7109C62.6465-75.4883 64.8926-74.5117 67.5781-76.416L86.9629-89.9902C89.1602-91.5039 89.209-93.75 86.9629-95.3125L67.627-108.887C64.8926-110.791 62.6465-109.814 62.6465-106.592L62.6465-96.8262C33.5938-91.4551 11.2793-65.6738 11.2793-35.1562C11.2793-0.830078 39.5996 27.4902 73.9258 27.4902ZM73.8281-6.93359C76.0254-6.93359 77.3438-8.44727 77.3438-10.6934L77.3438-31.7871L98.9746-31.7871C101.123-31.7871 102.734-33.1055 102.734-35.1562C102.734-37.3047 101.27-38.6719 98.9746-38.6719L77.3438-38.6719L77.3438-60.3027C77.3438-62.5977 76.0254-64.0625 73.8281-64.0625C71.7285-64.0625 70.459-62.5488 70.459-60.3027L70.459-38.6719L48.9258-38.6719C46.6309-38.6719 45.0684-37.3047 45.0684-35.1562C45.0684-33.1055 46.7285-31.7871 48.9258-31.7871L70.459-31.7871L70.459-10.6934C70.459-8.49609 71.7285-6.93359 73.8281-6.93359Z"/>
  </g>
  <g id="Thin-L" transform="matrix(1 0 0 1 783.693 1556)">
   <path d="M72.7051 26.3184C106.494 26.3184 134.18-1.36719 134.18-35.1074C134.18-57.5684 121.973-77.2949 103.76-88.0371C102.686-88.7207 101.465-88.3789 100.928-87.4512C100.439-86.4746 100.732-85.3027 101.709-84.668C118.75-74.6582 130.176-56.25 130.176-35.1074C130.176-3.41797 104.443 22.3145 72.7051 22.3145C41.0156 22.3145 15.2832-3.41797 15.2832-35.1074C15.2832-63.1836 35.4492-86.6211 62.1094-91.6016L62.1094-79.0039C62.1094-76.7578 63.7207-75.9277 65.7715-77.3926L84.6191-90.5273C86.3281-91.748 86.3281-93.3594 84.6191-94.5801L65.8203-107.715C63.7207-109.18 62.1094-108.35 62.1094-106.104L62.1094-95.6543C33.3496-90.5762 11.2793-65.2832 11.2793-35.1074C11.2793-1.36719 38.9648 26.3184 72.7051 26.3184ZM72.6074-6.88477C73.9258-6.88477 74.7559-7.76367 74.7559-8.93555L74.7559-33.1543L98.9746-33.1543C100.146-33.1543 101.123-34.0332 101.123-35.1074C101.123-36.3281 100.244-37.2559 98.9746-37.2559L74.7559-37.2559L74.7559-61.4746C74.7559-62.7441 73.9258-63.623 72.6074-63.623C71.4844-63.623 70.6543-62.7441 70.6543-61.4746L70.6543-37.2559L46.4355-37.2559C45.166-37.2559 44.2871-36.3281 44.2871-35.1074C44.2871-34.0332 45.2637-33.1543 46.4355-33.1543L70.6543-33.1543L70.6543-8.93555C70.6543-7.8125 71.4844-6.88477 72.6074-6.88477Z"/>
  </g>
  <g id="Ultralight-L" transform="matrix(1 0 0 1 487.616 1556)">
   <path d="M72.1191 25.7324C105.566 25.7324 132.91-1.61133 132.91-35.1074C132.91-57.8125 120.361-77.6855 101.758-88.1836C101.025-88.623 100.293-88.3301 100-87.7441C99.707-87.1582 99.9023-86.377 100.537-86.0352C118.408-75.9277 130.42-56.8848 130.42-35.1074C130.42-2.97852 104.248 23.2422 72.1191 23.2422C39.9414 23.2422 13.7695-2.97852 13.7695-35.1074C13.7695-63.7207 34.5703-87.6465 61.8164-92.4805L61.8164-79.1504C61.8164-77.3926 63.0859-76.6113 64.8926-77.8809L83.3984-90.8203C84.8633-91.8457 84.8633-93.1641 83.3984-94.1895L64.8926-107.129C63.0859-108.398 61.8164-107.617 61.8164-105.859L61.8164-95.0195C33.2031-90.1367 11.2793-65.0391 11.2793-35.1074C11.2793-1.61133 38.623 25.7324 72.1191 25.7324ZM72.0215-6.88477C72.8027-6.88477 73.4375-7.42188 73.4375-8.05664L73.4375-33.8379L99.0234-33.8379C99.6582-33.8379 100.293-34.5215 100.293-35.1074C100.293-35.8398 99.707-36.5234 99.0234-36.5234L73.4375-36.5234L73.4375-62.1094C73.4375-62.793 72.8027-63.3789 72.0215-63.3789C71.3379-63.3789 70.752-62.8418 70.752-62.1094L70.752-36.5234L45.166-36.5234C44.4336-36.5234 43.8965-35.8398 43.8965-35.1074C43.8965-34.5215 44.5312-33.8379 45.166-33.8379L70.752-33.8379L70.752-8.05664C70.752-7.42188 71.3379-6.88477 72.0215-6.88477Z"/>
  </g>
  <g id="Black-M" transform="matrix(1 0 0 1 2870.97 1126)">
   <path d="M62.4023 18.4082C91.9922 18.4082 116.113-5.66406 116.113-35.2539C116.113-47.9492 110.303-64.0137 101.758-71.7773C96.8262-76.2207 91.5039-76.4648 87.8906-72.8516C83.7891-68.7988 85.1074-63.2324 88.7695-58.9355C94.5801-51.9531 97.8027-44.3848 97.8027-35.2539C97.8027-15.7227 81.9824 0.146484 62.4023 0.146484C42.8711 0.146484 27.002-15.7227 27.002-35.2539C27.002-50.1953 36.2305-62.9395 49.3164-68.1641L49.3164-61.3281C49.3164-56.3965 53.9551-54.7363 58.6426-58.2031L79.248-73.5352C82.8613-76.2207 82.7637-80.7617 79.248-83.3984L58.5938-98.7305C54.0527-102.148 49.3164-100.684 49.3164-95.6543L49.3164-87.3047C26.0254-81.4453 8.74023-60.3516 8.74023-35.2539C8.74023-5.66406 32.8125 18.4082 62.4023 18.4082ZM62.3535-15.2344C65.9668-15.2344 68.75-17.8711 68.75-21.3867L68.75-28.6621L76.6113-28.6621C80.127-28.6621 82.7637-31.4941 82.7637-35.1074C82.7637-38.7695 80.127-41.5527 76.6113-41.5527L68.75-41.5527L68.75-48.7793C68.75-52.2949 65.9668-54.9805 62.3535-54.9805C58.6914-54.9805 55.9082-52.2949 55.9082-48.7793L55.9082-41.5527L48.0469-41.5527C44.5312-41.5527 41.8945-38.7695 41.8945-35.1074C41.8945-31.4941 44.5312-28.6621 48.0469-28.6621L55.9082-28.6621L55.9082-21.3867C55.9082-17.8711 58.6914-15.2344 62.3535-15.2344Z"/>
  </g>
  <g id="Heavy-M" transform="matrix(1 0 0 1 2575.19 1126)">
   <path d="M61.5234 17.5293C90.5273 17.5293 114.258-6.20117 114.258-35.2539C114.258-48.8281 107.861-64.5996 98.3887-72.6562C94.1406-76.4648 89.4043-76.5137 86.377-73.291C82.959-69.6777 84.082-64.8926 87.3535-61.2793C94.2871-54.1992 98.3398-45.5078 98.3398-35.2539C98.3398-14.8926 81.8848 1.61133 61.5234 1.61133C41.1133 1.61133 24.6582-14.8926 24.6582-35.2539C24.6582-51.3672 34.9121-64.9902 49.2676-70.0195L49.2676-63.0371C49.2676-58.4473 53.3691-56.9824 57.5684-60.0586L77.002-74.3652C80.3223-76.8066 80.2246-80.8105 77.002-83.2031L57.5684-97.5098C53.418-100.586 49.2676-99.2676 49.2676-94.5312L49.2676-86.5723C26.0742-81.0059 8.74023-60.1074 8.74023-35.2539C8.74023-6.20117 32.4707 17.5293 61.5234 17.5293ZM61.4258-14.7949C64.8438-14.7949 67.334-17.2363 67.334-20.6055L67.334-29.248L76.5625-29.248C79.9316-29.248 82.4219-31.7383 82.4219-35.1074C82.4219-38.5742 79.9316-41.0645 76.5625-41.0645L67.334-41.0645L67.334-49.8535C67.334-53.2227 64.8438-55.6641 61.4258-55.6641C58.0078-55.6641 55.5176-53.1738 55.5176-49.8535L55.5176-41.0645L46.2891-41.0645C42.9199-41.0645 40.4297-38.5742 40.4297-35.1074C40.4297-31.7383 42.9199-29.248 46.2891-29.248L55.5176-29.248L55.5176-20.6055C55.5176-17.2852 58.0078-14.7949 61.4258-14.7949Z"/>
  </g>
  <g id="Bold-M" transform="matrix(1 0 0 1 2279.5 1126)">
   <path d="M60.498 16.5039C88.8672 16.5039 112.207-6.83594 112.207-35.2539C112.207-49.8047 105.176-65.2344 94.6289-73.6328C91.1133-76.709 87.0605-76.5625 84.668-73.7793C81.9824-70.7031 82.959-66.748 85.791-63.8672C93.8965-56.6406 98.9258-46.7773 98.9258-35.2539C98.9746-13.9648 81.7871 3.22266 60.498 3.22266C39.1602 3.22266 22.0703-13.9648 22.0703-35.2539C22.0703-52.6367 33.4473-67.2363 49.2188-72.0215L49.2188-64.9902C49.2188-60.791 52.7344-59.5215 56.3965-62.1582L74.5117-75.293C77.4414-77.4414 77.3926-80.8594 74.5117-82.959L56.4453-96.1426C52.7832-98.7793 49.2188-97.6074 49.2188-93.3105L49.2188-85.7422C26.1719-80.5664 8.74023-59.8145 8.74023-35.2539C8.74023-6.83594 32.0801 16.5039 60.498 16.5039ZM60.4004-14.3066C63.5254-14.3066 65.7227-16.5527 65.7227-19.7266L65.7227-29.8828L76.5625-29.8828C79.7363-29.8828 82.0312-32.0312 82.0312-35.1562C82.0312-38.3301 79.7852-40.4785 76.5625-40.4785L65.7227-40.4785L65.7227-51.0742C65.7227-54.248 63.5254-56.4941 60.4004-56.4941C57.2266-56.4941 55.0781-54.1992 55.0781-51.0742L55.0781-40.4785L44.2871-40.4785C41.0645-40.4785 38.8184-38.3301 38.8184-35.1562C38.8184-32.0312 41.1133-29.8828 44.2871-29.8828L55.0781-29.8828L55.0781-19.7266C55.0781-16.6016 57.2266-14.3066 60.4004-14.3066Z"/>
  </g>
  <g id="Semibold-M" transform="matrix(1 0 0 1 1983.5 1126)">
   <path d="M59.7656 15.7715C87.7441 15.7715 110.791-7.27539 110.791-35.2539C110.791-50.4883 103.32-65.6738 92.041-74.3164C89.0137-76.9043 85.4492-76.5625 83.4961-74.0723C81.3477-71.3867 82.2266-68.0664 84.7168-65.6738C93.6523-58.3984 99.3164-47.6074 99.3652-35.2539C99.3652-13.3301 81.6895 4.3457 59.7656 4.3457C37.8418 4.3457 20.2637-13.3301 20.2637-35.2539C20.2637-53.5156 32.4219-68.7988 49.1699-73.3887L49.1699-66.3086C49.1699-62.4023 52.2949-61.2305 55.6152-63.623L72.7539-75.9277C75.4395-77.8809 75.4395-80.9082 72.7539-82.8125L55.6152-95.166C52.2949-97.5586 49.1699-96.4844 49.1699-92.4805L49.1699-85.1562C26.2207-80.2246 8.74023-59.6191 8.74023-35.2539C8.74023-7.27539 31.7871 15.7715 59.7656 15.7715ZM59.668-13.9648C62.6465-13.9648 64.5996-16.0156 64.5996-19.0918L64.5996-30.3223L76.5625-30.3223C79.5898-30.3223 81.7383-32.2266 81.7383-35.1562C81.7383-38.1348 79.6387-40.0879 76.5625-40.0879L64.5996-40.0879L64.5996-51.9043C64.5996-54.9805 62.6465-57.0801 59.668-57.0801C56.7383-57.0801 54.834-54.9316 54.834-51.9043L54.834-40.0879L42.8711-40.0879C39.7949-40.0879 37.6953-38.1348 37.6953-35.1562C37.6953-32.2266 39.8926-30.3223 42.8711-30.3223L54.834-30.3223L54.834-19.0918C54.834-16.1133 56.7383-13.9648 59.668-13.9648Z"/>
  </g>
  <g id="Medium-M" transform="matrix(1 0 0 1 1687.3 1126)">
   <path d="M59.2285 15.2832C86.9141 15.2832 109.766-7.56836 109.766-35.2539C109.766-51.0254 101.904-65.9668 90.0879-74.8535C87.4512-77.002 84.2285-76.6113 82.6172-74.3164C80.8594-71.9238 81.6406-69.043 83.8867-67.041C93.5059-59.668 99.6094-48.291 99.6582-35.2539C99.707-12.8418 81.6406 5.17578 59.2285 5.17578C36.8164 5.17578 18.8965-12.8418 18.8965-35.2539C18.8965-54.1992 31.6895-69.9707 49.1699-74.4141L49.1699-67.334C49.1699-63.5742 51.9531-62.5488 54.9805-64.7461L71.4844-76.416C73.9258-78.2227 73.9746-80.957 71.4844-82.7148L55.0293-94.4336C51.9531-96.6309 49.1699-95.6543 49.1699-91.8457L49.1699-84.7168C26.2207-79.9805 8.74023-59.4727 8.74023-35.2539C8.74023-7.56836 31.5918 15.2832 59.2285 15.2832ZM59.1309-13.6719C61.9629-13.6719 63.7207-15.625 63.7207-18.6035L63.7207-30.6641L76.6113-30.6641C79.4922-30.6641 81.543-32.373 81.543-35.1562C81.543-38.0371 79.5898-39.7461 76.6113-39.7461L63.7207-39.7461L63.7207-52.5391C63.7207-55.5176 61.9629-57.4707 59.1309-57.4707C56.3477-57.4707 54.6387-55.4688 54.6387-52.5391L54.6387-39.7461L41.8457-39.7461C38.8672-39.7461 36.8652-38.0371 36.8652-35.1562C36.8652-32.373 38.916-30.6641 41.8457-30.6641L54.6387-30.6641L54.6387-18.6035C54.6387-15.7227 56.3477-13.6719 59.1309-13.6719Z"/>
  </g>
  <g id="Regular-M" transform="matrix(1 0 0 1 1391.3 1126)">
   <path d="M58.5449 14.5508C85.791 14.5508 108.35-8.00781 108.35-35.2539C108.35-51.6602 100.049-66.4062 87.5-75.5371C85.3516-77.1973 82.666-76.6602 81.4453-74.6582C80.2246-72.6074 80.8594-70.3125 82.8613-68.7988C93.2617-61.377 100-49.1211 100.049-35.2539C100.098-12.207 81.5918 6.25 58.5449 6.25C35.498 6.25 17.0898-12.207 17.0898-35.2539C17.0898-55.0293 30.6641-71.4844 49.1211-75.6836L49.1211-68.6523C49.1211-65.1855 51.5137-64.2578 54.1992-66.1621L69.7754-77.0996C71.9727-78.6133 72.0215-80.957 69.7754-82.5684L54.248-93.5059C51.5137-95.459 49.1211-94.5312 49.1211-91.0156L49.1211-84.1309C26.2695-79.6875 8.74023-59.2773 8.74023-35.2539C8.74023-8.00781 31.3477 14.5508 58.5449 14.5508ZM58.4473-13.3789C61.084-13.3789 62.5977-15.1367 62.5977-17.9688L62.5977-31.1523L76.6602-31.1523C79.3945-31.1523 81.2988-32.6172 81.2988-35.2051C81.2988-37.8418 79.4922-39.3555 76.6602-39.3555L62.5977-39.3555L62.5977-53.418C62.5977-56.2988 61.084-58.0566 58.4473-58.0566C55.8594-58.0566 54.4434-56.2012 54.4434-53.418L54.4434-39.3555L40.4297-39.3555C37.5977-39.3555 35.7422-37.8418 35.7422-35.2051C35.7422-32.6172 37.6953-31.1523 40.4297-31.1523L54.4434-31.1523L54.4434-17.9688C54.4434-15.2344 55.8594-13.3789 58.4473-13.3789Z"/>
  </g>
  <g id="Light-M" transform="matrix(1 0 0 1 1095.42 1126)">
   <path d="M57.7148 13.7695C84.5215 13.7695 106.689-8.39844 106.689-35.2051C106.689-52.002 97.9492-66.9434 84.8145-75.7324C83.1543-77.002 81.1523-76.5625 80.2246-75.0488C79.2969-73.4863 79.7852-71.7285 81.2988-70.6055C92.7734-63.0371 100.342-50.0488 100.391-35.2051C100.391-11.5723 81.3477 7.4707 57.7148 7.4707C34.082 7.4707 15.0879-11.5723 15.0879-35.2051C15.0879-55.7617 29.4434-72.8027 48.7305-76.9043L48.7305-68.8477C48.7305-66.0156 50.6836-65.1855 52.9785-66.7969L68.1641-77.4414C70.0684-78.8086 70.1172-80.7129 68.1641-82.0801L53.0273-92.7246C50.6836-94.3359 48.7305-93.5547 48.7305-90.6738L48.7305-83.3496C26.123-79.1016 8.74023-58.9844 8.74023-35.2051C8.74023-8.39844 30.9082 13.7695 57.7148 13.7695ZM57.6172-13.3301C59.6191-13.3301 60.8398-14.6973 60.8398-16.7969L60.8398-32.0801L76.6602-32.0801C78.7109-32.0801 80.1758-33.252 80.1758-35.1562C80.1758-37.1582 78.8086-38.3789 76.6602-38.3789L60.8398-38.3789L60.8398-54.248C60.8398-56.3965 59.6191-57.7637 57.6172-57.7637C55.7129-57.7637 54.541-56.2988 54.541-54.248L54.541-38.3789L38.7207-38.3789C36.6211-38.3789 35.2051-37.1582 35.2051-35.1562C35.2051-33.252 36.7188-32.0801 38.7207-32.0801L54.541-32.0801L54.541-16.7969C54.541-14.7461 55.7129-13.3301 57.6172-13.3301Z"/>
  </g>
  <g id="Thin-M" transform="matrix(1 0 0 1 799.806 1126)">
   <path d="M56.6406 12.7441C82.9102 12.7441 104.492-8.83789 104.492-35.1562C104.492-52.4414 95.166-67.627 81.25-76.0742C80.2734-76.7578 79.1016-76.4648 78.6133-75.5859C78.125-74.6582 78.3691-73.584 79.2969-72.998C92.1875-65.2344 100.781-51.2207 100.781-35.1562C100.781-10.791 81.0059 8.98438 56.6406 8.98438C32.2266 8.98438 12.4512-10.791 12.4512-35.1562C12.4512-56.6895 27.8809-74.6094 48.2422-78.5156L48.2422-69.0918C48.2422-67.1387 49.6094-66.4551 51.3672-67.6758L66.0645-77.9785C67.5293-79.0039 67.5293-80.3711 66.0645-81.3965L51.3672-91.6504C49.6094-92.9199 48.2422-92.2363 48.2422-90.2344L48.2422-82.2754C25.8789-78.3203 8.74023-58.5938 8.74023-35.1562C8.74023-8.83789 30.3223 12.7441 56.6406 12.7441ZM56.543-13.2812C57.7148-13.2812 58.4961-14.1113 58.4961-15.2344L58.4961-33.3008L76.709-33.3008C77.832-33.3008 78.7109-34.1309 78.7109-35.1562C78.7109-36.2793 77.8809-37.1094 76.709-37.1094L58.4961-37.1094L58.4961-55.3223C58.4961-56.4941 57.7148-57.3242 56.543-57.3242C55.4688-57.3242 54.6875-56.4941 54.6875-55.3223L54.6875-37.1094L36.5234-37.1094C35.3027-37.1094 34.4727-36.2793 34.4727-35.1562C34.4727-34.1309 35.4004-33.3008 36.5234-33.3008L54.6875-33.3008L54.6875-15.2344C54.6875-14.1113 55.4688-13.2812 56.543-13.2812Z"/>
  </g>
  <g id="Ultralight-M" transform="matrix(1 0 0 1 503.656 1126)">
   <path d="M56.0547 12.207C82.0801 12.207 103.369-9.08203 103.369-35.1562C103.369-52.6855 93.75-68.0176 79.4434-76.2207C78.8086-76.6113 78.0762-76.3672 77.7832-75.8789C77.4902-75.2441 77.6855-74.5605 78.2715-74.1699C91.8457-66.4062 100.977-51.8066 100.977-35.1562C100.977-10.3516 80.8594 9.81445 56.0547 9.81445C31.2988 9.81445 11.1328-10.3516 11.1328-35.1562C11.1328-57.1289 27.0508-75.5371 47.998-79.3457L47.998-69.2383C47.998-67.7246 49.0723-67.0898 50.5371-68.1641L64.9902-78.2227C66.2109-79.1016 66.2109-80.1758 64.9902-81.0547L50.5371-91.1133C49.0723-92.1875 47.998-91.5527 47.998-90.0391L47.998-81.7383C25.7812-77.8809 8.74023-58.3984 8.74023-35.1562C8.74023-9.08203 30.0293 12.207 56.0547 12.207ZM55.957-13.2812C56.7383-13.2812 57.2754-13.8184 57.2754-14.4531L57.2754-33.9355L76.709-33.9355C77.3438-33.9355 77.9785-34.5703 77.9785-35.1562C77.9785-35.8398 77.4414-36.4746 76.709-36.4746L57.2754-36.4746L57.2754-55.8594C57.2754-56.5918 56.7383-57.1289 55.957-57.1289C55.3223-57.1289 54.7852-56.5918 54.7852-55.8594L54.7852-36.4746L35.3516-36.4746C34.668-36.4746 34.1309-35.8398 34.1309-35.1562C34.1309-34.5703 34.7168-33.9355 35.3516-33.9355L54.7852-33.9355L54.7852-14.4531C54.7852-13.8184 55.3223-13.2812 55.957-13.2812Z"/>
  </g>
  <g id="Black-S" transform="matrix(1 0 0 1 2884.57 696)">
   <path d="M48.8281 6.73828C71.9727 6.73828 90.8203-12.1094 90.8203-35.2539C90.8203-45.2637 86.2305-57.8125 79.4922-63.916C75.6836-67.3828 71.5332-67.5293 68.75-64.7461C65.5762-61.5723 66.6016-57.2754 69.4336-53.9551C74.0723-48.4863 76.6602-42.4805 76.6602-35.2539C76.6602-19.873 64.209-7.42188 48.8281-7.42188C33.4473-7.42188 20.9961-19.873 20.9961-35.2539C20.9961-47.0703 28.2715-57.0801 38.623-61.1816L38.623-55.8105C38.623-51.9531 42.2363-50.6836 45.8496-53.3691L61.9141-65.2832C64.7461-67.3828 64.6484-70.8984 61.9141-72.9492L45.8496-84.9121C42.2852-87.5488 38.623-86.4258 38.623-82.4707L38.623-75.9766C20.3613-71.4355 6.83594-54.8828 6.83594-35.2539C6.83594-12.1094 25.6836 6.73828 48.8281 6.73828ZM48.7793-19.5312C51.6113-19.5312 53.7598-21.582 53.7598-24.3652L53.7598-30.127L60.0098-30.127C62.7441-30.127 64.8438-32.2754 64.8438-35.1562C64.8438-37.9883 62.7441-40.1367 60.0098-40.1367L53.7598-40.1367L53.7598-45.9473C53.7598-48.6816 51.6113-50.7812 48.7793-50.7812C45.8984-50.7812 43.75-48.6816 43.75-45.9473L43.75-40.1367L37.5-40.1367C34.7656-40.1367 32.666-37.9883 32.666-35.1562C32.666-32.2754 34.7656-30.127 37.5-30.127L43.75-30.127L43.75-24.3652C43.75-21.582 45.8984-19.5312 48.7793-19.5312Z"/>
  </g>
  <g id="Heavy-S" transform="matrix(1 0 0 1 2588.47 696)">
   <path d="M48.2422 6.15234C70.9961 6.15234 89.5996-12.5 89.5996-35.2539C89.5996-45.8984 84.6191-58.2031 77.1973-64.5508C73.8281-67.5781 70.1172-67.5781 67.7246-65.0391C65.0391-62.1582 65.9668-58.3984 68.5547-55.5176C73.877-50 77.002-43.2617 77.0508-35.2539C77.0508-19.2871 64.1602-6.44531 48.2422-6.44531C32.2754-6.44531 19.4336-19.2871 19.4336-35.2539C19.4336-47.8516 27.3926-58.4961 38.623-62.4512L38.623-57.1289C38.623-53.4668 41.8945-52.2949 45.166-54.7363L60.4004-65.8691C62.9883-67.8223 62.9395-70.9473 60.4004-72.8516L45.2148-84.0332C41.9434-86.4746 38.623-85.4004 38.623-81.6895L38.623-75.5371C20.459-71.1426 6.83594-54.7363 6.83594-35.2539C6.83594-12.5 25.4395 6.15234 48.2422 6.15234ZM48.1445-19.1895C50.8789-19.1895 52.8809-21.1426 52.8809-23.877L52.8809-30.4688L59.9609-30.4688C62.6953-30.4688 64.6484-32.4219 64.6484-35.1562C64.6484-37.8906 62.6953-39.8926 59.9609-39.8926L52.8809-39.8926L52.8809-46.6309C52.8809-49.3652 50.8789-51.3184 48.1445-51.3184C45.4102-51.3184 43.457-49.3652 43.457-46.6309L43.457-39.8926L36.3281-39.8926C33.6426-39.8926 31.6406-37.8906 31.6406-35.1562C31.6406-32.4219 33.6426-30.4688 36.3281-30.4688L43.457-30.4688L43.457-23.877C43.457-21.1914 45.4102-19.1895 48.1445-19.1895Z"/>
  </g>
  <g id="Bold-S" transform="matrix(1 0 0 1 2292.44 696)">
   <path d="M47.5586 5.46875C69.873 5.46875 88.2324-12.9395 88.2324-35.2539C88.2324-46.6309 82.8125-58.5938 74.6582-65.2832C71.8262-67.7734 68.5059-67.627 66.6016-65.332C64.4531-62.8418 65.2344-59.668 67.5293-57.3242C73.6816-51.709 77.4414-44.0918 77.4414-35.2539C77.4414-18.7012 64.1113-5.37109 47.5586-5.37109C30.957-5.37109 17.6758-18.7012 17.6758-35.2539C17.6758-48.7305 26.4648-60.0586 38.623-63.8184L38.623-58.5449C38.623-55.127 41.5039-54.1016 44.4336-56.25L58.6426-66.5527C61.0352-68.2617 60.9863-71.0449 58.6426-72.7539L44.4824-83.1055C41.5039-85.2539 38.623-84.2773 38.623-80.7617L38.623-74.9512C20.5078-70.8496 6.83594-54.541 6.83594-35.2539C6.83594-12.9395 25.1953 5.46875 47.5586 5.46875ZM47.4609-18.7988C50.0977-18.7988 51.8555-20.6543 51.8555-23.3398L51.8555-30.8105L60.0098-30.8105C62.5977-30.8105 64.502-32.5684 64.502-35.1562C64.502-37.793 62.6465-39.5508 60.0098-39.5508L51.8555-39.5508L51.8555-47.4609C51.8555-50.1465 50.0977-52.002 47.4609-52.002C44.873-52.002 43.1152-50.0977 43.1152-47.4609L43.1152-39.5508L35.0098-39.5508C32.373-39.5508 30.4688-37.793 30.4688-35.1562C30.4688-32.5684 32.4219-30.8105 35.0098-30.8105L43.1152-30.8105L43.1152-23.3398C43.1152-20.7031 44.873-18.7988 47.4609-18.7988Z"/>
  </g>
  <g id="Semibold-S" transform="matrix(1 0 0 1 1996.2 696)">
   <path d="M47.0703 4.98047C69.0918 4.98047 87.3047-13.2324 87.3047-35.2539C87.3047-47.1191 81.5918-58.8867 72.9004-65.8203C70.4102-67.9199 67.4316-67.6758 65.7715-65.5762C64.0137-63.2812 64.7461-60.498 66.8457-58.5449C73.5352-52.8809 77.6855-44.6777 77.7344-35.2539C77.7344-18.2617 64.0625-4.58984 47.0703-4.58984C30.0781-4.58984 16.4551-18.2617 16.4551-35.2539C16.4551-49.3652 25.7812-61.1328 38.6719-64.7461L38.6719-59.5703C38.6719-56.25 41.2109-55.3223 43.9453-57.3242L57.4707-67.041C59.668-68.6035 59.668-71.0938 57.4707-72.7051L43.9453-82.4219C41.2109-84.4238 38.6719-83.5449 38.6719-80.1758L38.6719-74.6094C20.5566-70.6543 6.83594-54.3945 6.83594-35.2539C6.83594-13.2324 25.0488 4.98047 47.0703 4.98047ZM47.0215-18.5547C49.5117-18.5547 51.1719-20.3125 51.1719-22.9492L51.1719-31.1035L60.0098-31.1035C62.5977-31.1035 64.4043-32.666 64.4043-35.2051C64.4043-37.7441 62.6465-39.3555 60.0098-39.3555L51.1719-39.3555L51.1719-48.0469C51.1719-50.6836 49.5117-52.4414 47.0215-52.4414C44.4824-52.4414 42.9199-50.6348 42.9199-48.0469L42.9199-39.3555L34.1309-39.3555C31.4941-39.3555 29.6875-37.7441 29.6875-35.2051C29.6875-32.666 31.543-31.1035 34.1309-31.1035L42.9199-31.1035L42.9199-22.9492C42.9199-20.3613 44.4824-18.5547 47.0215-18.5547Z"/>
  </g>
  <g id="Medium-S" transform="matrix(1 0 0 1 1699.83 696)">
   <path d="M46.7285 4.63867C68.5547 4.63867 86.6211-13.4277 86.6211-35.2539C86.6211-47.4609 80.6152-59.1309 71.582-66.2109C69.3359-68.0176 66.5527-67.6758 65.1855-65.7227C63.7207-63.623 64.3555-61.1816 66.3086-59.4727C73.3887-53.7598 77.8809-45.1172 77.9297-35.2539C77.9785-17.9199 64.0625-4.05273 46.7285-4.05273C29.3945-4.05273 15.5273-17.9199 15.5273-35.2539C15.5273-49.8047 25.293-61.9141 38.6719-65.4297L38.6719-60.3027C38.6719-57.1289 41.0156-56.2988 43.5547-58.1055L56.5918-67.3828C58.6426-68.8477 58.6914-71.1426 56.5918-72.6562L43.5547-81.9336C41.0156-83.7891 38.6719-82.959 38.6719-79.6875L38.6719-74.3164C20.6055-70.5078 6.83594-54.2969 6.83594-35.2539C6.83594-13.4277 24.9023 4.63867 46.7285 4.63867ZM46.6797-18.3594C49.1211-18.3594 50.6348-20.0684 50.6348-22.6562L50.6348-31.2988L60.0098-31.2988C62.5488-31.2988 64.3066-32.7637 64.3066-35.2051C64.3066-37.6465 62.6465-39.1602 60.0098-39.1602L50.6348-39.1602L50.6348-48.4863C50.6348-51.123 49.1211-52.7832 46.6797-52.7832C44.2383-52.7832 42.7734-51.0254 42.7734-48.4863L42.7734-39.1602L33.3984-39.1602C30.8105-39.1602 29.0527-37.6465 29.0527-35.2051C29.0527-32.7637 30.8594-31.2988 33.3984-31.2988L42.7734-31.2988L42.7734-22.6562C42.7734-20.1172 44.2383-18.3594 46.6797-18.3594Z"/>
  </g>
  <g id="Regular-S" transform="matrix(1 0 0 1 1403.58 696)">
   <path d="M46.2402 4.15039C67.7734 4.15039 85.6934-13.7207 85.6934-35.2539C85.6934-47.9492 79.3945-59.4238 69.8242-66.6992C67.9199-68.1641 65.4785-67.7246 64.4043-65.918C63.2812-64.1113 63.8672-62.0117 65.625-60.6934C73.291-54.8828 78.1738-45.7031 78.2227-35.2539C78.2715-17.4805 64.0137-3.27148 46.2402-3.27148C28.5156-3.27148 14.3555-17.4805 14.3555-35.2539C14.3555-50.3906 24.6094-62.9883 38.6719-66.3086L38.6719-61.3281C38.6719-58.3008 40.7227-57.5195 43.0176-59.1309L55.4199-67.8223C57.3242-69.1406 57.373-71.1914 55.4199-72.5586L43.0664-81.25C40.7227-82.959 38.6719-82.1777 38.6719-79.1016L38.6719-73.9258C20.6543-70.3125 6.83594-54.1992 6.83594-35.2539C6.83594-13.7207 24.7559 4.15039 46.2402 4.15039ZM46.1914-18.1152C48.5352-18.1152 49.9023-19.7266 49.9023-22.2656L49.9023-31.5918L60.0586-31.5918C62.5488-31.5918 64.209-32.8613 64.209-35.2051C64.209-37.5977 62.6465-38.916 60.0586-38.916L49.9023-38.916L49.9023-49.1211C49.9023-51.6602 48.5352-53.2715 46.1914-53.2715C43.8477-53.2715 42.5781-51.5625 42.5781-49.1211L42.5781-38.916L32.5195-38.916C29.9316-38.916 28.2715-37.5977 28.2715-35.2051C28.2715-32.8613 30.0293-31.5918 32.5195-31.5918L42.5781-31.5918L42.5781-22.2656C42.5781-19.7754 43.8477-18.1152 46.1914-18.1152Z"/>
  </g>
  <g id="Light-S" transform="matrix(1 0 0 1 1107.6 696)">
   <path d="M45.5078 3.4668C66.6992 3.4668 84.2285-14.0625 84.2285-35.2051C84.2285-48.2422 77.5391-59.8633 67.4805-66.8945C65.9668-68.0176 64.1602-67.627 63.3301-66.2598C62.5-64.8926 62.8906-63.2812 64.3066-62.2559C72.8516-56.3965 78.4668-46.4844 78.5156-35.2051C78.5156-16.9434 63.8184-2.24609 45.5078-2.24609C27.2461-2.24609 12.5977-16.9434 12.5977-35.2051C12.5977-51.0254 23.5352-64.1602 38.3301-67.4316L38.3301-61.4746C38.3301-59.0332 40.0391-58.3496 41.9434-59.7168L54.0039-68.1641C55.6152-69.2871 55.6641-70.9473 54.0039-72.1191L41.9922-80.5664C40.0391-81.9824 38.3301-81.2988 38.3301-78.8086L38.3301-73.2422C20.5078-69.8242 6.83594-53.9551 6.83594-35.2051C6.83594-14.0625 24.3652 3.4668 45.5078 3.4668ZM45.459-18.0664C47.2656-18.0664 48.3398-19.2871 48.3398-21.2402L48.3398-32.4219L60.0586-32.4219C61.9141-32.4219 63.2324-33.4473 63.2324-35.2051C63.2324-37.0117 62.0117-38.0859 60.0586-38.0859L48.3398-38.0859L48.3398-49.8047C48.3398-51.7578 47.2656-52.9785 45.459-52.9785C43.7012-52.9785 42.6758-51.709 42.6758-49.8047L42.6758-38.0859L31.0059-38.0859C29.0527-38.0859 27.7832-37.0117 27.7832-35.2051C27.7832-33.4473 29.1504-32.4219 31.0059-32.4219L42.6758-32.4219L42.6758-21.2402C42.6758-19.3848 43.7012-18.0664 45.459-18.0664Z"/>
  </g>
  <g id="Thin-S" transform="matrix(1 0 0 1 811.867 696)">
   <path d="M44.5801 2.53906C65.2832 2.53906 82.2754-14.4531 82.2754-35.2051C82.2754-48.6328 75.0977-60.498 64.3555-67.1387C63.4277-67.8223 62.3535-67.5293 61.9141-66.748C61.4258-65.918 61.6699-64.9414 62.5-64.3555C72.3145-58.3496 78.8574-47.5098 78.8574-35.2051C78.8574-16.2109 63.5254-0.878906 44.5801-0.878906C25.5859-0.878906 10.2539-16.2109 10.2539-35.2051C10.2539-51.8555 22.1191-65.7227 37.8906-68.8477L37.8906-61.7188C37.8906-60.0098 39.0625-59.4727 40.5273-60.498L52.1484-68.6035C53.3691-69.4824 53.3691-70.6543 52.1484-71.5332L40.5762-79.6387C39.0625-80.7129 37.8906-80.127 37.8906-78.418L37.8906-72.3145C20.3125-69.1406 6.83594-53.6133 6.83594-35.2051C6.83594-14.4531 23.877 2.53906 44.5801 2.53906ZM44.4824-18.0664C45.5566-18.0664 46.2402-18.7988 46.2402-19.873L46.2402-33.4961L60.0586-33.4961C61.1328-33.4961 61.9141-34.1797 61.9141-35.1562C61.9141-36.2305 61.1816-36.9629 60.0586-36.9629L46.2402-36.9629L46.2402-50.7812C46.2402-51.8555 45.5566-52.6367 44.4824-52.6367C43.457-52.6367 42.8223-51.8555 42.8223-50.7812L42.8223-36.9629L29.0039-36.9629C27.8809-36.9629 27.1484-36.2305 27.1484-35.1562C27.1484-34.1797 27.9785-33.4961 29.0039-33.4961L42.8223-33.4961L42.8223-19.873C42.8223-18.7988 43.457-18.0664 44.4824-18.0664Z"/>
  </g>
  <g id="Ultralight-S" transform="matrix(1 0 0 1 515.644 696)">
   <path d="M44.043 2.05078C64.502 2.05078 81.2988-14.6973 81.2988-35.1562C81.2988-48.8281 73.8281-60.8398 62.7441-67.2852C62.1094-67.7246 61.4258-67.4805 61.1328-66.9922C60.8887-66.4551 61.0352-65.7715 61.5723-65.4297C72.0215-59.3262 79.0527-48.0469 79.0527-35.1562C79.0527-15.8691 63.3789-0.146484 44.043-0.146484C24.7559-0.146484 9.08203-15.8691 9.08203-35.1562C9.08203-52.2949 21.3867-66.5527 37.6465-69.5801L37.6465-61.8164C37.6465-60.5469 38.5742-60.0098 39.7949-60.8887L51.1719-68.8477C52.1973-69.5801 52.1973-70.5078 51.1719-71.1914L39.7949-79.1504C38.5742-80.0293 37.6465-79.541 37.6465-78.2227L37.6465-71.8262C20.2148-68.75 6.83594-53.4668 6.83594-35.1562C6.83594-14.6973 23.584 2.05078 44.043 2.05078ZM43.9941-18.0176C44.7266-18.0176 45.2148-18.5059 45.2148-19.1406L45.2148-34.0332L60.1074-34.0332C60.7422-34.0332 61.2793-34.5703 61.2793-35.1562C61.2793-35.8398 60.791-36.377 60.1074-36.377L45.2148-36.377L45.2148-51.2695C45.2148-51.9531 44.7266-52.4414 43.9941-52.4414C43.3594-52.4414 42.8711-51.9531 42.8711-51.2695L42.8711-36.377L27.9785-36.377C27.2949-36.377 26.8066-35.8398 26.8066-35.1562C26.8066-34.5703 27.3438-34.0332 27.9785-34.0332L42.8711-34.0332L42.8711-19.1406C42.8711-18.5059 43.3594-18.0176 43.9941-18.0176Z"/>
  </g>
 </g>
</svg>
