<?xml version="1.0" encoding="UTF-8"?>
<!--Generator: Apple Native CoreSVG 149-->
<!DOCTYPE svg
PUBLIC "-//W3C//DTD SVG 1.1//EN"
       "http://www.w3.org/Graphics/SVG/1.1/DTD/svg11.dtd">
<svg version="1.1" xmlns="http://www.w3.org/2000/svg" xmlns:xlink="http://www.w3.org/1999/xlink" width="3300" height="2200">
 <!--glyph: "uni100B7F.medium", point size: 100.000000, font version: "Version 16.0d12e3", template writer version: "8"-->
 <g id="Notes">
  <rect height="2200" id="artboard" style="fill:white;opacity:1" width="3300" x="0" y="0"/>
  <line id="" style="fill:none;stroke:black;opacity:1;stroke-width:0.5;" x1="263" x2="3036" y1="292" y2="292"/>
  <text style="stroke:none;fill:black;font-family:-apple-system,&quot;SF Pro Display&quot;,&quot;SF Pro Text&quot;,Helvetica,sans-serif;font-weight:bold;" transform="matrix(1 0 0 1 263 322)">Weight/Scale Variations</text>
  <text style="stroke:none;fill:black;font-family:-apple-system,&quot;SF Pro Display&quot;,&quot;SF Pro Text&quot;,Helvetica,sans-serif;text-anchor:middle;" transform="matrix(1 0 0 1 559.711 322)">Ultralight</text>
  <text style="stroke:none;fill:black;font-family:-apple-system,&quot;SF Pro Display&quot;,&quot;SF Pro Text&quot;,Helvetica,sans-serif;text-anchor:middle;" transform="matrix(1 0 0 1 856.422 322)">Thin</text>
  <text style="stroke:none;fill:black;font-family:-apple-system,&quot;SF Pro Display&quot;,&quot;SF Pro Text&quot;,Helvetica,sans-serif;text-anchor:middle;" transform="matrix(1 0 0 1 1153.13 322)">Light</text>
  <text style="stroke:none;fill:black;font-family:-apple-system,&quot;SF Pro Display&quot;,&quot;SF Pro Text&quot;,Helvetica,sans-serif;text-anchor:middle;" transform="matrix(1 0 0 1 1449.84 322)">Regular</text>
  <text style="stroke:none;fill:black;font-family:-apple-system,&quot;SF Pro Display&quot;,&quot;SF Pro Text&quot;,Helvetica,sans-serif;text-anchor:middle;" transform="matrix(1 0 0 1 1746.56 322)">Medium</text>
  <text style="stroke:none;fill:black;font-family:-apple-system,&quot;SF Pro Display&quot;,&quot;SF Pro Text&quot;,Helvetica,sans-serif;text-anchor:middle;" transform="matrix(1 0 0 1 2043.27 322)">Semibold</text>
  <text style="stroke:none;fill:black;font-family:-apple-system,&quot;SF Pro Display&quot;,&quot;SF Pro Text&quot;,Helvetica,sans-serif;text-anchor:middle;" transform="matrix(1 0 0 1 2339.98 322)">Bold</text>
  <text style="stroke:none;fill:black;font-family:-apple-system,&quot;SF Pro Display&quot;,&quot;SF Pro Text&quot;,Helvetica,sans-serif;text-anchor:middle;" transform="matrix(1 0 0 1 2636.69 322)">Heavy</text>
  <text style="stroke:none;fill:black;font-family:-apple-system,&quot;SF Pro Display&quot;,&quot;SF Pro Text&quot;,Helvetica,sans-serif;text-anchor:middle;" transform="matrix(1 0 0 1 2933.4 322)">Black</text>
  <line id="" style="fill:none;stroke:black;opacity:1;stroke-width:0.5;" x1="263" x2="3036" y1="1903" y2="1903"/>
  <g id="" transform="matrix(1 0 0 1 263 1933)">
   <path d="M9.24805 0.830078C13.5547 0.830078 17.1387-2.74414 17.1387-7.05078C17.1387-11.3574 13.5449-14.9316 9.23828-14.9316C4.94141-14.9316 1.36719-11.3574 1.36719-7.05078C1.36719-2.74414 4.95117 0.830078 9.24805 0.830078ZM9.24805-0.654297C5.70312-0.654297 2.87109-3.49609 2.87109-7.05078C2.87109-10.6055 5.69336-13.4473 9.23828-13.4473C12.793-13.4473 15.6348-10.6055 15.6445-7.05078C15.6543-3.49609 12.8027-0.654297 9.24805-0.654297ZM9.22852-3.62305C9.69727-3.62305 9.9707-3.93555 9.9707-4.45312L9.9707-6.31836L12.002-6.31836C12.5-6.31836 12.832-6.57227 12.832-7.04102C12.832-7.51953 12.5195-7.7832 12.002-7.7832L9.9707-7.7832L9.9707-9.81445C9.9707-10.332 9.69727-10.6543 9.22852-10.6543C8.75977-10.6543 8.50586-10.3125 8.50586-9.81445L8.50586-7.7832L6.49414-7.7832C5.97656-7.7832 5.64453-7.51953 5.64453-7.04102C5.64453-6.57227 5.99609-6.31836 6.49414-6.31836L8.50586-6.31836L8.50586-4.45312C8.50586-3.95508 8.75977-3.62305 9.22852-3.62305Z"/>
  </g>
  <g id="" transform="matrix(1 0 0 1 281.506 1933)">
   <path d="M11.709 2.91016C17.1582 2.91016 21.6699-1.61133 21.6699-7.05078C21.6699-12.5 17.1484-17.0117 11.6992-17.0117C6.25977-17.0117 1.74805-12.5 1.74805-7.05078C1.74805-1.61133 6.26953 2.91016 11.709 2.91016ZM11.709 1.25C7.09961 1.25 3.41797-2.44141 3.41797-7.05078C3.41797-11.6602 7.08984-15.3516 11.6992-15.3516C16.3086-15.3516 20-11.6602 20.0098-7.05078C20.0195-2.44141 16.3184 1.25 11.709 1.25ZM11.6797-2.66602C12.207-2.66602 12.5098-3.01758 12.5098-3.59375L12.5098-6.23047L15.3223-6.23047C15.8691-6.23047 16.25-6.51367 16.25-7.03125C16.25-7.55859 15.8887-7.86133 15.3223-7.86133L12.5098-7.86133L12.5098-10.6836C12.5098-11.25 12.207-11.6113 11.6797-11.6113C11.1621-11.6113 10.8789-11.2305 10.8789-10.6836L10.8789-7.86133L8.07617-7.86133C7.50977-7.86133 7.13867-7.55859 7.13867-7.03125C7.13867-6.51367 7.5293-6.23047 8.07617-6.23047L10.8789-6.23047L10.8789-3.59375C10.8789-3.03711 11.1621-2.66602 11.6797-2.66602Z"/>
  </g>
  <g id="" transform="matrix(1 0 0 1 304.924 1933)">
   <path d="M14.9707 5.66406C21.9336 5.66406 27.6953-0.0976562 27.6953-7.05078C27.6953-14.0137 21.9238-19.7754 14.9609-19.7754C8.00781-19.7754 2.25586-14.0137 2.25586-7.05078C2.25586-0.0976562 8.01758 5.66406 14.9707 5.66406ZM14.9707 3.84766C8.93555 3.84766 4.08203-1.01562 4.08203-7.05078C4.08203-13.0957 8.92578-17.9492 14.9609-17.9492C21.0059-17.9492 25.8594-13.0957 25.8691-7.05078C25.8789-1.01562 21.0156 3.84766 14.9707 3.84766ZM14.9414-1.38672C15.5176-1.38672 15.8594-1.77734 15.8594-2.38281L15.8594-6.13281L19.7754-6.13281C20.3711-6.13281 20.7812-6.46484 20.7812-7.02148C20.7812-7.59766 20.3906-7.93945 19.7754-7.93945L15.8594-7.93945L15.8594-11.8652C15.8594-12.4805 15.5176-12.8711 14.9414-12.8711C14.375-12.8711 14.0527-12.4609 14.0527-11.8652L14.0527-7.93945L10.1465-7.93945C9.53125-7.93945 9.13086-7.59766 9.13086-7.02148C9.13086-6.46484 9.55078-6.13281 10.1465-6.13281L14.0527-6.13281L14.0527-2.38281C14.0527-1.79688 14.375-1.38672 14.9414-1.38672Z"/>
  </g>
  <text style="stroke:none;fill:black;font-family:-apple-system,&quot;SF Pro Display&quot;,&quot;SF Pro Text&quot;,Helvetica,sans-serif;font-weight:bold;" transform="matrix(1 0 0 1 263 1953)">Design Variations</text>
  <text style="stroke:none;fill:black;font-family:-apple-system,&quot;SF Pro Display&quot;,&quot;SF Pro Text&quot;,Helvetica,sans-serif;" transform="matrix(1 0 0 1 263 1971)">Symbols are supported in up to nine weights and three scales.</text>
  <text style="stroke:none;fill:black;font-family:-apple-system,&quot;SF Pro Display&quot;,&quot;SF Pro Text&quot;,Helvetica,sans-serif;" transform="matrix(1 0 0 1 263 1989)">For optimal layout with text and other symbols, vertically align</text>
  <text style="stroke:none;fill:black;font-family:-apple-system,&quot;SF Pro Display&quot;,&quot;SF Pro Text&quot;,Helvetica,sans-serif;" transform="matrix(1 0 0 1 263 2007)">symbols with the adjacent text.</text>
  <line id="" style="fill:none;stroke:#00AEEF;stroke-width:0.5;opacity:1.0;" x1="776" x2="776" y1="1919" y2="1933"/>
  <g id="" transform="matrix(1 0 0 1 776 1933)">
   <path d="M3.31055 0.126953C3.82812 0.126953 4.08203-0.0683594 4.26758-0.605469L5.52734-4.0625L11.2891-4.0625L12.5488-0.605469C12.7344-0.0683594 12.9883 0.126953 13.4961 0.126953C14.0137 0.126953 14.3457-0.185547 14.3457-0.673828C14.3457-0.839844 14.3164-0.986328 14.2383-1.20117L9.6582-13.3887C9.43359-13.9941 9.0332-14.2871 8.4082-14.2871C7.80273-14.2871 7.39258-13.9941 7.17773-13.3984L2.59766-1.19141C2.51953-0.976562 2.49023-0.830078 2.49023-0.664062C2.49023-0.175781 2.80273 0.126953 3.31055 0.126953ZM6.00586-5.53711L8.37891-12.1094L8.42773-12.1094L10.8008-5.53711Z"/>
  </g>
  <line id="" style="fill:none;stroke:#00AEEF;stroke-width:0.5;opacity:1.0;" x1="792.836" x2="792.836" y1="1919" y2="1933"/>
  <text style="stroke:none;fill:black;font-family:-apple-system,&quot;SF Pro Display&quot;,&quot;SF Pro Text&quot;,Helvetica,sans-serif;font-weight:bold;" transform="matrix(1 0 0 1 776 1953)">Margins</text>
  <text style="stroke:none;fill:black;font-family:-apple-system,&quot;SF Pro Display&quot;,&quot;SF Pro Text&quot;,Helvetica,sans-serif;" transform="matrix(1 0 0 1 776 1971)">Leading and trailing margins on the left and right side of each symbol</text>
  <text style="stroke:none;fill:black;font-family:-apple-system,&quot;SF Pro Display&quot;,&quot;SF Pro Text&quot;,Helvetica,sans-serif;" transform="matrix(1 0 0 1 776 1989)">can be adjusted by modifying the x-location of the margin guidelines.</text>
  <text style="stroke:none;fill:black;font-family:-apple-system,&quot;SF Pro Display&quot;,&quot;SF Pro Text&quot;,Helvetica,sans-serif;" transform="matrix(1 0 0 1 776 2007)">Modifications are automatically applied proportionally to all</text>
  <text style="stroke:none;fill:black;font-family:-apple-system,&quot;SF Pro Display&quot;,&quot;SF Pro Text&quot;,Helvetica,sans-serif;" transform="matrix(1 0 0 1 776 2025)">scales and weights.</text>
  <g id="" transform="matrix(1 0 0 1 1289 1933)">
   <path d="M2.8418 1.86523L4.54102 3.57422C5.40039 4.44336 6.38672 4.38477 7.31445 3.35938L17.4902-7.85156C17.7539-7.76367 18.0273-7.7832 18.3398-7.8418L19.4043-8.03711L20.0684-7.36328L20.0293-6.80664C19.9902-6.30859 20.1172-5.92773 20.6055-5.44922L21.3672-4.70703C21.8457-4.22852 22.4609-4.19922 22.9297-4.66797L25.8398-7.58789C26.3086-8.05664 26.2891-8.65234 25.8105-9.13086L25.0391-9.89258C24.5605-10.3711 24.1895-10.5273 23.7109-10.4883L23.1348-10.4395L22.4902-11.0742L22.7344-12.1973C22.8613-12.7637 22.7051-13.2031 22.1191-13.7891L19.9219-15.9766C16.582-19.2969 12.1484-19.2188 9.25781-16.3281C8.83789-15.918 8.80859-15.3418 9.04297-14.9512C9.27734-14.5898 9.73633-14.3555 10.3809-14.5215C11.8457-14.8633 13.3691-14.9219 14.7949-13.9844L14.209-12.5293C14.0137-12.0508 13.9844-11.6504 14.1113-11.2891L3.04688-0.898438C2.06055 0.0195312 1.98242 0.996094 2.8418 1.86523ZM10.752-15.957C13.1836-17.7344 16.4746-17.4316 18.7012-15.2051L21.1328-12.793C21.3672-12.5586 21.4062-12.373 21.3379-12.0312L21.0156-10.5469L22.5195-9.0625L23.5059-9.12109C23.7598-9.13086 23.8379-9.11133 24.0332-8.91602L24.6094-8.33984L22.168-5.89844L21.5918-6.47461C21.3965-6.66992 21.3672-6.74805 21.377-7.01172L21.4453-7.98828L19.9512-9.47266L18.4277-9.21875C18.1055-9.15039 17.959-9.17969 17.7148-9.41406L15.7129-11.416C15.459-11.6504 15.4297-11.8164 15.5859-12.1875L16.4648-14.2773C14.9023-15.7324 12.8711-16.3574 10.8398-15.7617C10.6836-15.7227 10.625-15.8496 10.752-15.957ZM5.27344 2.30469L4.10156 1.14258C3.63281 0.683594 3.74023 0.341797 4.14062-0.0195312L14.9512-10.1953L16.416-8.71094L6.42578 2.27539C6.07422 2.67578 5.74219 2.77344 5.27344 2.30469Z"/>
  </g>
  <text style="stroke:none;fill:black;font-family:-apple-system,&quot;SF Pro Display&quot;,&quot;SF Pro Text&quot;,Helvetica,sans-serif;font-weight:bold;" transform="matrix(1 0 0 1 1289 1953)">Exporting</text>
  <text style="stroke:none;fill:black;font-family:-apple-system,&quot;SF Pro Display&quot;,&quot;SF Pro Text&quot;,Helvetica,sans-serif;" transform="matrix(1 0 0 1 1289 1971)">Symbols should be outlined when exporting to ensure the</text>
  <text style="stroke:none;fill:black;font-family:-apple-system,&quot;SF Pro Display&quot;,&quot;SF Pro Text&quot;,Helvetica,sans-serif;" transform="matrix(1 0 0 1 1289 1989)">design is preserved when submitting to Xcode.</text>
  <text id="template-version" style="stroke:none;fill:black;font-family:-apple-system,&quot;SF Pro Display&quot;,&quot;SF Pro Text&quot;,Helvetica,sans-serif;text-anchor:end;" transform="matrix(1 0 0 1 3036 1933)">Template v.2.0</text>
  <text style="stroke:none;fill:black;font-family:-apple-system,&quot;SF Pro Display&quot;,&quot;SF Pro Text&quot;,Helvetica,sans-serif;text-anchor:end;" transform="matrix(1 0 0 1 3036 1951)">Requires Xcode 12 or greater</text>
  <text style="stroke:none;fill:black;font-family:-apple-system,&quot;SF Pro Display&quot;,&quot;SF Pro Text&quot;,Helvetica,sans-serif;text-anchor:end;" transform="matrix(1 0 0 1 3036 1969)">Generated from banknote</text>
  <text style="stroke:none;fill:black;font-family:-apple-system,&quot;SF Pro Display&quot;,&quot;SF Pro Text&quot;,Helvetica,sans-serif;text-anchor:end;" transform="matrix(1 0 0 1 3036 1987)">Typeset at 100 points</text>
  <text style="stroke:none;fill:black;font-family:-apple-system,&quot;SF Pro Display&quot;,&quot;SF Pro Text&quot;,Helvetica,sans-serif;" transform="matrix(1 0 0 1 263 726)">Small</text>
  <text style="stroke:none;fill:black;font-family:-apple-system,&quot;SF Pro Display&quot;,&quot;SF Pro Text&quot;,Helvetica,sans-serif;" transform="matrix(1 0 0 1 263 1156)">Medium</text>
  <text style="stroke:none;fill:black;font-family:-apple-system,&quot;SF Pro Display&quot;,&quot;SF Pro Text&quot;,Helvetica,sans-serif;" transform="matrix(1 0 0 1 263 1586)">Large</text>
 </g>
 <g id="Guides">
  <g id="H-reference" style="fill:#27AAE1;stroke:none;" transform="matrix(1 0 0 1 339 696)">
   <path d="M0.976562 0L3.66211 0L12.9883-24.4629L45.752-24.4629L55.127 0L57.7637 0L30.6152-70.459L28.125-70.459ZM29.3457-67.1387L29.4434-67.1387L44.873-26.709L13.8672-26.709Z"/>
  </g>
  <line id="Baseline-S" style="fill:none;stroke:#27AAE1;opacity:1;stroke-width:0.5;" x1="263" x2="3036" y1="696" y2="696"/>
  <line id="Capline-S" style="fill:none;stroke:#27AAE1;opacity:1;stroke-width:0.5;" x1="263" x2="3036" y1="625.541" y2="625.541"/>
  <g id="H-reference" style="fill:#27AAE1;stroke:none;" transform="matrix(1 0 0 1 339 1126)">
   <path d="M0.976562 0L3.66211 0L12.9883-24.4629L45.752-24.4629L55.127 0L57.7637 0L30.6152-70.459L28.125-70.459ZM29.3457-67.1387L29.4434-67.1387L44.873-26.709L13.8672-26.709Z"/>
  </g>
  <line id="Baseline-M" style="fill:none;stroke:#27AAE1;opacity:1;stroke-width:0.5;" x1="263" x2="3036" y1="1126" y2="1126"/>
  <line id="Capline-M" style="fill:none;stroke:#27AAE1;opacity:1;stroke-width:0.5;" x1="263" x2="3036" y1="1055.54" y2="1055.54"/>
  <g id="H-reference" style="fill:#27AAE1;stroke:none;" transform="matrix(1 0 0 1 339 1556)">
   <path d="M0.976562 0L3.66211 0L12.9883-24.4629L45.752-24.4629L55.127 0L57.7637 0L30.6152-70.459L28.125-70.459ZM29.3457-67.1387L29.4434-67.1387L44.873-26.709L13.8672-26.709Z"/>
  </g>
  <line id="Baseline-L" style="fill:none;stroke:#27AAE1;opacity:1;stroke-width:0.5;" x1="263" x2="3036" y1="1556" y2="1556"/>
  <line id="Capline-L" style="fill:none;stroke:#27AAE1;opacity:1;stroke-width:0.5;" x1="263" x2="3036" y1="1485.54" y2="1485.54"/>
  <line id="left-margin" style="fill:none;stroke:#00AEEF;stroke-width:0.5;opacity:1.0;" x1="1372.94" x2="1372.94" y1="1030.79" y2="1150.12"/>
  <line id="right-margin" style="fill:none;stroke:#00AEEF;stroke-width:0.5;opacity:1.0;" x1="1526.75" x2="1526.75" y1="1030.79" y2="1150.12"/>
 </g>
 <g id="Symbols">
  <g id="Black-L" transform="matrix(1 0 0 1 2833.82 1556)">
   <path d="M16.0645 12.4512C16.0645 16.5039 18.7988 19.2383 22.8516 19.2383L176.318 19.2383C180.42 19.2383 183.105 16.5039 183.105 12.4512L183.105-82.8613C183.105-86.9141 180.42-89.6484 176.318-89.6484L22.8516-89.6484C18.7988-89.6484 16.0645-86.9141 16.0645-82.8613ZM36.3281-2.73438L36.3281-67.6758C36.3281-68.7988 36.9141-69.3848 38.0371-69.3848L161.182-69.3848C162.305-69.3848 162.891-68.7988 162.891-67.6758L162.891-2.73438C162.891-1.61133 162.305-1.02539 161.182-1.02539L38.0371-1.02539C36.9141-1.02539 36.3281-1.61133 36.3281-2.73438ZM40.3809-7.51953C40.3809-5.85938 41.1621-5.12695 42.6758-5.12695L156.494-5.12695C158.008-5.12695 158.789-5.85938 158.789-7.51953L158.789-62.8906C158.789-64.5508 158.008-65.332 156.494-65.332L42.6758-65.332C41.1621-65.332 40.3809-64.5508 40.3809-62.8906ZM48.291-14.0625L48.291-56.3477C48.291-56.9824 48.6816-57.373 49.3164-57.373L84.5703-57.373C80.6641-52.0508 78.3691-44.3848 78.3691-35.3027C78.3691-26.123 80.7129-18.4082 84.6191-13.0371L49.3164-13.0371C48.6816-13.0371 48.291-13.4277 48.291-14.0625ZM120.898-35.3027C120.898-44.3848 118.506-52.0508 114.502-57.373L149.902-57.373C150.537-57.373 150.928-56.9824 150.928-56.3477L150.928-14.0625C150.928-13.4277 150.537-13.0371 149.902-13.0371L114.453-13.0371C118.506-18.4082 120.898-26.123 120.898-35.3027ZM99.3164-14.9414C92.6758-14.9414 87.4512-23.0957 87.4512-35.3027C87.4512-47.4121 92.6758-55.4688 99.3164-55.4688C106.396-55.4688 111.816-47.4121 111.816-35.3027C111.816-23.0957 106.396-14.9414 99.3164-14.9414Z"/>
  </g>
  <g id="Heavy-L" transform="matrix(1 0 0 1 2537.54 1556)">
   <path d="M16.0645 12.1094C16.0645 15.8691 18.5547 18.4082 22.3145 18.4082L175.977 18.4082C179.736 18.4082 182.227 15.8691 182.227 12.1094L182.227-82.5684C182.227-86.3281 179.736-88.8184 175.977-88.8184L22.3145-88.8184C18.5547-88.8184 16.0645-86.3281 16.0645-82.5684ZM33.5938-0.830078L33.5938-69.6289C33.5938-70.752 34.1309-71.3379 35.3027-71.3379L162.988-71.3379C164.16-71.3379 164.697-70.752 164.697-69.6289L164.697-0.830078C164.697 0.292969 164.16 0.878906 162.988 0.878906L35.3027 0.878906C34.1309 0.878906 33.5938 0.292969 33.5938-0.830078ZM38.3789-6.54297C38.3789-4.78516 39.2578-3.90625 40.8691-3.90625L157.422-3.90625C159.033-3.90625 159.912-4.78516 159.912-6.54297L159.912-63.8672C159.912-65.6738 159.033-66.5039 157.422-66.5039L40.8691-66.5039C39.2578-66.5039 38.3789-65.6738 38.3789-63.8672ZM45.7031-12.4023L45.7031-58.0078C45.7031-58.7402 46.1426-59.1309 46.8262-59.1309L84.3262-59.1309C79.9316-53.6133 77.2461-45.3125 77.2461-35.3027C77.2461-25.1953 79.9316-16.8457 84.375-11.3281L46.8262-11.3281C46.1426-11.3281 45.7031-11.7188 45.7031-12.4023ZM121.094-35.3027C121.094-45.3125 118.359-53.6133 113.867-59.1309L151.465-59.1309C152.148-59.1309 152.539-58.7402 152.539-58.0078L152.539-12.4023C152.539-11.7188 152.148-11.3281 151.465-11.3281L113.818-11.3281C118.359-16.8457 121.094-25.1953 121.094-35.3027ZM98.9258-12.9395C91.6504-12.9395 85.6934-21.7285 85.6934-35.3027C85.6934-48.7793 91.6504-57.4707 98.9258-57.4707C106.494-57.4707 112.695-48.7793 112.695-35.3027C112.695-21.7285 106.494-12.9395 98.9258-12.9395Z"/>
  </g>
  <g id="Bold-L" transform="matrix(1 0 0 1 2241.34 1556)">
   <path d="M16.0645 11.7676C16.0645 15.1855 18.3105 17.4316 21.7285 17.4316L175.537 17.4316C178.955 17.4316 181.201 15.1855 181.201 11.7676L181.201-82.2266C181.201-85.6445 178.955-87.8906 175.537-87.8906L21.7285-87.8906C18.3105-87.8906 16.0645-85.6445 16.0645-82.2266ZM30.5176 1.31836L30.5176-71.7285C30.5176-72.9004 31.0547-73.4375 32.2266-73.4375L165.088-73.4375C166.26-73.4375 166.797-72.9004 166.797-71.7285L166.797 1.31836C166.797 2.49023 166.26 3.02734 165.088 3.02734L32.2266 3.02734C31.0547 3.02734 30.5176 2.49023 30.5176 1.31836ZM36.084-5.46875C36.084-3.56445 37.0605-2.58789 38.8672-2.58789L158.398-2.58789C160.205-2.58789 161.182-3.56445 161.182-5.46875L161.182-64.9902C161.182-66.8945 160.205-67.8711 158.398-67.8711L38.8672-67.8711C37.0605-67.8711 36.084-66.8945 36.084-64.9902ZM42.8711-10.5469L42.8711-59.9121C42.8711-60.6445 43.2617-61.084 44.043-61.084L84.1309-61.084C79.1016-55.3711 75.9766-46.4355 75.9766-35.3027C75.9766-24.0723 79.1504-15.0879 84.1309-9.375L44.043-9.375C43.2617-9.375 42.8711-9.81445 42.8711-10.5469ZM121.338-35.3027C121.338-46.4355 118.164-55.3711 113.037-61.084L153.271-61.084C154.004-61.084 154.395-60.6445 154.395-59.9121L154.395-10.5469C154.395-9.81445 154.004-9.375 153.271-9.375L113.037-9.375C118.164-15.0879 121.338-24.0723 121.338-35.3027ZM98.4375-10.7422C90.4785-10.7422 83.6914-20.166 83.6914-35.3027C83.6914-50.3418 90.4785-59.7168 98.4375-59.7168C106.641-59.7168 113.623-50.3418 113.623-35.3027C113.623-20.166 106.641-10.7422 98.4375-10.7422Z"/>
  </g>
  <g id="Semibold-L" transform="matrix(1 0 0 1 1944.98 1556)">
   <path d="M16.0645 11.5723C16.0645 14.7461 18.1641 16.7969 21.3379 16.7969L175.293 16.7969C178.467 16.7969 180.518 14.7461 180.518 11.5723L180.518-82.0312C180.518-85.2051 178.467-87.2559 175.293-87.2559L21.3379-87.2559C18.1641-87.2559 16.0645-85.2051 16.0645-82.0312ZM28.418 2.7832L28.418-73.2422C28.418-74.4141 28.9062-74.9512 30.127-74.9512L166.504-74.9512C167.676-74.9512 168.213-74.4141 168.213-73.2422L168.213 2.7832C168.213 3.95508 167.676 4.49219 166.504 4.49219L30.127 4.49219C28.9062 4.49219 28.418 3.95508 28.418 2.7832ZM34.5215-4.6875C34.5215-2.73438 35.5957-1.66016 37.5-1.66016L159.082-1.66016C160.986-1.66016 162.061-2.73438 162.061-4.6875L162.061-65.7715C162.061-67.7246 160.986-68.7988 159.082-68.7988L37.5-68.7988C35.5957-68.7988 34.5215-67.7246 34.5215-65.7715ZM40.918-9.27734L40.918-61.1816C40.918-62.0117 41.3086-62.4023 42.0898-62.4023L84.0332-62.4023C78.6133-56.6406 75.0977-47.2656 75.0977-35.3027C75.0977-23.291 78.6133-13.8184 84.0332-8.05664L42.0898-8.05664C41.3086-8.05664 40.918-8.44727 40.918-9.27734ZM121.533-35.3027C121.533-47.2656 117.969-56.6406 112.451-62.4023L154.492-62.4023C155.273-62.4023 155.713-62.0117 155.713-61.1816L155.713-9.27734C155.713-8.44727 155.273-8.05664 154.492-8.05664L112.451-8.05664C117.969-13.8184 121.533-23.291 121.533-35.3027ZM98.0957-9.22852C89.6973-9.22852 82.373-19.0918 82.373-35.3027C82.373-51.416 89.6973-61.2305 98.0957-61.2305C106.787-61.2305 114.307-51.416 114.307-35.3027C114.307-19.0918 106.787-9.22852 98.0957-9.22852Z"/>
  </g>
  <g id="Medium-L" transform="matrix(1 0 0 1 1648.51 1556)">
   <path d="M16.0645 11.377C16.0645 14.3555 18.0176 16.3086 20.9961 16.3086L175.049 16.3086C178.076 16.3086 180.029 14.3555 180.029 11.377L180.029-81.8359C180.029-84.8145 178.076-86.7676 175.049-86.7676L20.9961-86.7676C18.0176-86.7676 16.0645-84.8145 16.0645-81.8359ZM26.8066 3.85742L26.8066-74.3652C26.8066-75.5371 27.2949-76.0742 28.5156-76.0742L167.578-76.0742C168.75-76.0742 169.287-75.5371 169.287-74.3652L169.287 3.85742C169.287 5.07812 168.75 5.56641 167.578 5.56641L28.5156 5.56641C27.2949 5.56641 26.8066 5.07812 26.8066 3.85742ZM33.3008-4.10156C33.3008-2.05078 34.4727-0.927734 36.4258-0.927734L159.619-0.927734C161.621-0.927734 162.744-2.05078 162.744-4.10156L162.744-66.3574C162.744-68.4082 161.621-69.5312 159.619-69.5312L36.4258-69.5312C34.4727-69.5312 33.3008-68.4082 33.3008-66.3574ZM39.4043-8.30078L39.4043-62.207C39.4043-62.9883 39.8438-63.4277 40.6738-63.4277L83.9355-63.4277C78.2227-57.6172 74.4629-47.8516 74.4629-35.3027C74.4629-22.6562 78.2227-12.8906 83.9844-7.03125L40.6738-7.03125C39.8438-7.03125 39.4043-7.4707 39.4043-8.30078ZM121.68-35.3027C121.68-47.8516 117.871-57.6172 112.012-63.4277L155.42-63.4277C156.25-63.4277 156.689-62.9883 156.689-62.207L156.689-8.30078C156.689-7.4707 156.25-7.03125 155.42-7.03125L111.963-7.03125C117.822-12.8906 121.68-22.6562 121.68-35.3027ZM97.8516-8.05664C89.0625-8.05664 81.2988-18.2617 81.2988-35.3027C81.2988-52.2461 89.0625-62.4023 97.8516-62.4023C106.836-62.4023 114.795-52.2461 114.795-35.3027C114.795-18.2617 106.836-8.05664 97.8516-8.05664Z"/>
  </g>
  <g id="Regular-L" transform="matrix(1 0 0 1 1352.14 1556)">
   <path d="M16.0645 11.1328C16.0645 13.916 17.8711 15.6738 20.6055 15.6738L174.756 15.6738C177.539 15.6738 179.346 13.916 179.346 11.1328L179.346-81.6406C179.346-84.375 177.539-86.1816 174.756-86.1816L20.6055-86.1816C17.8711-86.1816 16.0645-84.375 16.0645-81.6406ZM24.707 5.32227L24.707-75.8301C24.707-77.0508 25.1953-77.4902 26.416-77.4902L168.994-77.4902C170.166-77.4902 170.654-77.0508 170.654-75.8301L170.654 5.32227C170.654 6.54297 170.166 7.03125 168.994 7.03125L26.416 7.03125C25.1953 7.03125 24.707 6.54297 24.707 5.32227ZM31.7871-3.36914C31.7871-1.2207 33.0078 0 35.0586 0L160.303 0C162.402 0 163.623-1.2207 163.623-3.36914L163.623-67.0898C163.623-69.2383 162.402-70.459 160.303-70.459L35.0586-70.459C33.0078-70.459 31.7871-69.2383 31.7871-67.0898ZM37.4512-6.98242L37.4512-63.4766C37.4512-64.3066 37.8906-64.7461 38.7695-64.7461L83.9355-64.7461C77.7344-58.8867 73.584-48.7305 73.584-35.3027C73.584-21.8262 77.7344-11.6211 83.9355-5.71289L38.7695-5.71289C37.8906-5.71289 37.4512-6.15234 37.4512-6.98242ZM121.826-35.3027C121.826-48.7305 117.627-58.8867 111.377-64.7461L156.641-64.7461C157.471-64.7461 157.91-64.3066 157.91-63.4766L157.91-6.98242C157.91-6.15234 157.471-5.71289 156.641-5.71289L111.328-5.71289C117.627-11.6211 121.826-21.8262 121.826-35.3027ZM97.5098-6.54297C88.2812-6.54297 79.9805-17.2363 79.9805-35.3027C79.9805-53.3203 88.2812-63.916 97.5098-63.916C106.934-63.916 115.479-53.3203 115.479-35.3027C115.479-17.2363 106.934-6.54297 97.5098-6.54297Z"/>
  </g>
  <g id="Light-L" transform="matrix(1 0 0 1 1057.55 1556)">
   <path d="M16.0645 10.2539C16.0645 12.6465 17.5781 14.1113 19.9707 14.1113L171.191 14.1113C173.584 14.1113 175.098 12.6465 175.098 10.2539L175.098-80.6641C175.098-83.0566 173.584-84.5703 171.191-84.5703L19.9707-84.5703C17.5781-84.5703 16.0645-83.0566 16.0645-80.6641ZM22.7051 6.00586L22.7051-76.416C22.7051-77.4902 23.1445-77.9785 24.2188-77.9785L166.992-77.9785C168.018-77.9785 168.506-77.4902 168.506-76.416L168.506 6.00586C168.506 7.03125 168.018 7.51953 166.992 7.51953L24.2188 7.51953C23.1445 7.51953 22.7051 7.03125 22.7051 6.00586ZM30.127-2.73438C30.127-0.927734 31.1523 0.0976562 32.9102 0.0976562L158.252 0.0976562C160.01 0.0976562 161.084-0.927734 161.084-2.73438L161.084-67.6758C161.084-69.4824 160.01-70.5078 158.252-70.5078L32.9102-70.5078C31.1523-70.5078 30.127-69.4824 30.127-67.6758ZM34.8633-5.76172L34.8633-64.6484C34.8633-65.3809 35.2539-65.7715 35.9863-65.7715L83.0078-65.7715C76.2695-60.1562 71.5332-49.6582 71.5332-35.3027C71.5332-20.8496 76.2695-10.3027 82.959-4.6875L35.9863-4.6875C35.2539-4.6875 34.8633-5.0293 34.8633-5.76172ZM119.678-35.3027C119.678-49.6582 114.893-60.1562 108.154-65.7715L155.176-65.7715C155.957-65.7715 156.299-65.3809 156.299-64.6484L156.299-5.76172C156.299-5.0293 155.957-4.6875 155.176-4.6875L108.105-4.6875C114.893-10.3027 119.678-20.8496 119.678-35.3027ZM95.5078-5.17578C85.9375-5.17578 76.709-15.918 76.709-35.3027C76.709-54.541 85.9375-65.2344 95.5078-65.2344C105.127-65.2344 114.502-54.541 114.502-35.3027C114.502-15.918 105.127-5.17578 95.5078-5.17578Z"/>
  </g>
  <g id="Thin-L" transform="matrix(1 0 0 1 763.624 1556)">
   <path d="M16.0645 9.0332C16.0645 10.9375 17.1875 12.0605 19.0918 12.0605L166.504 12.0605C168.408 12.0605 169.531 10.9375 169.531 9.0332L169.531-79.4434C169.531-81.3477 168.408-82.4707 166.504-82.4707L19.0918-82.4707C17.1875-82.4707 16.0645-81.3477 16.0645-79.4434ZM19.9707 6.88477L19.9707-77.2461C19.9707-78.0762 20.459-78.5645 21.2891-78.5645L164.355-78.5645C165.137-78.5645 165.625-78.0762 165.625-77.2461L165.625 6.88477C165.625 7.66602 165.137 8.1543 164.355 8.1543L21.2891 8.1543C20.459 8.1543 19.9707 7.66602 19.9707 6.88477ZM27.9297-1.95312C27.9297-0.537109 28.7109 0.244141 30.0781 0.244141L155.518 0.244141C156.885 0.244141 157.715-0.537109 157.715-1.95312L157.715-68.457C157.715-69.8242 156.885-70.6055 155.518-70.6055L30.0781-70.6055C28.7109-70.6055 27.9297-69.8242 27.9297-68.457ZM31.4453-4.15039L31.4453-66.2109C31.4453-66.7969 31.6895-67.0898 32.3242-67.0898L81.9824-67.0898C74.5117-61.9141 68.75-51.123 68.75-35.2539C68.75-19.3359 74.4629-8.49609 81.9824-3.32031L32.3242-3.32031C31.6895-3.32031 31.4453-3.56445 31.4453-4.15039ZM116.846-35.2539C116.846-51.123 111.133-61.9141 103.662-67.0898L153.271-67.0898C153.906-67.0898 154.15-66.7969 154.15-66.2109L154.15-4.15039C154.15-3.56445 153.906-3.32031 153.271-3.32031L103.662-3.32031C111.133-8.49609 116.846-19.3359 116.846-35.2539ZM92.8711-3.41797C82.8125-3.41797 72.3633-14.1602 72.3633-35.2539C72.3633-56.2012 82.8125-66.9922 92.8711-66.9922C102.734-66.9922 113.232-56.2012 113.232-35.2539C113.232-14.1602 102.734-3.41797 92.8711-3.41797Z"/>
  </g>
  <g id="Ultralight-L" transform="matrix(1 0 0 1 468.329 1556)">
   <path d="M16.0645 8.44727C16.0645 10.0586 17.041 11.0352 18.6523 11.0352L164.062 11.0352C165.723 11.0352 166.699 10.0586 166.699 8.44727L166.699-78.8086C166.699-80.4199 165.723-81.3965 164.062-81.3965L18.6523-81.3965C17.041-81.3965 16.0645-80.4199 16.0645-78.8086ZM18.6035 7.32422L18.6035-77.6855C18.6035-78.3691 19.0918-78.8574 19.7754-78.8574L162.988-78.8574C163.623-78.8574 164.111-78.3691 164.111-77.6855L164.111 7.32422C164.111 8.00781 163.623 8.49609 162.988 8.49609L19.7754 8.49609C19.0918 8.49609 18.6035 8.00781 18.6035 7.32422ZM26.7578-1.51367C26.7578-0.341797 27.4414 0.292969 28.6133 0.292969L154.102 0.292969C155.322 0.292969 155.957-0.341797 155.957-1.51367L155.957-68.8477C155.957-70.0195 155.322-70.6543 154.102-70.6543L28.6133-70.6543C27.4414-70.6543 26.7578-70.0195 26.7578-68.8477ZM29.6875-3.36914L29.6875-67.041C29.6875-67.5293 29.9316-67.7734 30.4199-67.7734L81.6406-67.7734C73.7305-62.8906 67.334-51.9531 67.334-35.2539C67.334-18.457 73.6816-7.4707 81.5918-2.58789L30.4199-2.58789C29.9316-2.58789 29.6875-2.83203 29.6875-3.36914ZM70.166-35.2539C70.166-55.8594 80.0293-66.6016 89.7461-67.7734L93.1641-67.7734C102.734-66.6016 112.598-55.8594 112.598-35.2539C112.598-14.502 102.734-3.75977 93.1641-2.58789L89.7461-2.58789C80.0293-3.75977 70.166-14.502 70.166-35.2539ZM115.43-35.2539C115.43-51.9531 109.082-62.8906 101.221-67.7734L152.295-67.7734C152.832-67.7734 153.027-67.5293 153.027-67.041L153.027-3.36914C153.027-2.83203 152.832-2.58789 152.295-2.58789L101.221-2.58789C109.082-7.4707 115.43-18.457 115.43-35.2539Z"/>
  </g>
  <g id="Black-M" transform="matrix(1 0 0 1 2856.74 1126)">
   <path d="M12.4512 1.61133C12.4512 5.0293 14.6973 7.27539 18.1152 7.27539L135.254 7.27539C138.623 7.27539 140.869 5.0293 140.869 1.61133L140.869-72.0215C140.869-75.3906 138.623-77.6855 135.254-77.6855L18.1152-77.6855C14.6973-77.6855 12.4512-75.3906 12.4512-72.0215ZM30.7617-12.2559L30.7617-58.1543C30.7617-58.8867 31.25-59.375 31.9824-59.375L121.338-59.375C122.07-59.375 122.607-58.8867 122.607-58.1543L122.607-12.2559C122.607-11.5234 122.07-11.0352 121.338-11.0352L31.9824-11.0352C31.25-11.0352 30.7617-11.5234 30.7617-12.2559ZM33.1543-14.7949C33.1543-13.8184 33.5449-13.4277 34.375-13.4277L118.945-13.4277C119.824-13.4277 120.166-13.8184 120.166-14.7949L120.166-55.6152C120.166-56.5918 119.824-56.9336 118.945-56.9336L34.375-56.9336C33.5449-56.9336 33.1543-56.5918 33.1543-55.6152ZM39.502-20.4102L39.502-49.9512C39.502-50.3418 39.7461-50.5859 40.0879-50.5859L65.2344-50.5859C62.6465-46.7285 61.1816-41.4062 61.1816-35.2539C61.1816-29.0527 62.6465-23.6816 65.2832-19.8242L40.0879-19.8242C39.7461-19.8242 39.502-20.0684 39.502-20.4102ZM92.2363-35.2539C92.2363-41.4062 90.6738-46.7285 88.0371-50.5859L113.232-50.5859C113.623-50.5859 113.867-50.3418 113.867-49.9512L113.867-20.4102C113.867-20.0684 113.623-19.8242 113.232-19.8242L87.9883-19.8242C90.6738-23.6816 92.2363-29.0527 92.2363-35.2539ZM76.4648-21.4844C71.9727-21.4844 68.4082-27.002 68.4082-35.2539C68.4082-43.457 71.9727-48.9258 76.4648-48.9258C81.2988-48.9258 84.9609-43.457 84.9609-35.2539C84.9609-27.002 81.2988-21.4844 76.4648-21.4844Z"/>
  </g>
  <g id="Heavy-M" transform="matrix(1 0 0 1 2559.96 1126)">
   <path d="M12.4512 1.51367C12.4512 4.6875 14.5508 6.73828 17.6758 6.73828L135.791 6.73828C138.916 6.73828 141.016 4.6875 141.016 1.51367L141.016-71.9727C141.016-75.0977 138.916-77.1973 135.791-77.1973L17.6758-77.1973C14.5508-77.1973 12.4512-75.0977 12.4512-71.9727ZM28.2715-10.3516L28.2715-60.0586C28.2715-60.8887 28.7598-61.3281 29.541-61.3281L123.877-61.3281C124.707-61.3281 125.146-60.8887 125.146-60.0586L125.146-10.3516C125.146-9.52148 124.707-9.08203 123.877-9.08203L29.541-9.08203C28.7598-9.08203 28.2715-9.52148 28.2715-10.3516ZM31.3965-13.8672C31.3965-12.6953 31.8848-12.1582 32.959-12.1582L120.508-12.1582C121.533-12.1582 122.07-12.6953 122.07-13.8672L122.07-56.543C122.07-57.7148 121.533-58.252 120.508-58.252L32.959-58.252C31.8848-58.252 31.3965-57.7148 31.3965-56.543ZM37.3535-18.9453L37.3535-51.5137C37.3535-51.9531 37.6465-52.1973 38.0859-52.1973L65.2832-52.1973C62.2559-48.1445 60.4492-42.2852 60.4492-35.2539C60.4492-28.2227 62.2559-22.2656 65.2832-18.2129L38.0859-18.2129C37.6465-18.2129 37.3535-18.457 37.3535-18.9453ZM93.0176-35.2539C93.0176-42.2852 91.2109-48.1445 88.1348-52.1973L115.332-52.1973C115.82-52.1973 116.064-51.9531 116.064-51.5137L116.064-18.9453C116.064-18.457 115.82-18.2129 115.332-18.2129L88.0859-18.2129C91.2109-22.2656 93.0176-28.2227 93.0176-35.2539ZM76.5625-19.6289C71.4355-19.6289 67.334-25.8301 67.334-35.2539C67.334-44.6289 71.4355-50.7812 76.5625-50.7812C81.8848-50.7812 86.1816-44.6289 86.1816-35.2539C86.1816-25.8301 81.8848-19.6289 76.5625-19.6289Z"/>
  </g>
  <g id="Bold-M" transform="matrix(1 0 0 1 2263.2 1126)">
   <path d="M12.4512 1.41602C12.4512 4.29688 14.3555 6.20117 17.2363 6.20117L136.377 6.20117C139.209 6.20117 141.113 4.29688 141.113 1.41602L141.113-71.875C141.113-74.7559 139.209-76.6113 136.377-76.6113L17.2363-76.6113C14.3555-76.6113 12.4512-74.7559 12.4512-71.875ZM25.5371-8.20312L25.5371-62.207C25.5371-63.1348 25.9766-63.5742 26.8555-63.5742L126.709-63.5742C127.588-63.5742 128.027-63.1348 128.027-62.207L128.027-8.20312C128.027-7.32422 127.588-6.88477 126.709-6.88477L26.8555-6.88477C25.9766-6.88477 25.5371-7.32422 25.5371-8.20312ZM29.3457-12.8418C29.3457-11.4258 30.0781-10.7422 31.3965-10.7422L122.217-10.7422C123.486-10.7422 124.219-11.4258 124.219-12.8418L124.219-57.6172C124.219-59.0332 123.486-59.7168 122.217-59.7168L31.3965-59.7168C30.0781-59.7168 29.3457-59.0332 29.3457-57.6172ZM35.0098-17.2363L35.0098-53.2227C35.0098-53.7598 35.3027-54.0527 35.8398-54.0527L65.332-54.0527C61.8164-49.7559 59.7168-43.2129 59.7168-35.3027C59.7168-27.2949 61.8164-20.7031 65.3809-16.4062L35.8398-16.4062C35.3027-16.4062 35.0098-16.6992 35.0098-17.2363ZM93.9453-35.3027C93.9453-43.2129 91.748-49.7559 88.1348-54.0527L117.725-54.0527C118.262-54.0527 118.604-53.7598 118.604-53.2227L118.604-17.2363C118.604-16.6992 118.262-16.4062 117.725-16.4062L88.1348-16.4062C91.748-20.7031 93.9453-27.2949 93.9453-35.3027ZM76.6113-17.627C70.8496-17.627 66.1133-24.5117 66.1133-35.3027C66.1133-45.9961 70.8496-52.832 76.6113-52.832C82.6172-52.832 87.5-45.9961 87.5-35.3027C87.5-24.5117 82.6172-17.627 76.6113-17.627Z"/>
  </g>
  <g id="Semibold-M" transform="matrix(1 0 0 1 1966.44 1126)">
   <path d="M12.4512 1.36719C12.4512 4.00391 14.209 5.81055 16.8945 5.81055L136.768 5.81055C139.453 5.81055 141.211 4.00391 141.211 1.36719L141.211-71.8262C141.211-74.5117 139.453-76.2695 136.768-76.2695L16.8945-76.2695C14.209-76.2695 12.4512-74.5117 12.4512-71.8262ZM23.6328-6.73828L23.6328-63.7207C23.6328-64.6484 24.0234-65.0879 25-65.0879L128.662-65.0879C129.639-65.0879 130.029-64.6484 130.029-63.7207L130.029-6.73828C130.029-5.81055 129.639-5.37109 128.662-5.37109L25-5.37109C24.0234-5.37109 23.6328-5.81055 23.6328-6.73828ZM27.9785-12.1094C27.9785-10.5469 28.8086-9.7168 30.2734-9.7168L123.389-9.7168C124.854-9.7168 125.684-10.5469 125.684-12.1094L125.684-58.3496C125.684-59.9121 124.854-60.7422 123.389-60.7422L30.2734-60.7422C28.8086-60.7422 27.9785-59.9121 27.9785-58.3496ZM33.3496-16.0645L33.3496-54.3945C33.3496-54.9805 33.6914-55.3223 34.3262-55.3223L65.4297-55.3223C61.5723-50.8789 59.1797-43.9453 59.1797-35.3027C59.1797-26.6113 61.5723-19.5801 65.4297-15.1367L34.3262-15.1367C33.6914-15.1367 33.3496-15.4785 33.3496-16.0645ZM94.5801-35.3027C94.5801-43.9453 92.0898-50.8789 88.1348-55.3223L119.336-55.3223C119.971-55.3223 120.312-54.9805 120.312-54.3945L120.312-16.0645C120.312-15.4785 119.971-15.1367 119.336-15.1367L88.1348-15.1367C92.0898-19.5801 94.5801-26.6113 94.5801-35.3027ZM76.6602-16.2109C70.459-16.2109 65.2832-23.584 65.2832-35.3027C65.2832-46.9238 70.459-54.248 76.6602-54.248C83.1055-54.248 88.4277-46.9238 88.4277-35.3027C88.4277-23.584 83.1055-16.2109 76.6602-16.2109Z"/>
  </g>
  <g id="Medium-M" transform="matrix(1 0 0 1 1669.7 1126)">
   <path d="M12.4512 1.31836C12.4512 3.80859 14.1113 5.51758 16.6504 5.51758L137.061 5.51758C139.6 5.51758 141.26 3.80859 141.26 1.31836L141.26-71.7773C141.26-74.3164 139.6-75.9766 137.061-75.9766L16.6504-75.9766C14.1113-75.9766 12.4512-74.3164 12.4512-71.7773ZM22.168-5.61523L22.168-64.8438C22.168-65.8203 22.6074-66.2598 23.584-66.2598L130.176-66.2598C131.152-66.2598 131.543-65.8203 131.543-64.8438L131.543-5.61523C131.543-4.63867 131.152-4.24805 130.176-4.24805L23.584-4.24805C22.6074-4.24805 22.168-4.63867 22.168-5.61523ZM26.9531-11.5723C26.9531-9.91211 27.8809-8.98438 29.4922-8.98438L124.268-8.98438C125.879-8.98438 126.807-9.91211 126.807-11.5723L126.807-58.8867C126.807-60.5469 125.879-61.4746 124.268-61.4746L29.4922-61.4746C27.8809-61.4746 26.9531-60.5469 26.9531-58.8867ZM32.1289-15.1855L32.1289-55.2734C32.1289-55.957 32.4707-56.2988 33.1543-56.2988L65.4785-56.2988C61.377-51.7578 58.7402-44.4824 58.7402-35.3027C58.7402-26.0742 61.377-18.75 65.5273-14.1602L33.1543-14.1602C32.4707-14.1602 32.1289-14.5508 32.1289-15.1855ZM95.0195-35.3027C95.0195-44.4824 92.3828-51.7578 88.1348-56.2988L120.605-56.2988C121.24-56.2988 121.631-55.957 121.631-55.2734L121.631-15.1855C121.631-14.5508 121.24-14.1602 120.605-14.1602L88.0859-14.1602C92.334-18.75 95.0195-26.0742 95.0195-35.3027ZM76.6602-15.1367C70.166-15.1367 64.6484-22.9004 64.6484-35.3027C64.6484-47.6074 70.166-55.3223 76.6602-55.3223C83.4473-55.3223 89.1113-47.6074 89.1113-35.3027C89.1113-22.9004 83.4473-15.1367 76.6602-15.1367Z"/>
  </g>
  <g id="Regular-M" transform="matrix(1 0 0 1 1372.94 1126)">
   <path d="M12.4512 1.2207C12.4512 3.56445 14.0137 5.12695 16.3574 5.12695L137.5 5.12695C139.844 5.12695 141.357 3.56445 141.357 1.2207L141.357-71.7285C141.357-74.0723 139.844-75.5859 137.5-75.5859L16.3574-75.5859C14.0137-75.5859 12.4512-74.0723 12.4512-71.7285ZM20.3125-4.15039L20.3125-66.3086C20.3125-67.3828 20.7031-67.7246 21.7285-67.7246L132.08-67.7246C133.154-67.7246 133.496-67.3828 133.496-66.3086L133.496-4.15039C133.496-3.125 133.154-2.73438 132.08-2.73438L21.7285-2.73438C20.7031-2.73438 20.3125-3.125 20.3125-4.15039ZM25.5859-10.8887C25.5859-9.0332 26.6113-8.00781 28.418-8.00781L125.439-8.00781C127.197-8.00781 128.271-9.0332 128.271-10.8887L128.271-59.6191C128.271-61.4258 127.197-62.5 125.439-62.5L28.418-62.5C26.6113-62.5 25.5859-61.4258 25.5859-59.6191ZM30.5176-14.0625L30.5176-56.4453C30.5176-57.1777 30.8594-57.5684 31.5918-57.5684L65.625-57.5684C61.1328-52.8809 58.2031-45.166 58.2031-35.3027C58.2031-25.3906 61.1328-17.627 65.625-12.9395L31.5918-12.9395C30.8594-12.9395 30.5176-13.3301 30.5176-14.0625ZM95.6543-35.3027C95.6543-45.166 92.6758-52.8809 88.0859-57.5684L122.217-57.5684C122.949-57.5684 123.34-57.1777 123.34-56.4453L123.34-14.0625C123.34-13.3301 122.949-12.9395 122.217-12.9395L88.0859-12.9395C92.6758-17.627 95.6543-25.3906 95.6543-35.3027ZM76.709-13.7695C69.7754-13.7695 63.8672-22.0215 63.8672-35.3027C63.8672-48.5352 69.7754-56.7383 76.709-56.7383C83.9355-56.7383 90.0391-48.5352 90.0391-35.3027C90.0391-22.0215 83.9355-13.7695 76.709-13.7695Z"/>
  </g>
  <g id="Light-M" transform="matrix(1 0 0 1 1078.11 1126)">
   <path d="M12.4512 0.390625C12.4512 2.44141 13.7207 3.71094 15.7715 3.71094L134.277 3.71094C136.279 3.71094 137.598 2.44141 137.598 0.390625L137.598-70.8496C137.598-72.9004 136.279-74.1699 134.277-74.1699L15.7715-74.1699C13.7207-74.1699 12.4512-72.9004 12.4512-70.8496ZM18.5059-3.56445L18.5059-66.8945C18.5059-67.7734 18.8477-68.1641 19.7266-68.1641L130.273-68.1641C131.201-68.1641 131.543-67.7734 131.543-66.8945L131.543-3.56445C131.543-2.68555 131.201-2.29492 130.273-2.29492L19.7266-2.29492C18.8477-2.29492 18.5059-2.68555 18.5059-3.56445ZM24.0723-10.3516C24.0723-8.78906 24.9512-7.91016 26.4648-7.91016L123.584-7.91016C125.098-7.91016 125.977-8.78906 125.977-10.3516L125.977-60.1074C125.977-61.6699 125.098-62.5488 123.584-62.5488L26.4648-62.5488C24.9512-62.5488 24.0723-61.6699 24.0723-60.1074ZM28.1738-12.9395L28.1738-57.5195C28.1738-58.1543 28.5156-58.4473 29.1504-58.4473L64.6973-58.4473C59.7656-53.9551 56.3477-45.9961 56.3477-35.3027C56.3477-24.5117 59.7656-16.5039 64.6973-12.0117L29.1504-12.0117C28.5156-12.0117 28.1738-12.3047 28.1738-12.9395ZM93.7012-35.3027C93.7012-45.9961 90.2832-53.9551 85.2539-58.4473L120.898-58.4473C121.533-58.4473 121.875-58.1543 121.875-57.5195L121.875-12.9395C121.875-12.3047 121.533-12.0117 120.898-12.0117L85.2539-12.0117C90.2832-16.5039 93.7012-24.5117 93.7012-35.3027ZM74.9023-12.5488C67.627-12.5488 60.8887-20.8496 60.8887-35.3027C60.8887-49.6582 67.627-57.9102 74.9023-57.9102C82.2754-57.9102 89.1602-49.6582 89.1602-35.3027C89.1602-20.8496 82.2754-12.5488 74.9023-12.5488Z"/>
  </g>
  <g id="Thin-M" transform="matrix(1 0 0 1 783.888 1126)">
   <path d="M12.4512-0.683594C12.4512 0.927734 13.4277 1.85547 14.9902 1.85547L130.029 1.85547C131.641 1.85547 132.617 0.927734 132.617-0.683594L132.617-69.7754C132.617-71.3379 131.641-72.3145 130.029-72.3145L14.9902-72.3145C13.4277-72.3145 12.4512-71.3379 12.4512-69.7754ZM16.0645-2.7832L16.0645-67.627C16.0645-68.3105 16.4551-68.6523 17.1387-68.6523L127.93-68.6523C128.613-68.6523 128.955-68.3105 128.955-67.627L128.955-2.7832C128.955-2.09961 128.613-1.75781 127.93-1.75781L17.1387-1.75781C16.4551-1.75781 16.0645-2.09961 16.0645-2.7832ZM22.1191-9.61914C22.1191-8.44727 22.7539-7.76367 23.9258-7.76367L121.094-7.76367C122.266-7.76367 122.949-8.44727 122.949-9.61914L122.949-60.791C122.949-61.9629 122.266-62.6465 121.094-62.6465L23.9258-62.6465C22.7539-62.6465 22.1191-61.9629 22.1191-60.791ZM25.0977-11.5234L25.0977-58.8867C25.0977-59.4238 25.3418-59.6191 25.8301-59.6191L63.7207-59.6191C58.1055-55.5176 53.8574-47.2168 53.8574-35.2539C53.8574-23.2422 58.0566-14.9414 63.7207-10.791L25.8301-10.791C25.3418-10.791 25.0977-11.0352 25.0977-11.5234ZM91.1621-35.2539C91.1621-47.2168 86.9629-55.5176 81.3477-59.6191L119.189-59.6191C119.727-59.6191 119.922-59.4238 119.922-58.8867L119.922-11.5234C119.922-11.0352 119.727-10.791 119.189-10.791L81.2988-10.791C86.9629-14.9414 91.1621-23.2422 91.1621-35.2539ZM72.5098-10.9375C64.8438-10.9375 57.0312-19.2871 57.0312-35.2539C57.0312-51.123 64.8438-59.4727 72.5098-59.4727C80.127-59.4727 88.0371-51.123 88.0371-35.2539C88.0371-19.2871 80.127-10.9375 72.5098-10.9375Z"/>
  </g>
  <g id="Ultralight-M" transform="matrix(1 0 0 1 488.471 1126)">
   <path d="M12.4512-1.2207C12.4512 0.146484 13.2324 0.927734 14.5996 0.927734L127.881 0.927734C129.248 0.927734 130.029 0.146484 130.029-1.2207L130.029-69.1895C130.029-70.5566 129.248-71.3379 127.881-71.3379L14.5996-71.3379C13.2324-71.3379 12.4512-70.5566 12.4512-69.1895ZM14.8438-2.39258L14.8438-68.0176C14.8438-68.5547 15.2344-68.9453 15.7715-68.9453L126.709-68.9453C127.246-68.9453 127.637-68.5547 127.637-68.0176L127.637-2.39258C127.637-1.85547 127.246-1.46484 126.709-1.46484L15.7715-1.46484C15.2344-1.46484 14.8438-1.85547 14.8438-2.39258ZM21.0938-9.22852C21.0938-8.25195 21.6309-7.71484 22.6074-7.71484L119.873-7.71484C120.85-7.71484 121.387-8.25195 121.387-9.22852L121.387-61.1328C121.387-62.1582 120.85-62.6953 119.873-62.6953L22.6074-62.6953C21.6309-62.6953 21.0938-62.1582 21.0938-61.1328ZM23.5352-10.791L23.5352-59.6191C23.5352-60.0586 23.7305-60.2539 24.1699-60.2539L63.3789-60.2539C57.373-56.3477 52.5879-47.9492 52.5879-35.2539C52.5879-22.5098 57.3242-14.0137 63.3301-10.1562L24.1699-10.1562C23.7305-10.1562 23.5352-10.3516 23.5352-10.791ZM55.0293-35.2539C55.0293-51.5137 63.0371-59.8145 70.7031-60.2539L71.875-60.2539C79.4434-59.8145 87.4512-51.5137 87.4512-35.2539C87.4512-18.8965 79.4434-10.5469 71.875-10.1562L70.7031-10.1562C63.0371-10.5469 55.0293-18.8965 55.0293-35.2539ZM89.8926-35.2539C89.8926-47.9492 85.1562-56.3477 79.1992-60.2539L118.311-60.2539C118.75-60.2539 118.945-60.0586 118.945-59.6191L118.945-10.791C118.945-10.3516 118.75-10.1562 118.311-10.1562L79.1992-10.1562C85.1562-14.0137 89.8926-22.5098 89.8926-35.2539Z"/>
  </g>
  <g id="Black-S" transform="matrix(1 0 0 1 2873.29 696)">
   <path d="M9.76562-6.34766C9.76562-3.71094 11.5234-1.95312 14.1602-1.95312L106.055-1.95312C108.691-1.95312 110.449-3.71094 110.449-6.34766L110.449-64.0625C110.449-66.6992 108.691-68.457 106.055-68.457L14.1602-68.457C11.5234-68.457 9.76562-66.6992 9.76562-64.0625ZM23.9258-17.0898L23.9258-53.3203C23.9258-53.9062 24.3164-54.2969 24.9023-54.2969L95.3125-54.2969C95.8984-54.2969 96.2891-53.9062 96.2891-53.3203L96.2891-17.0898C96.2891-16.5039 95.8984-16.1133 95.3125-16.1133L24.9023-16.1133C24.3164-16.1133 23.9258-16.5039 23.9258-17.0898ZM25.8789-19.1406C25.8789-18.3594 26.1719-18.0664 26.8555-18.0664L93.3594-18.0664C94.043-18.0664 94.3359-18.3594 94.3359-19.1406L94.3359-51.2695C94.3359-52.0508 94.043-52.3438 93.3594-52.3438L26.8555-52.3438C26.1719-52.3438 25.8789-52.0508 25.8789-51.2695ZM30.8105-23.5352L30.8105-46.875C30.8105-47.168 31.0059-47.3633 31.2988-47.3633L51.123-47.3633C49.0723-44.3359 47.9004-40.1367 47.9004-35.2539C47.9004-30.3223 49.0723-26.0742 51.1719-23.0469L31.2988-23.0469C31.0059-23.0469 30.8105-23.2422 30.8105-23.5352ZM72.3633-35.2539C72.3633-40.1367 71.1426-44.3359 69.043-47.3633L88.916-47.3633C89.209-47.3633 89.4043-47.168 89.4043-46.875L89.4043-23.5352C89.4043-23.2422 89.209-23.0469 88.916-23.0469L68.9941-23.0469C71.1426-26.0742 72.3633-30.3223 72.3633-35.2539ZM59.9609-24.3164C56.3965-24.3164 53.5645-28.7109 53.5645-35.2539C53.5645-41.748 56.3965-46.0938 59.9609-46.0938C63.7695-46.0938 66.6992-41.748 66.6992-35.2539C66.6992-28.7109 63.7695-24.3164 59.9609-24.3164Z"/>
  </g>
  <g id="Heavy-S" transform="matrix(1 0 0 1 2576.34 696)">
   <path d="M9.76562-6.34766C9.76562-3.85742 11.4258-2.19727 13.916-2.19727L106.836-2.19727C109.277-2.19727 110.938-3.85742 110.938-6.34766L110.938-64.1113C110.938-66.6016 109.277-68.2617 106.836-68.2617L13.916-68.2617C11.4258-68.2617 9.76562-66.6016 9.76562-64.1113ZM22.2656-15.6738L22.2656-54.7363C22.2656-55.4199 22.6074-55.7617 23.291-55.7617L97.4609-55.7617C98.0957-55.7617 98.4863-55.4199 98.4863-54.7363L98.4863-15.6738C98.4863-15.0391 98.0957-14.6484 97.4609-14.6484L23.291-14.6484C22.6074-14.6484 22.2656-15.0391 22.2656-15.6738ZM24.6582-18.5059C24.6582-17.5293 25.0977-17.0898 25.9766-17.0898L94.7266-17.0898C95.6055-17.0898 96.0449-17.5293 96.0449-18.5059L96.0449-51.9531C96.0449-52.8809 95.6055-53.3203 94.7266-53.3203L25.9766-53.3203C25.0977-53.3203 24.6582-52.8809 24.6582-51.9531ZM29.4434-22.5098L29.4434-47.9492C29.4434-48.291 29.6875-48.5352 30.0293-48.5352L51.2695-48.5352C48.9746-45.3125 47.5586-40.7227 47.5586-35.2539C47.5586-29.7852 48.9746-25.1465 51.3184-21.9238L30.0293-21.9238C29.6875-21.9238 29.4434-22.1191 29.4434-22.5098ZM73.1934-35.2539C73.1934-40.7227 71.7773-45.3125 69.3848-48.5352L90.6738-48.5352C91.0645-48.5352 91.2598-48.291 91.2598-47.9492L91.2598-22.5098C91.2598-22.1191 91.0645-21.9238 90.6738-21.9238L69.3359-21.9238C71.7773-25.1465 73.1934-29.7852 73.1934-35.2539ZM60.2051-23.0469C56.25-23.0469 53.0762-27.9297 53.0762-35.2539C53.0762-42.5293 56.25-47.3633 60.2051-47.3633C64.4043-47.3633 67.7246-42.5293 67.7246-35.2539C67.7246-27.9297 64.4043-23.0469 60.2051-23.0469Z"/>
  </g>
  <g id="Bold-S" transform="matrix(1 0 0 1 2279.33 696)">
   <path d="M9.76562-6.29883C9.76562-4.00391 11.3281-2.44141 13.623-2.44141L107.666-2.44141C109.961-2.44141 111.523-4.00391 111.523-6.29883L111.523-64.1602C111.523-66.4551 109.961-68.0176 107.666-68.0176L13.623-68.0176C11.3281-68.0176 9.76562-66.4551 9.76562-64.1602ZM20.3613-14.1602L20.3613-56.2988C20.3613-57.0801 20.7031-57.4219 21.4355-57.4219L99.8535-57.4219C100.586-57.4219 100.928-57.0801 100.928-56.2988L100.928-14.1602C100.928-13.3789 100.586-13.0371 99.8535-13.0371L21.4355-13.0371C20.7031-13.0371 20.3613-13.3789 20.3613-14.1602ZM23.3398-17.7734C23.3398-16.6016 23.9258-16.0156 25-16.0156L96.2891-16.0156C97.3633-16.0156 97.9492-16.6016 97.9492-17.7734L97.9492-52.6855C97.9492-53.8574 97.3633-54.4434 96.2891-54.4434L25-54.4434C23.9258-54.4434 23.3398-53.8574 23.3398-52.6855ZM27.9297-21.3379L27.9297-49.1211C27.9297-49.5605 28.1738-49.8047 28.6621-49.8047L51.4648-49.8047C48.8281-46.4355 47.2168-41.3574 47.2168-35.2539C47.2168-29.1504 48.8281-24.0234 51.5137-20.6543L28.6621-20.6543C28.1738-20.6543 27.9297-20.8984 27.9297-21.3379ZM74.1211-35.2539C74.1211-41.3574 72.4609-46.4355 69.7266-49.8047L92.627-49.8047C93.1152-49.8047 93.3594-49.5605 93.3594-49.1211L93.3594-21.3379C93.3594-20.8984 93.1152-20.6543 92.627-20.6543L69.7266-20.6543C72.4609-24.0234 74.1211-29.1504 74.1211-35.2539ZM60.498-21.6797C56.0547-21.6797 52.4902-27.0996 52.4902-35.2539C52.4902-43.4082 56.0547-48.7793 60.498-48.7793C65.1367-48.7793 68.8477-43.4082 68.8477-35.2539C68.8477-27.0996 65.1367-21.6797 60.498-21.6797Z"/>
  </g>
  <g id="Semibold-S" transform="matrix(1 0 0 1 1982.43 696)">
   <path d="M9.76562-6.29883C9.76562-4.10156 11.2305-2.63672 13.4277-2.63672L108.252-2.63672C110.449-2.63672 111.914-4.10156 111.914-6.29883L111.914-64.1602C111.914-66.3574 110.449-67.8223 108.252-67.8223L13.4277-67.8223C11.2305-67.8223 9.76562-66.3574 9.76562-64.1602ZM19.0918-13.0859L19.0918-57.4219C19.0918-58.2031 19.3848-58.5449 20.2148-58.5449L101.465-58.5449C102.295-58.5449 102.588-58.2031 102.588-57.4219L102.588-13.0859C102.588-12.2559 102.295-11.9141 101.465-11.9141L20.2148-11.9141C19.3848-11.9141 19.0918-12.2559 19.0918-13.0859ZM22.4121-17.2852C22.4121-15.9668 23.0957-15.2344 24.3652-15.2344L97.3145-15.2344C98.584-15.2344 99.2676-15.9668 99.2676-17.2852L99.2676-53.1738C99.2676-54.4922 98.584-55.2246 97.3145-55.2246L24.3652-55.2246C23.0957-55.2246 22.4121-54.4922 22.4121-53.1738ZM26.8555-20.5566L26.8555-49.9023C26.8555-50.4395 27.1484-50.7324 27.6855-50.7324L51.6113-50.7324C48.7305-47.2168 46.9727-41.8457 46.9727-35.3027C46.9727-28.7109 48.7305-23.291 51.6602-19.7754L27.6855-19.7754C27.1484-19.7754 26.8555-20.0195 26.8555-20.5566ZM74.7559-35.3027C74.7559-41.8457 72.9492-47.2168 69.9707-50.7324L93.9941-50.7324C94.5312-50.7324 94.8242-50.4395 94.8242-49.9023L94.8242-20.5566C94.8242-20.0195 94.5312-19.7754 93.9941-19.7754L69.9219-19.7754C72.9492-23.291 74.7559-28.7109 74.7559-35.3027ZM60.6934-20.7031C55.9082-20.7031 52.0996-26.4648 52.0996-35.3027C52.0996-44.043 55.9082-49.8047 60.6934-49.8047C65.6738-49.8047 69.6289-44.043 69.6289-35.3027C69.6289-26.4648 65.6738-20.7031 60.6934-20.7031Z"/>
  </g>
  <g id="Medium-S" transform="matrix(1 0 0 1 1685.57 696)">
   <path d="M9.76562-6.29883C9.76562-4.19922 11.1816-2.7832 13.2812-2.7832L108.691-2.7832C110.791-2.7832 112.207-4.19922 112.207-6.29883L112.207-64.209C112.207-66.3086 110.791-67.7246 108.691-67.7246L13.2812-67.7246C11.1816-67.7246 9.76562-66.3086 9.76562-64.209ZM18.0664-12.2559L18.0664-58.252C18.0664-59.082 18.4082-59.375 19.2383-59.375L102.734-59.375C103.564-59.375 103.906-59.082 103.906-58.252L103.906-12.2559C103.906-11.4258 103.564-11.084 102.734-11.084L19.2383-11.084C18.4082-11.084 18.0664-11.4258 18.0664-12.2559ZM21.6797-16.8945C21.6797-15.4785 22.4609-14.6973 23.8281-14.6973L98.1445-14.6973C99.5117-14.6973 100.293-15.4785 100.293-16.8945L100.293-53.5645C100.293-54.9805 99.5117-55.8105 98.1445-55.8105L23.8281-55.8105C22.4609-55.8105 21.6797-54.9805 21.6797-53.5645ZM26.0742-19.9707L26.0742-50.5371C26.0742-51.0742 26.3672-51.416 26.9531-51.416L51.7578-51.416C48.6816-47.8027 46.7773-42.1875 46.7773-35.3027C46.7773-28.3691 48.6816-22.7051 51.7578-19.0918L26.9531-19.0918C26.3672-19.0918 26.0742-19.3848 26.0742-19.9707ZM75.2441-35.3027C75.2441-42.1875 73.291-47.8027 70.1172-51.416L95.0195-51.416C95.6055-51.416 95.8984-51.0742 95.8984-50.5371L95.8984-19.9707C95.8984-19.3848 95.6055-19.0918 95.0195-19.0918L70.1172-19.0918C73.291-22.7051 75.2441-28.3691 75.2441-35.3027ZM60.791-19.9707C55.8105-19.9707 51.8066-26.0254 51.8066-35.3027C51.8066-44.4824 55.8105-50.5371 60.791-50.5371C66.0645-50.5371 70.2148-44.4824 70.2148-35.3027C70.2148-26.0254 66.0645-19.9707 60.791-19.9707Z"/>
  </g>
  <g id="Regular-S" transform="matrix(1 0 0 1 1388.66 696)">
   <path d="M9.76562-6.29883C9.76562-4.29688 11.084-2.92969 13.0859-2.92969L109.277-2.92969C111.279-2.92969 112.598-4.29688 112.598-6.29883L112.598-64.209C112.598-66.2109 111.279-67.5293 109.277-67.5293L13.0859-67.5293C11.084-67.5293 9.76562-66.2109 9.76562-64.209ZM16.7969-11.1816L16.7969-59.3262C16.7969-60.2051 17.0898-60.498 18.0176-60.498L104.346-60.498C105.273-60.498 105.566-60.2051 105.566-59.3262L105.566-11.1816C105.566-10.3027 105.273-10.0098 104.346-10.0098L18.0176-10.0098C17.0898-10.0098 16.7969-10.3027 16.7969-11.1816ZM20.752-16.4062C20.752-14.8438 21.6797-13.9648 23.1934-13.9648L99.1699-13.9648C100.684-13.9648 101.611-14.8438 101.611-16.4062L101.611-54.1016C101.611-55.6641 100.684-56.543 99.1699-56.543L23.1934-56.543C21.6797-56.543 20.752-55.6641 20.752-54.1016ZM25.0488-19.1895L25.0488-51.3184C25.0488-51.9531 25.3418-52.2949 25.9766-52.2949L51.9043-52.2949C48.584-48.584 46.5332-42.6758 46.5332-35.3027C46.5332-27.8809 48.584-21.9238 51.9043-18.2129L25.9766-18.2129C25.3418-18.2129 25.0488-18.5547 25.0488-19.1895ZM75.8789-35.3027C75.8789-42.6758 73.7793-48.584 70.3613-52.2949L96.3867-52.2949C97.0215-52.2949 97.3145-51.9531 97.3145-51.3184L97.3145-19.1895C97.3145-18.5547 97.0215-18.2129 96.3867-18.2129L70.3125-18.2129C73.7305-21.9238 75.8789-27.8809 75.8789-35.3027ZM60.9863-18.9941C55.6641-18.9941 51.4648-25.4395 51.4648-35.3027C51.4648-45.1172 55.6641-51.5137 60.9863-51.5137C66.5527-51.5137 70.9473-45.1172 70.9473-35.3027C70.9473-25.4395 66.5527-18.9941 60.9863-18.9941Z"/>
  </g>
  <g id="Light-S" transform="matrix(1 0 0 1 1093.61 696)">
   <path d="M9.76562-6.98242C9.76562-5.27344 10.8887-4.19922 12.5977-4.19922L106.445-4.19922C108.154-4.19922 109.277-5.27344 109.277-6.98242L109.277-63.4766C109.277-65.1855 108.154-66.3086 106.445-66.3086L12.5977-66.3086C10.8887-66.3086 9.76562-65.1855 9.76562-63.4766ZM15.1855-10.6445L15.1855-59.8145C15.1855-60.5469 15.4785-60.8398 16.2598-60.8398L102.783-60.8398C103.516-60.8398 103.809-60.5469 103.809-59.8145L103.809-10.6445C103.809-9.91211 103.516-9.61914 102.783-9.61914L16.2598-9.61914C15.4785-9.61914 15.1855-9.91211 15.1855-10.6445ZM19.4336-15.918C19.4336-14.5996 20.2148-13.8672 21.4844-13.8672L97.5098-13.8672C98.8281-13.8672 99.5605-14.5996 99.5605-15.918L99.5605-54.541C99.5605-55.8594 98.8281-56.5918 97.5098-56.5918L21.4844-56.5918C20.2148-56.5918 19.4336-55.8594 19.4336-54.541ZM22.998-18.2129L22.998-52.2949C22.998-52.7832 23.2422-53.0762 23.7793-53.0762L51.0254-53.0762C47.3145-49.5117 44.873-43.3594 44.873-35.3027C44.873-27.1973 47.3145-20.9961 51.0742-17.3828L23.7793-17.3828C23.2422-17.3828 22.998-17.6758 22.998-18.2129ZM74.1699-35.3027C74.1699-43.3594 71.6797-49.5117 67.9199-53.0762L95.2148-53.0762C95.752-53.0762 96.0449-52.7832 96.0449-52.2949L96.0449-18.2129C96.0449-17.6758 95.752-17.3828 95.2148-17.3828L67.8711-17.3828C71.6797-20.9961 74.1699-27.1973 74.1699-35.3027ZM59.4238-17.9199C53.8086-17.9199 48.877-24.4141 48.877-35.3027C48.877-46.0938 53.8086-52.5391 59.4238-52.5391C65.0879-52.5391 70.2148-46.0938 70.2148-35.3027C70.2148-24.4141 65.0879-17.9199 59.4238-17.9199Z"/>
  </g>
  <g id="Thin-S" transform="matrix(1 0 0 1 799.122 696)">
   <path d="M9.76562-7.95898C9.76562-6.64062 10.5957-5.81055 11.9141-5.81055L102.686-5.81055C104.004-5.81055 104.834-6.64062 104.834-7.95898L104.834-62.5C104.834-63.8184 104.004-64.6484 102.686-64.6484L11.9141-64.6484C10.5957-64.6484 9.76562-63.8184 9.76562-62.5ZM13.0859-9.96094L13.0859-60.4492C13.0859-61.0352 13.3789-61.3281 13.916-61.3281L100.684-61.3281C101.27-61.3281 101.562-61.0352 101.562-60.4492L101.562-9.96094C101.562-9.42383 101.27-9.13086 100.684-9.13086L13.916-9.13086C13.3789-9.13086 13.0859-9.42383 13.0859-9.96094ZM17.7246-15.2832C17.7246-14.3066 18.2617-13.7695 19.2383-13.7695L95.3613-13.7695C96.3379-13.7695 96.9238-14.3066 96.9238-15.2832L96.9238-55.127C96.9238-56.1035 96.3379-56.6895 95.3613-56.6895L19.2383-56.6895C18.2617-56.6895 17.7246-56.1035 17.7246-55.127ZM20.2637-16.9434L20.2637-53.5156C20.2637-53.9062 20.459-54.1016 20.8984-54.1016L50.0977-54.1016C45.8008-50.8301 42.6758-44.3848 42.6758-35.2539C42.6758-26.123 45.8008-19.6289 50.0977-16.3086L20.8984-16.3086C20.459-16.3086 20.2637-16.5039 20.2637-16.9434ZM71.9238-35.2539C71.9238-44.3848 68.7988-50.8301 64.502-54.1016L93.75-54.1016C94.1406-54.1016 94.3359-53.9062 94.3359-53.5156L94.3359-16.9434C94.3359-16.5039 94.1406-16.3086 93.75-16.3086L64.502-16.3086C68.7988-19.6289 71.9238-26.123 71.9238-35.2539ZM57.2754-16.5039C51.3672-16.5039 45.4102-23.0469 45.4102-35.2539C45.4102-47.4121 51.3672-53.9062 57.2754-53.9062C63.2324-53.9062 69.1895-47.4121 69.1895-35.2539C69.1895-23.0469 63.2324-16.5039 57.2754-16.5039Z"/>
  </g>
  <g id="Ultralight-S" transform="matrix(1 0 0 1 503.534 696)">
   <path d="M9.76562-8.44727C9.76562-7.32422 10.4492-6.64062 11.5723-6.64062L100.781-6.64062C101.904-6.64062 102.588-7.32422 102.588-8.44727L102.588-61.9629C102.588-63.0859 101.904-63.7695 100.781-63.7695L11.5723-63.7695C10.4492-63.7695 9.76562-63.0859 9.76562-61.9629ZM11.9629-9.61914L11.9629-60.791C11.9629-61.2793 12.2559-61.5723 12.7441-61.5723L99.6094-61.5723C100.098-61.5723 100.391-61.2793 100.391-60.791L100.391-9.61914C100.391-9.13086 100.098-8.83789 99.6094-8.83789L12.7441-8.83789C12.2559-8.83789 11.9629-9.13086 11.9629-9.61914ZM16.7969-14.9902C16.7969-14.1602 17.2852-13.6719 18.0664-13.6719L94.2383-13.6719C95.0684-13.6719 95.5078-14.1602 95.5078-14.9902L95.5078-55.4688C95.5078-56.25 95.0684-56.7383 94.2383-56.7383L18.0664-56.7383C17.2852-56.7383 16.7969-56.25 16.7969-55.4688ZM18.8965-16.2598L18.8965-54.1504C18.8965-54.4922 19.043-54.6387 19.3848-54.6387L49.7559-54.6387C45.1172-51.5625 41.5527-44.9707 41.5527-35.2539C41.5527-25.4883 45.1172-18.8477 49.707-15.7715L19.3848-15.7715C19.043-15.7715 18.8965-15.918 18.8965-16.2598ZM70.752-35.2539C70.752-44.9707 67.2363-51.5625 62.6465-54.6387L92.9688-54.6387C93.3105-54.6387 93.457-54.4922 93.457-54.1504L93.457-16.2598C93.457-15.918 93.3105-15.7715 92.9688-15.7715L62.6465-15.7715C67.2363-18.8477 70.752-25.4883 70.752-35.2539ZM56.2012-15.7715C50.0977-15.7715 43.6523-22.3145 43.6523-35.2539C43.6523-48.0957 50.0977-54.6387 56.2012-54.6387C62.2559-54.6387 68.6523-48.0957 68.6523-35.2539C68.6523-22.3145 62.2559-15.7715 56.2012-15.7715Z"/>
  </g>
 </g>
</svg>
