<?xml version="1.0" encoding="UTF-8"?>
<!--Generator: Apple Native CoreSVG 149-->
<!DOCTYPE svg
PUBLIC "-//W3C//DTD SVG 1.1//EN"
       "http://www.w3.org/Graphics/SVG/1.1/DTD/svg11.dtd">
<svg version="1.1" xmlns="http://www.w3.org/2000/svg" xmlns:xlink="http://www.w3.org/1999/xlink" width="3300" height="2200">
 <!--glyph: "uni1001E5.medium", point size: 100.000000, font version: "Version 16.0d12e3", template writer version: "8"-->
 <g id="Notes">
  <rect height="2200" id="artboard" style="fill:white;opacity:1" width="3300" x="0" y="0"/>
  <line id="" style="fill:none;stroke:black;opacity:1;stroke-width:0.5;" x1="263" x2="3036" y1="292" y2="292"/>
  <text style="stroke:none;fill:black;font-family:-apple-system,&quot;SF Pro Display&quot;,&quot;SF Pro Text&quot;,Helvetica,sans-serif;font-weight:bold;" transform="matrix(1 0 0 1 263 322)">Weight/Scale Variations</text>
  <text style="stroke:none;fill:black;font-family:-apple-system,&quot;SF Pro Display&quot;,&quot;SF Pro Text&quot;,Helvetica,sans-serif;text-anchor:middle;" transform="matrix(1 0 0 1 559.711 322)">Ultralight</text>
  <text style="stroke:none;fill:black;font-family:-apple-system,&quot;SF Pro Display&quot;,&quot;SF Pro Text&quot;,Helvetica,sans-serif;text-anchor:middle;" transform="matrix(1 0 0 1 856.422 322)">Thin</text>
  <text style="stroke:none;fill:black;font-family:-apple-system,&quot;SF Pro Display&quot;,&quot;SF Pro Text&quot;,Helvetica,sans-serif;text-anchor:middle;" transform="matrix(1 0 0 1 1153.13 322)">Light</text>
  <text style="stroke:none;fill:black;font-family:-apple-system,&quot;SF Pro Display&quot;,&quot;SF Pro Text&quot;,Helvetica,sans-serif;text-anchor:middle;" transform="matrix(1 0 0 1 1449.84 322)">Regular</text>
  <text style="stroke:none;fill:black;font-family:-apple-system,&quot;SF Pro Display&quot;,&quot;SF Pro Text&quot;,Helvetica,sans-serif;text-anchor:middle;" transform="matrix(1 0 0 1 1746.56 322)">Medium</text>
  <text style="stroke:none;fill:black;font-family:-apple-system,&quot;SF Pro Display&quot;,&quot;SF Pro Text&quot;,Helvetica,sans-serif;text-anchor:middle;" transform="matrix(1 0 0 1 2043.27 322)">Semibold</text>
  <text style="stroke:none;fill:black;font-family:-apple-system,&quot;SF Pro Display&quot;,&quot;SF Pro Text&quot;,Helvetica,sans-serif;text-anchor:middle;" transform="matrix(1 0 0 1 2339.98 322)">Bold</text>
  <text style="stroke:none;fill:black;font-family:-apple-system,&quot;SF Pro Display&quot;,&quot;SF Pro Text&quot;,Helvetica,sans-serif;text-anchor:middle;" transform="matrix(1 0 0 1 2636.69 322)">Heavy</text>
  <text style="stroke:none;fill:black;font-family:-apple-system,&quot;SF Pro Display&quot;,&quot;SF Pro Text&quot;,Helvetica,sans-serif;text-anchor:middle;" transform="matrix(1 0 0 1 2933.4 322)">Black</text>
  <line id="" style="fill:none;stroke:black;opacity:1;stroke-width:0.5;" x1="263" x2="3036" y1="1903" y2="1903"/>
  <g id="" transform="matrix(1 0 0 1 263 1933)">
   <path d="M9.24805 0.830078C13.5547 0.830078 17.1387-2.74414 17.1387-7.05078C17.1387-11.3574 13.5449-14.9316 9.23828-14.9316C4.94141-14.9316 1.36719-11.3574 1.36719-7.05078C1.36719-2.74414 4.95117 0.830078 9.24805 0.830078ZM9.24805-0.654297C5.70312-0.654297 2.87109-3.49609 2.87109-7.05078C2.87109-10.6055 5.69336-13.4473 9.23828-13.4473C12.793-13.4473 15.6348-10.6055 15.6445-7.05078C15.6543-3.49609 12.8027-0.654297 9.24805-0.654297ZM9.22852-3.62305C9.69727-3.62305 9.9707-3.93555 9.9707-4.45312L9.9707-6.31836L12.002-6.31836C12.5-6.31836 12.832-6.57227 12.832-7.04102C12.832-7.51953 12.5195-7.7832 12.002-7.7832L9.9707-7.7832L9.9707-9.81445C9.9707-10.332 9.69727-10.6543 9.22852-10.6543C8.75977-10.6543 8.50586-10.3125 8.50586-9.81445L8.50586-7.7832L6.49414-7.7832C5.97656-7.7832 5.64453-7.51953 5.64453-7.04102C5.64453-6.57227 5.99609-6.31836 6.49414-6.31836L8.50586-6.31836L8.50586-4.45312C8.50586-3.95508 8.75977-3.62305 9.22852-3.62305Z"/>
  </g>
  <g id="" transform="matrix(1 0 0 1 281.506 1933)">
   <path d="M11.709 2.91016C17.1582 2.91016 21.6699-1.61133 21.6699-7.05078C21.6699-12.5 17.1484-17.0117 11.6992-17.0117C6.25977-17.0117 1.74805-12.5 1.74805-7.05078C1.74805-1.61133 6.26953 2.91016 11.709 2.91016ZM11.709 1.25C7.09961 1.25 3.41797-2.44141 3.41797-7.05078C3.41797-11.6602 7.08984-15.3516 11.6992-15.3516C16.3086-15.3516 20-11.6602 20.0098-7.05078C20.0195-2.44141 16.3184 1.25 11.709 1.25ZM11.6797-2.66602C12.207-2.66602 12.5098-3.01758 12.5098-3.59375L12.5098-6.23047L15.3223-6.23047C15.8691-6.23047 16.25-6.51367 16.25-7.03125C16.25-7.55859 15.8887-7.86133 15.3223-7.86133L12.5098-7.86133L12.5098-10.6836C12.5098-11.25 12.207-11.6113 11.6797-11.6113C11.1621-11.6113 10.8789-11.2305 10.8789-10.6836L10.8789-7.86133L8.07617-7.86133C7.50977-7.86133 7.13867-7.55859 7.13867-7.03125C7.13867-6.51367 7.5293-6.23047 8.07617-6.23047L10.8789-6.23047L10.8789-3.59375C10.8789-3.03711 11.1621-2.66602 11.6797-2.66602Z"/>
  </g>
  <g id="" transform="matrix(1 0 0 1 304.924 1933)">
   <path d="M14.9707 5.66406C21.9336 5.66406 27.6953-0.0976562 27.6953-7.05078C27.6953-14.0137 21.9238-19.7754 14.9609-19.7754C8.00781-19.7754 2.25586-14.0137 2.25586-7.05078C2.25586-0.0976562 8.01758 5.66406 14.9707 5.66406ZM14.9707 3.84766C8.93555 3.84766 4.08203-1.01562 4.08203-7.05078C4.08203-13.0957 8.92578-17.9492 14.9609-17.9492C21.0059-17.9492 25.8594-13.0957 25.8691-7.05078C25.8789-1.01562 21.0156 3.84766 14.9707 3.84766ZM14.9414-1.38672C15.5176-1.38672 15.8594-1.77734 15.8594-2.38281L15.8594-6.13281L19.7754-6.13281C20.3711-6.13281 20.7812-6.46484 20.7812-7.02148C20.7812-7.59766 20.3906-7.93945 19.7754-7.93945L15.8594-7.93945L15.8594-11.8652C15.8594-12.4805 15.5176-12.8711 14.9414-12.8711C14.375-12.8711 14.0527-12.4609 14.0527-11.8652L14.0527-7.93945L10.1465-7.93945C9.53125-7.93945 9.13086-7.59766 9.13086-7.02148C9.13086-6.46484 9.55078-6.13281 10.1465-6.13281L14.0527-6.13281L14.0527-2.38281C14.0527-1.79688 14.375-1.38672 14.9414-1.38672Z"/>
  </g>
  <text style="stroke:none;fill:black;font-family:-apple-system,&quot;SF Pro Display&quot;,&quot;SF Pro Text&quot;,Helvetica,sans-serif;font-weight:bold;" transform="matrix(1 0 0 1 263 1953)">Design Variations</text>
  <text style="stroke:none;fill:black;font-family:-apple-system,&quot;SF Pro Display&quot;,&quot;SF Pro Text&quot;,Helvetica,sans-serif;" transform="matrix(1 0 0 1 263 1971)">Symbols are supported in up to nine weights and three scales.</text>
  <text style="stroke:none;fill:black;font-family:-apple-system,&quot;SF Pro Display&quot;,&quot;SF Pro Text&quot;,Helvetica,sans-serif;" transform="matrix(1 0 0 1 263 1989)">For optimal layout with text and other symbols, vertically align</text>
  <text style="stroke:none;fill:black;font-family:-apple-system,&quot;SF Pro Display&quot;,&quot;SF Pro Text&quot;,Helvetica,sans-serif;" transform="matrix(1 0 0 1 263 2007)">symbols with the adjacent text.</text>
  <line id="" style="fill:none;stroke:#00AEEF;stroke-width:0.5;opacity:1.0;" x1="776" x2="776" y1="1919" y2="1933"/>
  <g id="" transform="matrix(1 0 0 1 776 1933)">
   <path d="M3.31055 0.126953C3.82812 0.126953 4.08203-0.0683594 4.26758-0.605469L5.52734-4.0625L11.2891-4.0625L12.5488-0.605469C12.7344-0.0683594 12.9883 0.126953 13.4961 0.126953C14.0137 0.126953 14.3457-0.185547 14.3457-0.673828C14.3457-0.839844 14.3164-0.986328 14.2383-1.20117L9.6582-13.3887C9.43359-13.9941 9.0332-14.2871 8.4082-14.2871C7.80273-14.2871 7.39258-13.9941 7.17773-13.3984L2.59766-1.19141C2.51953-0.976562 2.49023-0.830078 2.49023-0.664062C2.49023-0.175781 2.80273 0.126953 3.31055 0.126953ZM6.00586-5.53711L8.37891-12.1094L8.42773-12.1094L10.8008-5.53711Z"/>
  </g>
  <line id="" style="fill:none;stroke:#00AEEF;stroke-width:0.5;opacity:1.0;" x1="792.836" x2="792.836" y1="1919" y2="1933"/>
  <text style="stroke:none;fill:black;font-family:-apple-system,&quot;SF Pro Display&quot;,&quot;SF Pro Text&quot;,Helvetica,sans-serif;font-weight:bold;" transform="matrix(1 0 0 1 776 1953)">Margins</text>
  <text style="stroke:none;fill:black;font-family:-apple-system,&quot;SF Pro Display&quot;,&quot;SF Pro Text&quot;,Helvetica,sans-serif;" transform="matrix(1 0 0 1 776 1971)">Leading and trailing margins on the left and right side of each symbol</text>
  <text style="stroke:none;fill:black;font-family:-apple-system,&quot;SF Pro Display&quot;,&quot;SF Pro Text&quot;,Helvetica,sans-serif;" transform="matrix(1 0 0 1 776 1989)">can be adjusted by modifying the x-location of the margin guidelines.</text>
  <text style="stroke:none;fill:black;font-family:-apple-system,&quot;SF Pro Display&quot;,&quot;SF Pro Text&quot;,Helvetica,sans-serif;" transform="matrix(1 0 0 1 776 2007)">Modifications are automatically applied proportionally to all</text>
  <text style="stroke:none;fill:black;font-family:-apple-system,&quot;SF Pro Display&quot;,&quot;SF Pro Text&quot;,Helvetica,sans-serif;" transform="matrix(1 0 0 1 776 2025)">scales and weights.</text>
  <g id="" transform="matrix(1 0 0 1 1289 1933)">
   <path d="M2.8418 1.86523L4.54102 3.57422C5.40039 4.44336 6.38672 4.38477 7.31445 3.35938L17.4902-7.85156C17.7539-7.76367 18.0273-7.7832 18.3398-7.8418L19.4043-8.03711L20.0684-7.36328L20.0293-6.80664C19.9902-6.30859 20.1172-5.92773 20.6055-5.44922L21.3672-4.70703C21.8457-4.22852 22.4609-4.19922 22.9297-4.66797L25.8398-7.58789C26.3086-8.05664 26.2891-8.65234 25.8105-9.13086L25.0391-9.89258C24.5605-10.3711 24.1895-10.5273 23.7109-10.4883L23.1348-10.4395L22.4902-11.0742L22.7344-12.1973C22.8613-12.7637 22.7051-13.2031 22.1191-13.7891L19.9219-15.9766C16.582-19.2969 12.1484-19.2188 9.25781-16.3281C8.83789-15.918 8.80859-15.3418 9.04297-14.9512C9.27734-14.5898 9.73633-14.3555 10.3809-14.5215C11.8457-14.8633 13.3691-14.9219 14.7949-13.9844L14.209-12.5293C14.0137-12.0508 13.9844-11.6504 14.1113-11.2891L3.04688-0.898438C2.06055 0.0195312 1.98242 0.996094 2.8418 1.86523ZM10.752-15.957C13.1836-17.7344 16.4746-17.4316 18.7012-15.2051L21.1328-12.793C21.3672-12.5586 21.4062-12.373 21.3379-12.0312L21.0156-10.5469L22.5195-9.0625L23.5059-9.12109C23.7598-9.13086 23.8379-9.11133 24.0332-8.91602L24.6094-8.33984L22.168-5.89844L21.5918-6.47461C21.3965-6.66992 21.3672-6.74805 21.377-7.01172L21.4453-7.98828L19.9512-9.47266L18.4277-9.21875C18.1055-9.15039 17.959-9.17969 17.7148-9.41406L15.7129-11.416C15.459-11.6504 15.4297-11.8164 15.5859-12.1875L16.4648-14.2773C14.9023-15.7324 12.8711-16.3574 10.8398-15.7617C10.6836-15.7227 10.625-15.8496 10.752-15.957ZM5.27344 2.30469L4.10156 1.14258C3.63281 0.683594 3.74023 0.341797 4.14062-0.0195312L14.9512-10.1953L16.416-8.71094L6.42578 2.27539C6.07422 2.67578 5.74219 2.77344 5.27344 2.30469Z"/>
  </g>
  <text style="stroke:none;fill:black;font-family:-apple-system,&quot;SF Pro Display&quot;,&quot;SF Pro Text&quot;,Helvetica,sans-serif;font-weight:bold;" transform="matrix(1 0 0 1 1289 1953)">Exporting</text>
  <text style="stroke:none;fill:black;font-family:-apple-system,&quot;SF Pro Display&quot;,&quot;SF Pro Text&quot;,Helvetica,sans-serif;" transform="matrix(1 0 0 1 1289 1971)">Symbols should be outlined when exporting to ensure the</text>
  <text style="stroke:none;fill:black;font-family:-apple-system,&quot;SF Pro Display&quot;,&quot;SF Pro Text&quot;,Helvetica,sans-serif;" transform="matrix(1 0 0 1 1289 1989)">design is preserved when submitting to Xcode.</text>
  <text id="template-version" style="stroke:none;fill:black;font-family:-apple-system,&quot;SF Pro Display&quot;,&quot;SF Pro Text&quot;,Helvetica,sans-serif;text-anchor:end;" transform="matrix(1 0 0 1 3036 1933)">Template v.2.0</text>
  <text style="stroke:none;fill:black;font-family:-apple-system,&quot;SF Pro Display&quot;,&quot;SF Pro Text&quot;,Helvetica,sans-serif;text-anchor:end;" transform="matrix(1 0 0 1 3036 1951)">Requires Xcode 12 or greater</text>
  <text style="stroke:none;fill:black;font-family:-apple-system,&quot;SF Pro Display&quot;,&quot;SF Pro Text&quot;,Helvetica,sans-serif;text-anchor:end;" transform="matrix(1 0 0 1 3036 1969)">Generated from snow</text>
  <text style="stroke:none;fill:black;font-family:-apple-system,&quot;SF Pro Display&quot;,&quot;SF Pro Text&quot;,Helvetica,sans-serif;text-anchor:end;" transform="matrix(1 0 0 1 3036 1987)">Typeset at 100 points</text>
  <text style="stroke:none;fill:black;font-family:-apple-system,&quot;SF Pro Display&quot;,&quot;SF Pro Text&quot;,Helvetica,sans-serif;" transform="matrix(1 0 0 1 263 726)">Small</text>
  <text style="stroke:none;fill:black;font-family:-apple-system,&quot;SF Pro Display&quot;,&quot;SF Pro Text&quot;,Helvetica,sans-serif;" transform="matrix(1 0 0 1 263 1156)">Medium</text>
  <text style="stroke:none;fill:black;font-family:-apple-system,&quot;SF Pro Display&quot;,&quot;SF Pro Text&quot;,Helvetica,sans-serif;" transform="matrix(1 0 0 1 263 1586)">Large</text>
 </g>
 <g id="Guides">
  <g id="H-reference" style="fill:#27AAE1;stroke:none;" transform="matrix(1 0 0 1 339 696)">
   <path d="M0.976562 0L3.66211 0L12.9883-24.4629L45.752-24.4629L55.127 0L57.7637 0L30.6152-70.459L28.125-70.459ZM29.3457-67.1387L29.4434-67.1387L44.873-26.709L13.8672-26.709Z"/>
  </g>
  <line id="Baseline-S" style="fill:none;stroke:#27AAE1;opacity:1;stroke-width:0.5;" x1="263" x2="3036" y1="696" y2="696"/>
  <line id="Capline-S" style="fill:none;stroke:#27AAE1;opacity:1;stroke-width:0.5;" x1="263" x2="3036" y1="625.541" y2="625.541"/>
  <g id="H-reference" style="fill:#27AAE1;stroke:none;" transform="matrix(1 0 0 1 339 1126)">
   <path d="M0.976562 0L3.66211 0L12.9883-24.4629L45.752-24.4629L55.127 0L57.7637 0L30.6152-70.459L28.125-70.459ZM29.3457-67.1387L29.4434-67.1387L44.873-26.709L13.8672-26.709Z"/>
  </g>
  <line id="Baseline-M" style="fill:none;stroke:#27AAE1;opacity:1;stroke-width:0.5;" x1="263" x2="3036" y1="1126" y2="1126"/>
  <line id="Capline-M" style="fill:none;stroke:#27AAE1;opacity:1;stroke-width:0.5;" x1="263" x2="3036" y1="1055.54" y2="1055.54"/>
  <g id="H-reference" style="fill:#27AAE1;stroke:none;" transform="matrix(1 0 0 1 339 1556)">
   <path d="M0.976562 0L3.66211 0L12.9883-24.4629L45.752-24.4629L55.127 0L57.7637 0L30.6152-70.459L28.125-70.459ZM29.3457-67.1387L29.4434-67.1387L44.873-26.709L13.8672-26.709Z"/>
  </g>
  <line id="Baseline-L" style="fill:none;stroke:#27AAE1;opacity:1;stroke-width:0.5;" x1="263" x2="3036" y1="1556" y2="1556"/>
  <line id="Capline-L" style="fill:none;stroke:#27AAE1;opacity:1;stroke-width:0.5;" x1="263" x2="3036" y1="1485.54" y2="1485.54"/>
  <line id="left-margin" style="fill:none;stroke:#00AEEF;stroke-width:0.5;opacity:1.0;" x1="1397.89" x2="1397.89" y1="1030.79" y2="1150.12"/>
  <line id="right-margin" style="fill:none;stroke:#00AEEF;stroke-width:0.5;opacity:1.0;" x1="1501.8" x2="1501.8" y1="1030.79" y2="1150.12"/>
 </g>
 <g id="Symbols">
  <g id="Black-L" transform="matrix(1 0 0 1 2862.45 1556)">
   <path d="M70.9473 32.4707C75.3906 32.4707 78.2715 29.3457 78.2715 24.707L78.2715 14.5508L83.3496 18.5059C86.4746 21.2891 90.4785 21.2891 92.9688 17.9688C95.0684 14.9902 94.6777 11.1816 91.0645 8.83789L78.2715 0.830078L78.2715-5.9082L76.5625-25.3418L92.7246-14.1602L98.4863-10.791L99.0723 4.19922C99.3164 8.49609 102.441 10.7422 106.006 10.3027C110.156 9.91211 112.158 6.49414 111.328 2.39258L110.4-3.95508L119.287 1.12305C123.242 3.4668 127.393 2.44141 129.541-1.36719C131.641-5.17578 130.518-9.375 126.611-11.6211L117.822-16.748L123.73-19.1406C127.637-20.4102 129.688-23.877 127.979-27.7344C126.514-31.0059 122.998-32.5195 119.189-30.6152L105.859-23.6328L100.049-27.002L82.3242-35.2539L100.049-43.5547L105.859-46.9238L119.189-39.8438C122.998-37.8906 126.514-39.5508 128.076-42.8711C129.736-46.582 127.686-50.0977 123.73-51.416L117.822-53.7598L126.611-58.9355C130.566-61.2305 131.738-65.2832 129.59-69.0918C127.441-72.8516 123.193-73.9746 119.287-71.6797L110.4-66.6504L111.328-72.9004C112.207-77.002 110.156-80.5176 106.055-80.8594C102.49-81.2012 99.3164-78.9551 99.0723-74.7559L98.4863-59.6191L92.7246-56.2988L76.5625-45.0684L78.2715-64.6484L78.2715-71.3867L91.0645-79.3945C94.6777-81.6895 95.0195-85.5469 92.9688-88.5254C90.5273-91.8457 86.4746-91.8457 83.3496-89.0137L78.2715-85.0586L78.2715-95.2637C78.2715-99.9023 75.3906-103.027 70.9473-103.027C66.6016-103.027 63.623-99.8047 63.623-95.2637L63.623-85.0586L58.5449-89.0137C55.3711-91.8457 51.416-91.8457 48.9258-88.5254C46.8262-85.5469 47.2168-81.6895 50.7812-79.3945L63.623-71.3867L63.623-64.6484L65.332-45.0195L49.1699-56.2988L43.4082-59.7168L42.8223-74.7559C42.5781-78.9551 39.4043-81.2012 35.8398-80.8594C31.6895-80.5176 29.7363-76.9531 30.5664-72.9492L31.4941-66.6504L22.6074-71.6797C18.75-73.9258 14.4531-72.8516 12.3047-69.0918C10.1562-65.2832 11.3281-61.1328 15.2344-58.9355L24.0723-53.7598L18.1641-51.416C14.209-50.0977 12.207-46.582 13.916-42.8223C15.4297-39.5508 18.8965-37.8906 22.7051-39.8438L35.9863-46.875L41.8457-43.5547L59.5703-35.2539L41.8457-27.002L36.0352-23.6328L22.7051-30.6641C18.8965-32.666 15.3809-31.0059 13.8672-27.6855C12.1582-23.9258 14.209-20.459 18.1641-19.1406L24.0723-16.748L15.2832-11.6211C11.377-9.375 10.1074-5.17578 12.3047-1.36719C14.502 2.49023 18.7012 3.4668 22.6074 1.12305L31.4941-3.90625L30.5664 2.34375C29.6875 6.49414 31.6895 9.96094 35.8398 10.3027C39.4531 10.6934 42.5781 8.44727 42.8223 4.19922L43.4082-10.9375L49.1699-14.2578L65.332-25.4395L63.623-5.9082L63.623 0.830078L50.7812 8.83789C47.2168 11.1816 46.875 14.9902 48.9258 17.9688C51.3672 21.2891 55.3711 21.2891 58.5449 18.5059L63.623 14.5508L63.623 24.707C63.623 29.2969 66.6016 32.4707 70.9473 32.4707Z"/>
  </g>
  <g id="Heavy-L" transform="matrix(1 0 0 1 2566.82 1556)">
   <path d="M69.873 31.3965C73.8281 31.3965 76.3672 28.6133 76.3672 24.5117L76.3672 13.1836L83.0566 17.8223C85.9375 20.2148 89.502 20.166 91.6504 17.1875C93.5059 14.502 93.0664 11.084 89.8438 9.0332L76.3672 0.830078L76.3672-6.49414L74.8047-26.5137L91.6016-15.1855L97.8516-11.5723L98.291 4.15039C98.4375 7.95898 101.221 10.0586 104.395 9.76562C108.105 9.42383 109.912 6.39648 109.277 2.73438L108.594-5.41992L118.457 0.292969C121.973 2.39258 125.635 1.46484 127.539-1.9043C129.395-5.32227 128.369-9.0332 124.951-10.9863L115.137-16.6992L122.51-20.166C125.928-21.4355 127.734-24.5605 126.172-27.8809C124.756-30.8105 121.582-32.0801 118.213-30.3711L104.395-22.9004L98.0469-26.5137L79.7852-35.2539L98.0469-43.9941L104.346-47.6562L118.213-40.1367C121.582-38.3301 124.756-39.6973 126.221-42.6758C127.783-45.9473 125.977-49.0723 122.51-50.3418L115.137-53.8574L124.951-59.5215C128.467-61.5723 129.492-65.1367 127.588-68.5547C125.684-71.875 121.924-72.8516 118.457-70.8008L108.594-65.1855L109.277-73.2422C109.912-76.9531 108.105-80.0293 104.395-80.2734C101.221-80.5664 98.4375-78.4668 98.291-74.707L97.8516-58.8867L91.6016-55.2734L74.8047-43.8965L76.3672-64.0625L76.3672-71.3867L89.8438-79.5898C93.0664-81.6406 93.457-85.0586 91.6504-87.6953C89.502-90.7227 85.9375-90.7715 83.0566-88.3301L76.3672-83.6914L76.3672-95.0684C76.3672-99.1699 73.8281-101.953 69.873-101.953C66.0156-101.953 63.4277-99.1211 63.4277-95.0684L63.4277-83.6914L56.6406-88.3301C53.7598-90.7715 50.293-90.7227 48.0957-87.6953C46.2402-85.0586 46.7285-81.6406 49.9512-79.5898L63.4277-71.3867L63.4277-64.0625L64.9902-43.8477L48.1934-55.2734L41.8945-58.9355L41.4551-74.707C41.3086-78.4668 38.5254-80.5664 35.4004-80.2734C31.6406-80.0293 29.8828-76.9043 30.5176-73.291L31.2012-65.1855L21.3379-70.8008C17.8711-72.8027 14.1113-71.875 12.1582-68.5547C10.2539-65.1367 11.3281-61.5234 14.7949-59.5215L24.6582-53.8574L17.2852-50.3418C13.8184-49.0723 12.0605-45.9961 13.623-42.5781C14.9902-39.6973 18.1641-38.3301 21.582-40.1367L35.3516-47.6074L41.6992-43.9941L59.9609-35.2539L41.6992-26.5137L35.4004-22.9004L21.5332-30.4199C18.1641-32.1777 14.9902-30.8105 13.623-27.8809C12.0605-24.5117 13.8184-21.4844 17.2852-20.166L24.6582-16.6992L14.8438-10.9863C11.377-9.0332 10.2539-5.27344 12.1582-1.95312C14.1113 1.51367 17.8711 2.34375 21.3379 0.292969L31.2012-5.32227L30.5176 2.68555C29.834 6.39648 31.6406 9.47266 35.3516 9.76562C38.5742 10.0098 41.3086 7.91016 41.4551 4.15039L41.9434-11.6699L48.1934-15.2344L64.9902-26.6113L63.4277-6.49414L63.4277 0.830078L49.9512 9.0332C46.7285 11.084 46.2891 14.502 48.0957 17.1875C50.2441 20.166 53.7598 20.2148 56.6406 17.8223L63.4277 13.1836L63.4277 24.5117C63.4277 28.5645 66.0156 31.3965 69.873 31.3965Z"/>
  </g>
  <g id="Bold-L" transform="matrix(1 0 0 1 2271.28 1556)">
   <path d="M68.7012 30.1758C72.1191 30.1758 74.2188 27.7832 74.2188 24.3164L74.2188 11.6211L82.7637 17.041C85.3516 19.043 88.3789 18.8965 90.1855 16.2598C91.748 13.916 91.2598 10.9863 88.4277 9.22852L74.2188 0.830078L74.2188-7.12891L72.8027-27.8809L90.332-16.3574L97.168-12.4023L97.4121 4.05273C97.5098 7.37305 99.8047 9.32617 102.588 9.13086C105.811 8.88672 107.373 6.34766 106.982 3.125L106.543-7.03125L117.529-0.634766C120.605 1.12305 123.682 0.390625 125.293-2.53906C126.904-5.41992 126.025-8.59375 123.096-10.2539L112.109-16.6016L121.094-21.3379C124.023-22.5586 125.488-25.2441 124.072-28.125C122.754-30.6152 120.02-31.6406 117.139-30.0781L102.686-22.0703L95.8496-26.0254L76.9531-35.2539L95.8496-44.4824L102.686-48.4863L117.09-40.4297C119.971-38.8672 122.852-39.8926 124.121-42.4316C125.537-45.2637 124.072-47.9492 121.094-49.2188L112.109-53.9062L123.096-60.2539C126.123-61.9629 127.002-65.0391 125.342-67.9688C123.73-70.8008 120.557-71.6309 117.578-69.873L106.543-63.5254L106.934-73.6816C107.373-76.9043 105.811-79.4434 102.588-79.6387C99.8047-79.7852 97.5098-77.8809 97.4121-74.6094L97.168-58.1055L90.332-54.1016L72.8027-42.5781L74.2188-63.4277L74.2188-71.3867L88.4277-79.7852C91.2598-81.543 91.6992-84.4727 90.1855-86.8164C88.4277-89.4531 85.3516-89.5508 82.7637-87.5977L74.2188-82.1777L74.2188-94.8242C74.2188-98.3398 72.1191-100.732 68.7012-100.732C65.3809-100.732 63.1836-98.291 63.1836-94.8242L63.1836-82.1777L54.541-87.5977C51.9531-89.5508 49.0234-89.4531 47.168-86.8164C45.6543-84.4727 46.1914-81.543 48.9746-79.7852L63.1836-71.3379L63.1836-63.4277L64.5996-42.5293L47.0703-54.1016L40.2344-58.1055L39.9902-74.6094C39.8926-77.8809 37.5977-79.7852 34.8145-79.6387C31.5918-79.4434 30.0293-76.8555 30.4688-73.6816L30.8594-63.5254L19.873-69.873C16.9434-71.582 13.6719-70.8008 12.0605-67.9688C10.4004-65.0391 11.3281-61.9141 14.3066-60.2539L25.293-53.9062L16.3086-49.2188C13.3301-47.9492 11.9141-45.3125 13.3301-42.3828C14.5508-39.8926 17.3828-38.8672 20.3613-40.4297L34.668-48.4375L41.5527-44.4824L60.4492-35.2539L41.5527-26.0254L34.668-22.0215L20.3125-30.127C17.3828-31.6895 14.5996-30.6152 13.3789-28.125C11.9141-25.1953 13.3301-22.6074 16.3086-21.3379L25.293-16.6016L14.3066-10.2539C11.377-8.59375 10.4004-5.37109 12.0605-2.53906C13.7207 0.390625 16.8945 1.07422 19.873-0.634766L30.8594-6.93359L30.4199 3.125C30.0293 6.34766 31.5918 8.93555 34.8145 9.13086C37.5977 9.27734 39.8926 7.32422 39.9902 4.05273L40.2832-12.4512L47.0703-16.3574L64.5996-27.9297L63.1836-7.12891L63.1836 0.830078L48.9746 9.27734C46.1914 10.9863 45.6543 13.916 47.168 16.2598C48.9746 18.8965 51.9531 19.043 54.541 17.041L63.1836 11.6211L63.1836 24.3164C63.1836 27.7832 65.3809 30.1758 68.7012 30.1758Z"/>
  </g>
  <g id="Semibold-L" transform="matrix(1 0 0 1 1975.4 1556)">
   <path d="M67.8711 29.3457C70.8984 29.3457 72.7539 27.2461 72.7539 24.1211L72.7539 10.5957L82.5684 16.5527C84.9609 18.2129 87.5977 18.0664 89.209 15.6738C90.5273 13.5254 89.9902 10.9375 87.4512 9.375L72.7539 0.830078L72.7539-7.56836L71.4355-28.8086L89.4531-17.1387L96.6797-12.9883L96.8262 4.00391C96.8262 6.98242 98.877 8.78906 101.318 8.69141C104.199 8.54492 105.615 6.29883 105.371 3.41797L105.127-8.10547L116.895-1.31836C119.629 0.292969 122.314-0.390625 123.779-2.92969C125.195-5.51758 124.414-8.30078 121.777-9.76562L110.059-16.5527L120.166-22.168C122.754-23.3887 123.975-25.7324 122.656-28.2715C121.436-30.5176 118.945-31.2988 116.357-29.8828L101.514-21.4844L94.2871-25.6348L75.0488-35.2539L94.3359-44.8242L101.562-49.0723L116.309-40.625C118.896-39.209 121.484-40.0391 122.705-42.2852C123.975-44.7754 122.754-47.168 120.117-48.3887L110.059-53.9551L121.826-60.7422C124.512-62.2559 125.244-64.9414 123.828-67.5781C122.363-70.0684 119.58-70.8008 116.943-69.1895L105.127-62.4512L105.371-73.9746C105.615-76.8555 104.199-79.0527 101.318-79.1504C98.8281-79.2969 96.8262-77.4902 96.8262-74.5605L96.6797-57.5195L89.4531-53.3203L71.4355-41.6504L72.7539-62.9883L72.7539-71.3379L87.4512-79.9316C89.9902-81.4453 90.5273-84.082 89.209-86.1816C87.6465-88.5742 84.9609-88.7207 82.5684-87.0605L72.7539-81.1035L72.7539-94.6777C72.7539-97.7539 70.8984-99.8535 67.8711-99.8535C64.9902-99.8535 63.0371-97.7539 63.0371-94.6777L63.0371-81.1035L53.0762-87.0605C50.7324-88.7207 48.1445-88.5742 46.5332-86.1816C45.2148-84.082 45.8008-81.4941 48.291-79.9316L63.0371-71.3379L63.0371-62.9883L64.3555-41.6016L46.3379-53.3203L39.0625-57.5195L38.9648-74.5605C38.916-77.4902 36.9141-79.2969 34.4727-79.1504C31.543-79.0527 30.1758-76.8066 30.4199-73.9746L30.6641-62.4512L18.8477-69.1895C16.2598-70.7031 13.4277-70.0684 11.9629-67.5781C10.4492-64.9414 11.3281-62.207 13.916-60.7422L25.7324-53.9551L15.625-48.3887C13.0371-47.168 11.8164-44.8242 13.0859-42.2363C14.2578-40.0391 16.8457-39.209 19.4824-40.625L34.2285-49.0234L41.4551-44.8242L60.7422-35.2539L41.4551-25.6348L34.2285-21.4844L19.4336-29.9316C16.8457-31.3477 14.3066-30.5176 13.1836-28.3203C11.8652-25.6348 13.0371-23.3887 15.625-22.168L25.7324-16.5527L13.9648-9.76562C11.377-8.30078 10.498-5.46875 11.9629-2.97852C13.4766-0.341797 16.2598 0.244141 18.8477-1.31836L30.6641-8.05664L30.4199 3.41797C30.127 6.29883 31.543 8.54492 34.4238 8.69141C36.9141 8.78906 38.916 6.93359 38.9648 4.00391L39.1113-13.0371L46.3379-17.1387L64.3555-28.8574L63.0371-7.56836L63.0371 0.78125L48.291 9.42383C45.8008 10.9375 45.2148 13.5254 46.5332 15.6738C48.0957 18.0664 50.7324 18.2129 53.0762 16.5527L63.0371 10.5469L63.0371 24.1211C63.0371 27.1973 64.9902 29.3457 67.8711 29.3457Z"/>
  </g>
  <g id="Medium-L" transform="matrix(1 0 0 1 1679.29 1556)">
   <path d="M67.2852 28.7109C69.9707 28.7109 71.6309 26.8066 71.6309 24.0234L71.6309 9.76562L82.4219 16.1621C84.668 17.5781 87.0605 17.3828 88.4277 15.1855C89.5996 13.2324 89.0625 10.8887 86.7188 9.52148L71.6309 0.830078L71.6309-7.91016L70.4102-29.4922L88.7695-17.7734L96.3379-13.4277L96.3379 3.95508C96.3379 6.64062 98.1445 8.39844 100.391 8.34961C103.027 8.25195 104.346 6.25 104.199 3.61328L104.053-8.98438L116.455-1.80664C118.896-0.341797 121.289-0.976562 122.607-3.27148C123.877-5.61523 123.145-8.05664 120.85-9.42383L108.447-16.5039L119.434-22.8027C121.729-23.9746 122.803-26.123 121.582-28.3691C120.41-30.4199 118.115-31.0547 115.771-29.7363L100.635-21.0449L93.1152-25.3906L73.5352-35.2539L93.1641-45.0684L100.684-49.4629L115.723-40.7715C118.066-39.4531 120.508-40.1367 121.631-42.1387C122.803-44.3848 121.729-46.5332 119.385-47.7539L108.496-53.9551L120.85-61.084C123.291-62.4512 123.975-64.8438 122.656-67.2852C121.338-69.4824 118.848-70.1172 116.455-68.7012L104.053-61.5723L104.15-74.1699C104.297-76.8066 102.979-78.7598 100.391-78.8086C98.0957-78.9062 96.3379-77.1973 96.3379-74.5117L96.2891-57.0801L88.7695-52.7344L70.4102-40.918L71.6309-62.6465L71.6309-71.3379L86.7188-80.0293C89.0625-81.3965 89.5996-83.7891 88.4277-85.7422C87.0605-87.9395 84.668-88.0859 82.4219-86.6699L71.6309-80.3223L71.6309-94.5801C71.6309-97.3633 69.9707-99.2188 67.2852-99.2188C64.6484-99.2188 62.8906-97.3145 62.8906-94.5801L62.8906-80.2734L51.9531-86.6699C49.7559-88.0859 47.4609-87.9395 46.0449-85.7422C44.873-83.7891 45.5078-81.4453 47.8027-80.0781L62.8906-71.3379L62.8906-62.6465L64.1602-40.918L45.752-52.7344L38.2324-57.0801L38.1836-74.5117C38.1836-77.1973 36.4258-78.9062 34.1797-78.8086C31.543-78.7598 30.2246-76.8066 30.3711-74.1699L30.4688-61.5723L18.1152-68.7012C15.7715-70.0684 13.1836-69.4824 11.9141-67.2852C10.5469-64.8438 11.3281-62.4023 13.6719-61.084L26.0254-53.9551L15.1367-47.7539C12.793-46.5332 11.7188-44.4824 12.9395-42.0898C14.0137-40.1367 16.4062-39.4531 18.8477-40.7715L33.8379-49.4629L41.3574-45.0684L60.9863-35.2539L41.4062-25.3906L33.8379-21.0449L18.75-29.7363C16.4062-31.0547 14.0625-30.4199 13.0371-28.418C11.8164-26.0254 12.793-23.9746 15.0879-22.8027L26.0742-16.5039L13.7207-9.42383C11.3281-8.05664 10.5469-5.51758 11.9141-3.27148C13.2812-0.927734 15.7715-0.390625 18.1152-1.80664L30.4688-8.88672L30.3711 3.61328C30.2246 6.25 31.543 8.25195 34.1309 8.34961C36.377 8.39844 38.1836 6.64062 38.1836 3.95508L38.2324-13.4277L45.752-17.7246L64.1602-29.541L62.8906-7.91016L62.8906 0.78125L47.8027 9.52148C45.5078 10.8887 44.9219 13.2324 46.0449 15.1855C47.4609 17.3828 49.7559 17.5781 51.9531 16.1621L62.8906 9.76562L62.8906 24.0234C62.8906 26.8066 64.6484 28.7109 67.2852 28.7109Z"/>
  </g>
  <g id="Regular-L" transform="matrix(1 0 0 1 1383.39 1556)">
   <path d="M66.4551 27.8809C68.7988 27.8809 70.2148 26.2207 70.2148 23.877L70.2148 8.74023L82.2266 15.625C84.2285 16.748 86.2793 16.5527 87.4512 14.5996C88.4277 12.8906 87.8418 10.791 85.7422 9.61914L70.2148 0.830078L70.2148-8.34961L69.0918-30.4199L87.8906-18.5547L95.8496-14.0137L95.752 3.90625C95.7031 6.25 97.2168 7.91016 99.1699 7.91016C101.416 7.91016 102.588 6.20117 102.588 3.90625L102.637-10.0586L115.82-2.44141C117.92-1.2207 119.971-1.70898 121.094-3.66211C122.168-5.66406 121.533-7.76367 119.58-8.93555L106.396-16.4551L118.506-23.584C120.459-24.7559 121.289-26.6113 120.166-28.5156C119.043-30.2734 117.041-30.7129 115.039-29.541L99.5117-20.5078L91.6016-25.0488L71.6309-35.2539L91.6504-45.4102L99.5605-50.0488L114.941-41.0156C116.992-39.7949 119.189-40.2832 120.215-41.9922C121.289-43.8965 120.41-45.752 118.457-46.9727L106.445-54.0039L119.58-61.5723C121.68-62.7441 122.266-64.7949 121.094-66.8457C120.02-68.75 117.871-69.2871 115.869-68.0664L102.637-60.4492L102.588-74.4629C102.588-76.8066 101.416-78.418 99.1211-78.3691C97.168-78.3691 95.7031-76.8066 95.752-74.4629L95.8008-56.543L87.8906-51.9531L69.0918-40.0391L70.2148-62.207L70.2148-71.3379L85.7422-80.1758C87.8418-81.3477 88.4277-83.3984 87.4512-85.1074C86.2793-87.0605 84.2285-87.3047 82.2266-86.1816L70.2148-79.248L70.2148-94.3848C70.2148-96.7773 68.7988-98.4375 66.4551-98.4375C64.209-98.4375 62.7441-96.7773 62.7441-94.3848L62.7441-79.248L50.5371-86.1816C48.5352-87.3047 46.582-87.0605 45.4102-85.1074C44.4824-83.3984 45.1172-81.3965 47.1191-80.2246L62.7441-71.3379L62.7441-62.207L63.8672-39.9902L45.0195-51.9531L37.0605-56.543L37.1582-74.4629C37.207-76.8066 35.791-78.3691 33.7891-78.3691C31.4941-78.3691 30.3711-76.7578 30.3711-74.4629L30.2734-60.4492L17.0898-68.0664C15.0879-69.2383 12.8906-68.75 11.8164-66.8457C10.6445-64.7949 11.3281-62.6953 13.3301-61.5723L26.4648-54.0039L14.4531-46.9727C12.4512-45.752 11.6211-44.043 12.7441-41.9434C13.7207-40.2344 15.8691-39.7949 17.9688-41.0156L33.3984-50L41.2598-45.4102L61.2793-35.2539L41.3086-25.0488L33.3496-20.459L17.9199-29.541C15.8691-30.7129 13.7695-30.2734 12.8418-28.5645C11.7188-26.4648 12.4512-24.7559 14.4531-23.584L26.5137-16.4551L13.3789-8.93555C11.3281-7.76367 10.6934-5.61523 11.8164-3.71094C12.9883-1.66016 15.1367-1.26953 17.0898-2.44141L30.2734-9.96094L30.3223 3.90625C30.3223 6.20117 31.4941 7.91016 33.7891 7.91016C35.6934 7.91016 37.207 6.25 37.1582 3.90625L37.1094-14.0137L45.0195-18.5059L63.8672-30.4688L62.7441-8.34961L62.7441 0.78125L47.1191 9.66797C45.1172 10.8398 44.4824 12.8906 45.4102 14.5996C46.582 16.5527 48.5352 16.748 50.5371 15.625L62.7441 8.69141L62.7441 23.877C62.7441 26.2207 64.209 27.8809 66.4551 27.8809Z"/>
  </g>
  <g id="Light-L" transform="matrix(1 0 0 1 1087.46 1556)">
   <path d="M65.6738 27.0996C67.4316 27.0996 68.5059 25.8789 68.5059 23.9746L68.5059 6.83594L82.1777 14.7461C83.7402 15.625 85.3027 15.4297 86.2305 13.9648C86.9629 12.5977 86.5234 11.0352 84.9121 10.1562L68.5059 0.78125L68.5059-9.91211L67.627-31.3477L86.1816-20.0684L95.459-14.7949L95.4102 4.05273C95.3613 5.95703 96.5332 7.22656 98.0469 7.22656C99.7559 7.22656 100.684 5.9082 100.684 4.05273L100.732-11.7188L115.527-3.125C117.236-2.19727 118.799-2.58789 119.629-4.05273C120.459-5.56641 119.922-7.17773 118.408-8.05664L103.564-16.6016L117.285-24.6582C118.848-25.5859 119.482-27.0508 118.604-28.4668C117.676-29.834 116.26-30.1758 114.648-29.248L98.1445-19.7266L89.0137-25L69.4824-35.2051L89.0625-45.3613L98.291-50.8301L114.551-41.3086C116.162-40.3809 117.822-40.7227 118.652-42.041C119.482-43.5059 118.799-44.9219 117.236-45.8984L103.613-53.8574L118.457-62.3535C120.068-63.2812 120.508-64.8926 119.678-66.4551C118.848-67.8711 117.188-68.3105 115.576-67.2852L100.732-58.6914L100.635-74.6582C100.635-76.5137 99.707-77.6855 97.9492-77.6367C96.4355-77.6367 95.3613-76.4648 95.4102-74.6582L95.4102-55.6641L86.1816-50.3418L67.627-39.0137L68.5059-60.5957L68.5059-71.3379L84.9121-80.6641C86.5234-81.5918 86.9629-83.1543 86.2305-84.4727C85.3027-85.9863 83.7402-86.1816 82.1777-85.3027L68.5059-77.3926L68.5059-94.5312C68.5059-96.3867 67.4316-97.6562 65.6738-97.6562C63.9648-97.6562 62.8418-96.3867 62.8418-94.5312L62.8418-77.3438L48.9746-85.3027C47.4121-86.1816 45.9473-85.9863 45.0195-84.4727C44.3359-83.1543 44.8242-81.6406 46.3867-80.7129L62.8418-71.2891L62.8418-60.5957L63.7695-38.9648L45.166-50.3418L35.8887-55.6641L35.9375-74.6582C35.9375-76.4648 34.9121-77.6367 33.3496-77.6367C31.543-77.6367 30.7129-76.4648 30.7129-74.6582L30.6152-58.6914L15.7715-67.2852C14.1602-68.2129 12.5-67.8711 11.6699-66.4551C10.791-64.8926 11.2793-63.2812 12.8906-62.3535L27.7344-53.8574L14.0625-45.8984C12.4512-44.9219 11.8652-43.6035 12.6953-41.9922C13.4766-40.6738 15.1367-40.3809 16.8457-41.3086L33.0566-50.7812L42.2852-45.3613L61.8164-35.2051L42.334-25L33.0566-19.6777L16.6992-29.248C15.0879-30.1758 13.5742-29.834 12.793-28.5156C11.9141-26.8555 12.4512-25.5859 14.0137-24.6582L27.7832-16.6016L12.9395-8.05664C11.3281-7.12891 10.791-5.51758 11.6699-4.10156C12.5977-2.53906 14.209-2.19727 15.7715-3.125L30.6152-11.6699L30.6641 4.05273C30.6641 5.9082 31.543 7.22656 33.3008 7.22656C34.8145 7.22656 35.9375 5.95703 35.9375 4.05273L35.8887-14.7949L45.166-20.0684L63.7695-31.3965L62.8418-9.91211L62.8418 0.732422L46.3867 10.2051C44.8242 11.084 44.3359 12.5977 45.0195 13.9648C45.9473 15.4297 47.4121 15.625 48.9746 14.7461L62.8418 6.78711L62.8418 23.9746C62.8418 25.8789 63.9648 27.0996 65.6738 27.0996Z"/>
  </g>
  <g id="Thin-L" transform="matrix(1 0 0 1 791.798 1556)">
   <path d="M64.5996 26.123C65.625 26.123 66.3086 25.3418 66.3086 24.1211L66.3086 4.39453L82.0312 13.623C83.1055 14.1602 84.0332 14.0137 84.6191 13.1348C85.1074 12.2559 84.8145 11.377 83.7891 10.791L66.3086 0.78125L66.3086-12.0117L65.7227-32.6172L83.9355-22.1191L94.9707-15.8691L94.9219 4.29688C94.9219 5.51758 95.6055 6.29883 96.582 6.29883C97.5586 6.29883 98.1445 5.51758 98.1445 4.29688L98.1445-13.916L115.186-4.05273C116.309-3.4668 117.236-3.71094 117.676-4.58984C118.164-5.46875 117.822-6.34766 116.846-6.93359L99.7559-16.748L115.723-26.123C116.748-26.709 117.09-27.5879 116.504-28.3691C115.869-29.248 115.186-29.4434 114.16-28.8574L96.3867-18.75L85.498-25L66.6992-35.2051L85.5957-45.3125L96.6309-51.8066L114.014-41.6992C115.039-41.1133 116.016-41.3086 116.602-42.1387C117.09-42.9688 116.699-43.8477 115.674-44.4824L99.8535-53.6621L116.943-63.4766C117.969-64.0137 118.262-64.9902 117.773-65.9668C117.285-66.748 116.211-66.9922 115.234-66.3086L98.1445-56.3965L98.0469-74.9023C98.0469-76.123 97.5098-76.7578 96.4355-76.709C95.459-76.709 94.9219-76.0742 94.9219-74.9023L94.873-54.541L83.9355-48.2422L65.7227-37.6953L66.3086-58.4961L66.3086-71.2891L83.7891-81.3477C84.8145-81.9336 85.1074-82.8125 84.6191-83.6426C84.0332-84.5703 83.1055-84.7168 82.0312-84.1309L66.3086-74.9512L66.3086-94.6777C66.3086-95.8984 65.625-96.6309 64.5996-96.6309C63.623-96.6309 62.9883-95.8984 62.9883-94.6777L62.9883-74.8535L46.875-84.1309C45.8984-84.7168 45.1172-84.5703 44.5312-83.6426C44.1406-82.8125 44.4336-81.9824 45.3613-81.3965L62.9883-71.2402L62.9883-58.4961L63.5742-37.6465L45.3125-48.2422L34.2773-54.541L34.2773-74.9023C34.2773-76.0742 33.7402-76.709 32.7148-76.709C31.6406-76.709 31.1523-76.0742 31.1523-74.9023L31.1035-56.3965L14.0625-66.3086C12.9395-66.8945 11.9629-66.748 11.4746-65.9668C10.9863-64.9902 11.2793-64.0137 12.3047-63.4766L29.3945-53.6621L13.5742-44.4824C12.4512-43.8477 12.1582-43.0664 12.6465-42.0898C13.1836-41.2109 14.1602-41.1133 15.2832-41.6992L32.6172-51.8066L43.6523-45.3125L62.5488-35.2051L43.7012-25L32.666-18.6523L15.0879-28.8574C14.0137-29.4434 13.2812-29.248 12.7441-28.4668C12.207-27.3926 12.4512-26.709 13.4766-26.123L29.4922-16.748L12.3535-6.93359C11.3281-6.29883 10.9863-5.37109 11.4746-4.63867C12.0605-3.66211 13.0371-3.4668 14.0625-4.05273L31.1035-13.916L31.1035 4.29688C31.1035 5.51758 31.6406 6.29883 32.666 6.29883C33.5938 6.29883 34.2773 5.51758 34.2773 4.29688L34.2773-15.8691L45.3125-22.1191L63.5742-32.666L62.9883-12.0117L62.9883 0.683594L45.3613 10.8887C44.4336 11.4258 44.1406 12.2559 44.5312 13.1348C45.1172 14.0137 45.8984 14.1602 46.875 13.623L62.9883 4.29688L62.9883 24.1211C62.9883 25.3418 63.623 26.123 64.5996 26.123Z"/>
  </g>
  <g id="Ultralight-L" transform="matrix(1 0 0 1 495.624 1556)">
   <path d="M64.0625 25.5859C64.6973 25.5859 65.1367 25.0977 65.1367 24.2188L65.1367 3.125L81.9824 13.0371C82.7637 13.4277 83.3984 13.2812 83.7891 12.6953C84.1309 12.1094 83.9355 11.5234 83.2031 11.1328L65.1367 0.732422L65.1367-13.1348L64.7461-33.252L82.7637-23.1445L94.6777-16.4062L94.6777 4.44336C94.7266 5.32227 95.166 5.85938 95.8008 5.85938C96.4355 5.85938 96.8262 5.32227 96.8262 4.44336L96.8262-15.0879L114.99-4.54102C115.82-4.15039 116.455-4.24805 116.699-4.83398C116.992-5.41992 116.748-5.95703 116.064-6.34766L97.8027-16.7969L114.941-26.8555C115.674-27.2461 115.869-27.832 115.43-28.3203C114.941-28.9551 114.648-29.0527 113.916-28.6621L95.5078-18.2129L83.7402-24.9512L65.2344-35.2051L83.8379-45.3125L95.752-52.3438L113.721-41.8945C114.502-41.5039 115.137-41.6016 115.527-42.1875C115.869-42.6758 115.576-43.2617 114.844-43.75L97.9004-53.5645L116.162-64.0137C116.895-64.4043 117.09-65.0391 116.797-65.7227C116.455-66.2109 115.723-66.3086 115.088-65.8203L96.8262-55.2246L96.7773-75.0488C96.7773-75.9277 96.3379-76.3184 95.6543-76.2207C94.9707-76.2207 94.7266-75.8789 94.6777-75.0488L94.5801-53.9551L82.7637-47.1191L64.7461-37.0117L65.1367-57.4219L65.1367-71.2891L83.2031-81.6895C83.9355-82.0801 84.1309-82.6172 83.7891-83.252C83.3984-83.7891 82.7637-83.9844 81.9824-83.5449L65.1367-73.6816L65.1367-94.7266C65.1367-95.6055 64.6973-96.1426 64.0625-96.1426C63.4277-96.1426 63.0859-95.6055 63.0859-94.7266L63.0859-73.584L45.8008-83.5449C45.166-83.9844 44.6777-83.7891 44.2871-83.252C44.043-82.6172 44.2383-82.1777 44.873-81.7383L63.0859-71.1914L63.0859-57.4219L63.4766-36.9629L45.4102-47.1191L33.4473-53.9551L33.4473-75.0488C33.4473-75.8789 33.1543-76.2207 32.4219-76.2207C31.6895-76.2207 31.3965-75.8789 31.3965-75.0488L31.2988-55.2246L13.1836-65.8203C12.3047-66.2109 11.6699-66.2109 11.377-65.7227C11.084-65.0391 11.2305-64.4043 12.0117-64.0137L30.2246-53.5645L13.2812-43.75C12.4512-43.2617 12.3047-42.7734 12.5977-42.1387C13.0371-41.5039 13.6719-41.5039 14.502-41.8945L32.373-52.3438L44.3359-45.3125L62.8906-35.2051L44.3848-24.9512L32.4707-18.1152L14.2578-28.6621C13.4766-29.0527 13.1348-28.9551 12.6953-28.418C12.3535-27.6855 12.4512-27.2461 13.2324-26.8555L30.3223-16.7969L12.0605-6.34766C11.3281-5.85938 11.084-5.32227 11.377-4.93164C11.7676-4.24805 12.4023-4.15039 13.1836-4.54102L31.2988-15.0879L31.2988 4.44336C31.2988 5.32227 31.6895 5.85938 32.3242 5.85938C33.0078 5.85938 33.4473 5.32227 33.4473 4.44336L33.4473-16.4062L45.4102-23.1445L63.4766-33.3496L63.0859-13.1348L63.0859 0.683594L44.873 11.2305C44.2383 11.6211 44.043 12.1094 44.2871 12.6953C44.6777 13.2812 45.166 13.4277 45.8008 13.0371L63.0859 3.02734L63.0859 24.2188C63.0859 25.0977 63.4277 25.5859 64.0625 25.5859Z"/>
  </g>
  <g id="Black-M" transform="matrix(1 0 0 1 2877.42 1126)">
   <path d="M56.0059 18.3105C59.8145 18.3105 62.3535 15.5762 62.3535 11.5723L62.3535 4.19922L64.8926 6.83594C67.4805 9.42383 70.9473 9.52148 73.1445 6.73828C75 4.24805 74.8535 0.976562 71.8262-1.02539L62.3535-7.27539L62.3535-12.5977L60.9375-26.4648L72.4609-18.3105L76.9531-15.7227L77.6367-4.44336C77.9297-0.830078 80.6641 0.927734 83.7891 0.488281C87.2559 0.0488281 88.916-2.97852 88.0371-6.44531L87.0117-9.91211L93.3594-6.29883C96.8262-4.24805 100.488-5.12695 102.295-8.49609C104.102-11.7676 103.125-15.3809 99.707-17.334L93.4082-21.0449L96.9238-21.9238C100.342-22.8027 102.246-25.7812 100.83-29.1504C99.6582-31.9336 96.7773-33.3984 93.5059-31.8359L83.3496-26.8555L78.8086-29.4434L66.0645-35.2539L78.8086-41.0645L83.3496-43.7012L93.5059-38.623C96.7773-36.9629 99.6582-38.5742 100.928-41.4551C102.295-44.6777 100.391-47.6562 96.9238-48.584L93.4082-49.4629L99.707-53.1738C103.174-55.1758 104.199-58.6914 102.344-61.9629C100.488-65.2344 96.7773-66.2109 93.3594-64.2578L87.0117-60.5957L88.0371-64.0137C88.9648-67.5293 87.2559-70.6055 83.7402-70.9961C80.7617-71.3867 77.9297-69.6289 77.6367-66.0645L76.9531-54.6875L72.4609-52.0508L60.9375-43.9453L62.3535-57.959L62.3535-63.2324L71.8262-69.4824C74.8535-71.4844 74.9512-74.7559 73.1445-77.2461C70.9961-80.0293 67.4805-79.9316 64.8926-77.3438L62.3535-74.707L62.3535-82.0801C62.3535-86.1328 59.8145-88.8184 56.0059-88.8184C52.1973-88.8184 49.6094-86.0352 49.6094-82.0801L49.6094-74.707L47.0703-77.3438C44.4824-79.9316 41.0156-80.0293 38.8184-77.2461C36.9629-74.7559 37.1094-71.4844 40.1367-69.4824L49.6094-63.2324L49.6094-57.959L51.0254-43.8965L39.502-52.0508L35.0098-54.7363L34.3262-66.0645C34.0332-69.6289 31.2012-71.3867 28.2227-70.9961C24.707-70.6055 23.0469-67.4805 23.9258-64.0625L24.9512-60.5957L18.6035-64.2578C15.1855-66.2109 11.4746-65.2344 9.61914-61.9629C7.76367-58.6914 8.78906-55.127 12.1582-53.1738L18.5547-49.4629L15.0391-48.584C11.5723-47.6562 9.76562-44.5801 11.1328-41.4062C12.3535-38.5742 15.1855-36.9629 18.457-38.623L28.5156-43.7012L33.1543-41.0645L45.8984-35.2539L33.1543-29.4434L28.6133-26.8555L18.457-31.9336C15.1855-33.5449 12.3047-31.9336 11.0352-29.0527C9.66797-25.8789 11.5723-22.8516 15.0391-21.9238L18.5547-21.0449L12.2559-17.334C8.83789-15.3809 7.71484-11.7676 9.61914-8.49609C11.4746-5.12695 15.1367-4.24805 18.6035-6.29883L24.9512-9.91211L23.9258-6.49414C22.998-2.97852 24.707 0.0976562 28.2227 0.488281C31.2988 0.878906 34.0332-0.878906 34.3262-4.44336L35.0098-15.8203L39.502-18.457L51.0254-26.5625L49.6094-12.5977L49.6094-7.27539L40.1367-1.02539C37.1094 0.976562 37.0117 4.24805 38.8184 6.73828C40.9668 9.52148 44.4824 9.42383 47.0703 6.83594L49.6094 4.19922L49.6094 11.5723C49.6094 15.5273 52.1973 18.3105 56.0059 18.3105Z"/>
  </g>
  <g id="Heavy-M" transform="matrix(1 0 0 1 2581.66 1126)">
   <path d="M55.0293 17.334C58.4473 17.334 60.6934 14.8926 60.6934 11.3281L60.6934 3.17383L64.6484 6.34766C67.041 8.54492 70.1172 8.54492 72.0215 6.05469C73.6816 3.75977 73.4375 0.830078 70.6543-0.976562L60.6934-7.27539L60.6934-12.793L59.375-27.4902L71.6797-19.043L76.3672-16.3086L76.9043-4.58984C77.0508-1.31836 79.4922 0.390625 82.2754 0.0488281C85.4492-0.292969 86.9629-2.97852 86.2793-6.10352L85.498-11.084L92.5781-7.03125C95.6543-5.22461 98.877-6.00586 100.488-8.98438C102.1-11.9141 101.221-15.1367 98.1934-16.8457L91.2109-20.9473L95.8984-22.8027C98.877-23.6816 100.537-26.416 99.2188-29.3457C98.0957-31.8848 95.459-33.1055 92.5293-31.6406L82.0801-26.2207L77.3438-28.9551L63.8672-35.2539L77.3438-41.5527L82.0801-44.2871L92.5293-38.8184C95.459-37.3535 98.0957-38.623 99.2676-41.2109C100.586-44.0918 98.9258-46.7773 95.8984-47.7539L91.2109-49.5605L98.1934-53.6621C101.27-55.4199 102.197-58.5449 100.537-61.5234C98.877-64.4043 95.6055-65.2344 92.5781-63.4766L85.498-59.4727L86.2793-64.3555C87.0117-67.5293 85.4492-70.2637 82.2754-70.5566C79.541-70.8496 77.0508-69.1895 76.9043-65.918L76.3672-54.1016L71.6797-51.3672L59.375-42.9199L60.6934-57.7148L60.6934-63.2324L70.6543-69.5312C73.4375-71.3379 73.6328-74.2676 72.0215-76.5625C70.166-79.1016 67.041-79.0527 64.6484-76.8555L60.6934-73.6816L60.6934-81.8359C60.6934-85.4004 58.4473-87.8418 55.0293-87.8418C51.6602-87.8418 49.3652-85.3516 49.3652-81.8359L49.3652-73.6816L45.4102-76.8555C43.0176-79.0527 39.9414-79.1016 38.0371-76.5625C36.377-74.2676 36.6699-71.3379 39.4043-69.5312L49.3652-63.2324L49.3652-57.7148L50.6836-42.8711L38.3789-51.3672L33.6914-54.1504L33.1543-65.918C33.0078-69.1895 30.5176-70.8496 27.7832-70.5566C24.6094-70.2637 23.0957-67.4805 23.7793-64.4043L24.5605-59.4727L17.5293-63.4766C14.502-65.2344 11.1816-64.4043 9.52148-61.5234C7.86133-58.5449 8.78906-55.3711 11.8164-53.6621L18.8477-49.5605L14.1602-47.7539C11.1328-46.7773 9.52148-44.043 10.8398-41.1621C11.9629-38.623 14.5996-37.3535 17.5293-38.8184L27.9297-44.2871L32.7148-41.5527L46.1914-35.2539L32.7148-28.9551L27.9785-26.2207L17.5293-31.6895C14.5996-33.2031 11.9629-31.8848 10.791-29.2969C9.52148-26.416 11.1328-23.7305 14.1602-22.8027L18.8477-20.9473L11.8652-16.8457C8.83789-15.1367 7.8125-11.8652 9.52148-8.98438C11.1816-6.00586 14.4531-5.22461 17.5293-7.03125L24.5605-11.0352L23.7793-6.15234C23.0469-2.97852 24.6094-0.244141 27.7832 0.0488281C30.5664 0.341797 33.0078-1.36719 33.1543-4.58984L33.6914-16.4062L38.3789-19.1406L50.6836-27.5879L49.3652-12.793L49.3652-7.27539L39.4043-0.976562C36.6699 0.830078 36.4258 3.75977 38.0371 6.05469C39.8926 8.54492 43.0176 8.54492 45.4102 6.34766L49.3652 3.17383L49.3652 11.3281C49.3652 14.8438 51.6602 17.334 55.0293 17.334Z"/>
  </g>
  <g id="Bold-M" transform="matrix(1 0 0 1 2286.02 1126)">
   <path d="M53.9551 16.2109C56.9336 16.2109 58.8379 14.1113 58.8379 11.0352L58.8379 2.05078L64.3066 5.76172C66.5039 7.56836 69.1895 7.51953 70.8008 5.22461C72.168 3.22266 71.8262 0.634766 69.3848-0.878906L58.8379-7.27539L58.8379-13.0371L57.666-28.7109L70.8008-19.873L75.7324-17.041L76.0254-4.73633C76.123-1.85547 78.2227-0.244141 80.6152-0.488281C83.3984-0.683594 84.7656-2.97852 84.3262-5.71289L83.8379-12.3535L91.6504-7.86133C94.2871-6.29883 97.0703-6.98242 98.4863-9.52148C99.9023-12.0605 99.1211-14.8438 96.5332-16.3086L88.7695-20.8496L94.7266-23.7305C97.2656-24.707 98.6328-27.0508 97.4121-29.5898C96.3379-31.7871 93.9453-32.7148 91.4062-31.3965L80.6152-25.5371L75.6348-28.3691L61.377-35.2539L75.6348-42.0898L80.6152-44.9707L91.4062-39.0625C93.9453-37.7441 96.3867-38.7207 97.4609-40.918C98.6328-43.4082 97.3145-45.8008 94.7266-46.7773L88.7695-49.6582L96.5332-54.1992C99.1699-55.7129 99.9512-58.3984 98.5352-60.9863C97.0703-63.4766 94.2871-64.209 91.6504-62.6465L83.8379-58.2031L84.3262-64.7461C84.7656-67.5781 83.3984-69.873 80.6152-70.0195C78.2227-70.2148 76.123-68.6523 76.0254-65.7715L75.7324-53.4668L70.8008-50.5859L57.666-41.748L58.8379-57.4707L58.8379-63.2324L69.3848-69.6289C71.8262-71.1426 72.1191-73.7305 70.8008-75.7812C69.1895-78.0273 66.5039-78.0762 64.3066-76.2695L58.8379-72.5586L58.8379-81.543C58.8379-84.6191 56.9336-86.7188 53.9551-86.7188C51.0742-86.7188 49.0723-84.6191 49.0723-81.543L49.0723-72.5586L43.5547-76.2695C41.3574-78.0762 38.7695-78.0273 37.1094-75.7812C35.7422-73.7305 36.1328-71.1914 38.5254-69.6289L49.0723-63.2324L49.0723-57.4707L50.293-41.6992L37.1582-50.5859L32.2266-53.4668L31.8848-65.7715C31.7871-68.6523 29.7363-70.2148 27.3438-70.0195C24.5117-69.8242 23.1934-67.5293 23.6328-64.7949L24.1211-58.2031L16.3086-62.6465C13.7207-64.1602 10.8398-63.4766 9.42383-60.9863C7.95898-58.3984 8.78906-55.6641 11.377-54.1992L19.1895-49.6582L13.2324-46.7773C10.5957-45.8008 9.32617-43.457 10.498-40.918C11.5723-38.7207 13.9648-37.7441 16.5039-39.0625L27.2949-44.9707L32.2754-42.0898L46.5332-35.2539L32.2754-28.3691L27.2949-25.5371L16.5039-31.4453C13.9648-32.8125 11.5723-31.7871 10.498-29.5898C9.32617-27.0508 10.5957-24.7559 13.2324-23.7305L19.1895-20.8496L11.4258-16.3086C8.78906-14.8438 7.95898-12.0117 9.42383-9.52148C10.8887-6.93359 13.6719-6.29883 16.3086-7.86133L24.1211-12.3047L23.6328-5.76172C23.1445-2.97852 24.5117-0.683594 27.2949-0.488281C29.7363-0.292969 31.7871-1.9043 31.8848-4.73633L32.2266-17.0898L37.1582-19.9219L50.293-28.7598L49.0723-13.0371L49.0723-7.27539L38.5254-0.878906C36.1328 0.634766 35.791 3.22266 37.1094 5.22461C38.7207 7.51953 41.3574 7.56836 43.5547 5.76172L49.0723 2.05078L49.0723 11.0352C49.0723 14.0625 51.0742 16.2109 53.9551 16.2109Z"/>
  </g>
  <g id="Semibold-M" transform="matrix(1 0 0 1 1990.04 1126)">
   <path d="M53.2227 15.4297C55.9082 15.4297 57.5684 13.5742 57.5684 10.8398L57.5684 1.26953L64.1113 5.37109C66.1621 6.88477 68.5059 6.78711 69.9707 4.6875C71.1426 2.83203 70.7031 0.537109 68.5059-0.830078L57.5684-7.27539L57.5684-13.1836L56.4453-29.541L70.166-20.459L75.293-17.4805L75.4395-4.83398C75.4883-2.24609 77.2949-0.683594 79.4434-0.830078C81.9824-0.976562 83.252-2.97852 82.959-5.46875L82.666-13.2324L91.0156-8.39844C93.4082-7.03125 95.8008-7.61719 97.0703-9.91211C98.3398-12.1582 97.6562-14.6484 95.3613-15.9668L87.0605-20.752L93.8965-24.4141C96.1914-25.4395 97.3145-27.5391 96.1914-29.7363C95.166-31.7383 92.9199-32.4707 90.6738-31.25L79.5898-25.0488L74.5117-28.0273L59.668-35.2539L74.5117-42.4805L79.5898-45.459L90.6738-39.2578C92.9199-37.9883 95.2148-38.7695 96.1914-40.7715C97.3145-42.9688 96.1914-45.0684 93.8965-46.0938L87.0605-49.7559L95.3613-54.541C97.7051-55.9082 98.3887-58.3008 97.1191-60.5957C95.8496-62.8418 93.3594-63.4766 91.0156-62.1094L82.666-57.3242L82.959-65.0391C83.252-67.5781 81.9824-69.5801 79.4922-69.6777C77.2949-69.8242 75.4883-68.2617 75.4395-65.6738L75.2441-52.9785L70.166-50.0488L56.4453-40.918L57.5684-57.3242L57.5684-63.2324L68.5059-69.6777C70.7031-71.0449 71.0938-73.3398 69.9707-75.1953C68.5547-77.2949 66.1621-77.3926 64.1113-75.8789L57.5684-71.7773L57.5684-81.3477C57.5684-84.082 55.9082-85.9375 53.2227-85.9375C50.6348-85.9375 48.877-84.082 48.877-81.3477L48.877-71.7773L42.2852-75.8789C40.2344-77.3926 37.9395-77.2949 36.5234-75.1953C35.3027-73.3398 35.7422-71.0449 37.9883-69.6777L48.877-63.2324L48.877-57.3242L50.0488-40.918L36.2793-50.0488L31.2012-53.0273L31.0059-65.6738C30.957-68.2617 29.1504-69.8242 27.002-69.6777C24.4629-69.5801 23.2422-67.5293 23.5352-65.0391L23.7793-57.3242L15.4297-62.1094C13.1836-63.4277 10.6445-62.8418 9.32617-60.5957C8.00781-58.3008 8.78906-55.8594 11.084-54.541L19.3848-49.7559L12.5488-46.0938C10.2539-45.0684 9.13086-43.0176 10.2539-40.7227C11.2793-38.7695 13.5254-37.9883 15.8203-39.2578L26.8555-45.4102L31.9336-42.4805L46.7773-35.2539L31.9824-28.0273L26.8555-25.0488L15.7715-31.2988C13.5254-32.5195 11.2793-31.7383 10.3027-29.7852C9.17969-27.4414 10.2539-25.4395 12.5488-24.4141L19.4336-20.752L11.1328-15.9668C8.78906-14.6484 8.05664-12.1582 9.32617-9.91211C10.6445-7.56836 13.1348-7.03125 15.4297-8.39844L23.7793-13.1836L23.4863-5.46875C23.1934-2.97852 24.4629-0.927734 27.002-0.830078C29.1504-0.683594 30.957-2.24609 31.0059-4.83398L31.2012-17.5293L36.2793-20.459L50.0488-29.5898L48.877-13.1836L48.877-7.27539L37.9883-0.830078C35.7422 0.537109 35.3027 2.83203 36.5234 4.6875C37.8906 6.78711 40.2344 6.88477 42.2852 5.37109L48.877 1.26953L48.877 10.8398C48.877 13.5742 50.6348 15.4297 53.2227 15.4297Z"/>
  </g>
  <g id="Medium-M" transform="matrix(1 0 0 1 1693.89 1126)">
   <path d="M52.6855 14.8438C55.127 14.8438 56.5918 13.1836 56.5918 10.6934L56.5918 0.683594L63.9648 5.07812C65.918 6.34766 68.0176 6.25 69.2871 4.29688C70.3613 2.53906 69.873 0.439453 67.8223-0.78125L56.5918-7.27539L56.5918-13.3301L55.5176-30.127L69.7266-20.8496L74.9512-17.8711L75-4.93164C75-2.53906 76.6113-0.976562 78.6133-1.07422C80.957-1.17188 82.0801-2.92969 81.9336-5.27344L81.7871-13.916L90.5273-8.83789C92.6758-7.56836 94.873-8.10547 96.0449-10.1562C97.168-12.2559 96.5332-14.502 94.4824-15.6738L85.7422-20.7031L93.3105-24.9512C95.3613-25.9277 96.3379-27.8809 95.2637-29.8828C94.2383-31.6895 92.1875-32.2754 90.0879-31.1523L78.8574-24.707L73.6328-27.7344L58.3984-35.2539L73.6328-42.7734L78.8574-45.8008L90.0879-39.3555C92.1387-38.1836 94.2871-38.8184 95.2637-40.625C96.3379-42.627 95.3613-44.5801 93.2617-45.6055L85.791-49.8047L94.4824-54.834C96.6309-56.0547 97.2168-58.2031 96.0449-60.3516C94.873-62.3047 92.6758-62.9395 90.5273-61.6699L81.7871-56.6406L81.9336-65.2344C82.0801-67.5781 80.9082-69.3848 78.6133-69.4336C76.6113-69.4824 75-67.9688 75-65.625L74.9512-52.6367L69.7266-49.6582L55.5176-40.332L56.5918-57.1777L56.5918-63.2324L67.8223-69.7266C69.873-70.9473 70.3125-73.0957 69.2871-74.8047C68.0664-76.7578 65.918-76.9043 63.9648-75.5859L56.5918-71.1914L56.5918-81.2012C56.5918-83.6914 55.127-85.4004 52.6855-85.4004C50.3418-85.4004 48.7305-83.6914 48.7305-81.2012L48.7305-71.1914L41.3086-75.5859C39.3555-76.9043 37.3047-76.7578 36.0352-74.8047C34.9609-73.0957 35.4492-70.9473 37.5488-69.7266L48.7305-63.2324L48.7305-57.1777L49.8047-40.2832L35.6445-49.6582L30.4199-52.6855L30.3711-65.625C30.3711-67.9688 28.7598-69.4824 26.7578-69.4336C24.4141-69.3359 23.2422-67.5781 23.4375-65.2344L23.5352-56.6406L14.7949-61.6699C12.7441-62.8906 10.4492-62.3047 9.27734-60.3516C8.05664-58.2031 8.78906-56.0059 10.8398-54.834L19.5801-49.8047L12.0605-45.6055C10.0098-44.5801 9.0332-42.7246 10.1074-40.5762C11.0352-38.8184 13.1836-38.1836 15.2832-39.3555L26.5137-45.8008L31.6895-42.7734L46.9727-35.2539L31.7383-27.7344L26.4648-24.707L15.2344-31.1523C13.1836-32.3242 11.084-31.6895 10.1562-29.9316C9.08203-27.7832 10.0098-25.9766 12.0605-24.9512L19.5801-20.7031L10.8887-15.6738C8.78906-14.502 8.10547-12.207 9.27734-10.2051C10.498-8.05664 12.7441-7.61719 14.7949-8.83789L23.5352-13.8184L23.3887-5.27344C23.2422-2.92969 24.4141-1.12305 26.7578-1.07422C28.7598-1.02539 30.3711-2.53906 30.3711-4.93164L30.4688-17.8711L35.6445-20.8496L49.8047-30.1758L48.7305-13.3301L48.7305-7.27539L37.5488-0.78125C35.4492 0.439453 34.9609 2.53906 36.0352 4.29688C37.3047 6.25 39.3555 6.34766 41.3086 5.07812L48.7305 0.634766L48.7305 10.6934C48.7305 13.1348 50.3418 14.8438 52.6855 14.8438Z"/>
  </g>
  <g id="Regular-M" transform="matrix(1 0 0 1 1397.89 1126)">
   <path d="M51.9531 14.1113C54.1016 14.1113 55.3711 12.6465 55.3711 10.498L55.3711-0.0976562L63.7695 4.6875C65.5762 5.66406 67.4316 5.51758 68.457 3.71094C69.3359 2.19727 68.7988 0.292969 66.9434-0.732422L55.3711-7.27539L55.3711-13.4766L54.3457-30.957L69.0918-21.4355L74.5117-18.3105L74.4141-5.0293C74.3652-2.88086 75.7324-1.41602 77.4414-1.41602C79.541-1.41602 80.6152-2.92969 80.6152-5.0293L80.6641-14.7949L89.8926-9.42383C91.7969-8.30078 93.6035-8.78906 94.6289-10.5469C95.6543-12.4023 95.1172-14.3066 93.3105-15.332L84.082-20.6543L92.4805-25.5859C94.2383-26.6602 95.0195-28.3203 93.9941-30.0293C93.0176-31.6406 91.1621-32.0312 89.3555-31.0059L77.8809-24.2188L72.4609-27.3438L56.6895-35.2539L72.5098-43.1641L77.832-46.2891L89.3066-39.5508C91.1133-38.4766 93.1152-38.8672 94.043-40.4297C95.0195-42.1875 94.2383-43.8965 92.4805-44.9707L84.082-49.8535L93.3105-55.1758C95.166-56.25 95.7031-58.0566 94.6777-59.9609C93.6523-61.6699 91.748-62.207 89.9414-61.084L80.6641-55.8105L80.5664-65.5273C80.5664-67.5781 79.541-69.0918 77.4902-69.0918C75.6836-69.0918 74.3652-67.627 74.4141-65.5273L74.4629-52.1973L69.0918-49.1211L54.3457-39.502L55.3711-57.0312L55.3711-63.2324L66.9434-69.7754C68.7988-70.8496 69.3359-72.7051 68.457-74.2676C67.4316-76.0254 65.5762-76.2207 63.7695-75.1953L55.3711-70.4102L55.3711-81.0059C55.3711-83.1543 54.1016-84.6191 51.9531-84.6191C49.9023-84.6191 48.584-83.1543 48.584-81.0059L48.584-70.4102L40.0391-75.1953C38.2324-76.2207 36.4746-76.0254 35.4004-74.2676C34.5215-72.7051 35.1074-70.8496 36.9629-69.7754L48.584-63.2324L48.584-57.0312L49.5605-39.502L34.8145-49.1211L29.3945-52.1973L29.4922-65.5273C29.541-67.627 28.2227-69.0918 26.4648-69.0918C24.3652-69.0918 23.291-67.5781 23.291-65.5273L23.2422-55.8105L13.9648-61.084C12.207-62.1582 10.2051-61.6699 9.22852-59.9609C8.1543-58.0566 8.74023-56.2012 10.5957-55.1758L19.7754-49.8535L11.4258-44.9707C9.66797-43.8965 8.88672-42.2852 9.86328-40.4297C10.7422-38.8672 12.7441-38.4766 14.5996-39.5508L26.0254-46.2402L31.3965-43.1641L47.168-35.2539L31.3965-27.3438L26.0254-24.2188L14.5508-31.0059C12.7441-32.0312 10.791-31.6406 9.96094-30.127C8.93555-28.2227 9.66797-26.6602 11.4258-25.5859L19.8242-20.6543L10.5957-15.332C8.78906-14.3066 8.20312-12.3047 9.22852-10.5469C10.3027-8.74023 12.207-8.34961 13.9648-9.42383L23.2422-14.6973L23.291-5.0293C23.291-2.92969 24.3652-1.41602 26.416-1.41602C28.1738-1.41602 29.541-2.88086 29.4922-5.0293L29.4434-18.3105L34.8145-21.3867L49.5605-30.957L48.584-13.4766L48.584-7.32422L36.9629-0.732422C35.1074 0.341797 34.5215 2.19727 35.4004 3.71094C36.4746 5.51758 38.2324 5.66406 40.0391 4.6875L48.584-0.0976562L48.584 10.498C48.584 12.6465 49.9023 14.1113 51.9531 14.1113Z"/>
  </g>
  <g id="Light-M" transform="matrix(1 0 0 1 1101.91 1126)">
   <path d="M51.2207 13.4277C52.8809 13.4277 53.8574 12.3047 53.8574 10.5957L53.8574-1.75781L63.6719 3.90625C65.1367 4.6875 66.5527 4.54102 67.3828 3.17383C68.0176 1.95312 67.627 0.537109 66.1621-0.292969L53.8574-7.32422L53.8574-14.8926L53.0273-31.7871L67.5781-22.8027L74.1699-19.043L74.0723-4.83398C74.0723-3.17383 75.0977-2.05078 76.4648-2.05078C78.0762-2.05078 78.8574-3.22266 78.8574-4.83398L78.9062-16.2598L89.6484-10.0586C91.1621-9.17969 92.5781-9.52148 93.3594-10.8887C94.0918-12.3047 93.6523-13.7695 92.2852-14.5508L81.543-20.752L91.4062-26.5625C92.8223-27.3926 93.4082-28.7109 92.5781-29.9805C91.7969-31.25 90.4297-31.543 89.0137-30.7129L76.6602-23.5352L70.1172-27.2949L54.7852-35.2539L70.166-43.1152L76.709-46.9727L88.9648-39.7949C90.3809-38.9648 91.8945-39.3066 92.627-40.4785C93.4082-41.8457 92.7734-43.1152 91.4062-43.9941L81.543-49.707L92.2852-55.9082C93.75-56.7383 94.1895-58.1543 93.3594-59.6191C92.627-60.9375 91.1133-61.3281 89.6973-60.4004L78.9062-54.1992L78.8574-65.6738C78.8574-67.334 78.0273-68.457 76.416-68.4082C75.0488-68.4082 74.0723-67.334 74.0723-65.6738L74.1211-51.4648L67.5781-47.6562L53.0273-38.623L53.8574-55.6152L53.8574-63.2324L66.1621-70.2148C67.627-71.0449 68.0176-72.4609 67.3828-73.6816C66.5527-75.0488 65.1367-75.1953 63.6719-74.4141L53.8574-68.75L53.8574-81.1035C53.8574-82.8125 52.8809-83.9355 51.2207-83.9355C49.6582-83.9355 48.6816-82.8125 48.6816-81.1035L48.6816-68.7012L38.623-74.4141C37.207-75.1953 35.8887-75.0488 35.0586-73.6816C34.4238-72.4609 34.8633-71.0938 36.2793-70.2637L48.6816-63.1836L48.6816-55.6152L49.4629-38.5742L34.9121-47.6562L28.3203-51.4648L28.3691-65.6738C28.418-67.334 27.4414-68.4082 26.0254-68.4082C24.4141-68.4082 23.6328-67.334 23.6328-65.6738L23.5352-54.1992L12.793-60.4004C11.377-61.2305 9.86328-60.9375 9.08203-59.6191C8.25195-58.1543 8.74023-56.6895 10.1562-55.9082L20.8984-49.707L11.084-43.9941C9.66797-43.1152 9.08203-41.9434 9.86328-40.4785C10.5469-39.2578 12.0605-38.9648 13.5742-39.7949L25.7324-46.9238L32.3242-43.1152L47.6562-35.2539L32.3242-27.2949L25.7324-23.5352L13.4766-30.7129C12.0117-31.543 10.5957-31.25 9.91211-30.0781C9.13086-28.5645 9.66797-27.3926 11.0352-26.5625L20.9473-20.752L10.2051-14.5508C8.78906-13.7207 8.30078-12.2559 9.08203-10.9375C9.91211-9.52148 11.4258-9.22852 12.793-10.0586L23.5352-16.2109L23.584-4.83398C23.584-3.22266 24.4141-2.05078 26.0254-2.05078C27.3926-2.05078 28.418-3.17383 28.3691-4.83398L28.3691-19.043L34.9121-22.7539L49.4629-31.8359L48.6816-14.8926L48.6816-7.32422L36.2793-0.244141C34.8633 0.537109 34.4238 1.95312 35.0586 3.17383C35.8887 4.54102 37.207 4.6875 38.623 3.90625L48.6816-1.80664L48.6816 10.5957C48.6816 12.3047 49.6582 13.4277 51.2207 13.4277Z"/>
  </g>
  <g id="Thin-M" transform="matrix(1 0 0 1 806.129 1126)">
   <path d="M50.293 12.5488C51.2207 12.5488 51.8555 11.8164 51.8555 10.7422L51.8555-4.00391L63.623 2.88086C64.502 3.36914 65.3809 3.22266 65.918 2.44141C66.3574 1.66016 66.0645 0.830078 65.1367 0.292969L51.8555-7.32422L51.8555-16.7969L51.3184-32.9102L65.5273-24.6094L73.6816-19.9707L73.6816-4.63867C73.6328-3.56445 74.2676-2.83203 75.1465-2.83203C76.0742-2.83203 76.6113-3.56445 76.6113-4.63867L76.6113-18.2617L89.3066-10.8887C90.332-10.3516 91.2109-10.5469 91.6016-11.377C92.041-12.207 91.748-13.0371 90.8691-13.5254L78.125-20.8496L90.0391-27.8809C90.918-28.3691 91.2598-29.1992 90.7227-29.9316C90.1855-30.7129 89.502-30.9082 88.5742-30.3711L75.0977-22.6562L67.041-27.2949L52.2949-35.2051L67.0898-43.0664L75.2441-47.8516L88.4766-40.1367C89.4043-39.6484 90.2832-39.7949 90.7715-40.5762C91.2598-41.3574 90.8691-42.1387 89.9902-42.7246L78.1738-49.5605L90.918-56.8848C91.8457-57.373 92.1387-58.252 91.6504-59.1797C91.2109-59.9121 90.2832-60.1074 89.4043-59.5215L76.6113-52.1484L76.5625-65.918C76.5625-66.9922 76.0254-67.627 75.0488-67.5781C74.1699-67.5781 73.6328-66.9922 73.6816-65.918L73.6328-50.4395L65.5273-45.752L51.3184-37.4512L51.8555-53.7109L51.8555-63.1836L65.1367-70.8008C66.0645-71.3379 66.3574-72.168 65.918-72.9492C65.3809-73.7793 64.502-73.877 63.623-73.3887L51.8555-66.5527L51.8555-81.25C51.8555-82.3242 51.2207-83.0566 50.293-83.0566C49.3652-83.0566 48.7793-82.3242 48.7793-81.25L48.7793-66.4551L36.7676-73.3887C35.8887-73.877 35.1074-73.7793 34.6191-72.9492C34.2285-72.168 34.4727-71.3867 35.3516-70.8496L48.7793-63.1348L48.7793-53.7109L49.3164-37.4023L35.0586-45.752L26.9043-50.4395L26.9043-65.918C26.9043-66.9922 26.416-67.5781 25.4883-67.5781C24.5117-67.5781 24.0234-66.9434 24.0234-65.918L23.9746-52.1484L11.2305-59.5215C10.3027-60.0586 9.375-59.9121 8.93555-59.1797C8.44727-58.252 8.74023-57.373 9.66797-56.8848L22.4121-49.5605L10.5957-42.7246C9.66797-42.1387 9.32617-41.4062 9.81445-40.5273C10.2539-39.7461 11.1816-39.6484 12.1582-40.1367L25.3418-47.8516L33.4961-43.0664L48.291-35.2051L33.5449-27.2949L25.3906-22.6074L12.0117-30.3711C11.084-30.9082 10.3516-30.7129 9.86328-29.9805C9.42383-29.0527 9.66797-28.3691 10.5469-27.8809L22.4609-20.8496L9.7168-13.5254C8.78906-12.9883 8.44727-12.1094 8.93555-11.4258C9.42383-10.5469 10.3516-10.3516 11.2305-10.8887L23.9746-18.2129L23.9746-4.63867C23.9746-3.56445 24.5117-2.83203 25.4395-2.83203C26.3184-2.83203 26.9043-3.56445 26.9043-4.63867L26.9043-19.9707L35.0586-24.6094L49.3164-32.959L48.7793-16.7969L48.7793-7.37305L35.3516 0.341797C34.4727 0.878906 34.2285 1.66016 34.6191 2.44141C35.1074 3.22266 35.8887 3.36914 36.7676 2.88086L48.7793-4.05273L48.7793 10.7422C48.7793 11.8164 49.3652 12.5488 50.293 12.5488Z"/>
  </g>
  <g id="Ultralight-M" transform="matrix(1 0 0 1 509.906 1126)">
   <path d="M49.8047 12.0605C50.3906 12.0605 50.8301 11.5723 50.8301 10.791L50.8301-5.12695L63.5742 2.34375C64.209 2.68555 64.8438 2.58789 65.1855 2.05078C65.4785 1.51367 65.2832 0.976562 64.6484 0.585938L50.8301-7.32422L50.8301-17.7734L50.4395-33.4961L64.4531-25.5371L73.4375-20.459L73.4375-4.54102C73.4375-3.75977 73.877-3.27148 74.4629-3.27148C75.0488-3.27148 75.4395-3.75977 75.4395-4.54102L75.4395-19.2871L89.1602-11.2793C89.8926-10.9375 90.4785-11.0352 90.7227-11.5723C91.0156-12.1582 90.7715-12.6465 90.1855-13.0371L76.3672-20.9473L89.3066-28.5156C89.9902-28.9062 90.1367-29.4434 89.7949-29.8828C89.3555-30.4199 89.0137-30.5664 88.3301-30.1758L74.2676-22.2168L65.4297-27.2949L50.9766-35.2051L65.4785-43.0664L74.4629-48.3398L88.2324-40.332C88.8672-39.9414 89.502-40.0879 89.8438-40.625C90.1367-41.1133 89.8926-41.6504 89.2578-42.041L76.4648-49.4629L90.2344-57.373C90.918-57.7148 91.0645-58.3008 90.7715-58.9355C90.4785-59.4238 89.8438-59.5215 89.209-59.082L75.4395-51.0742L75.3906-66.0645C75.3906-66.8457 75-67.1875 74.3652-67.1387C73.7305-67.1387 73.4375-66.7969 73.4375-66.0645L73.3887-49.9512L64.4531-44.7754L50.4395-36.8164L50.8301-52.7344L50.8301-63.1836L64.6484-71.1426C65.2832-71.4844 65.4785-72.0215 65.1855-72.5586C64.8438-73.0957 64.209-73.2422 63.5742-72.8516L50.8301-65.3809L50.8301-81.3477C50.8301-82.1289 50.3906-82.5684 49.8047-82.5684C49.2188-82.5684 48.877-82.1289 48.877-81.3477L48.877-65.332L35.791-72.8516C35.2051-73.2422 34.7168-73.0957 34.375-72.5586C34.1309-72.0215 34.3262-71.5332 34.9121-71.1914L48.877-63.1348L48.877-52.7344L49.2188-36.7676L35.1562-44.7754L26.1719-49.9512L26.1719-66.0645C26.1719-66.7969 25.8789-67.1387 25.1953-67.1387C24.5605-67.1387 24.2676-66.7969 24.2676-66.0645L24.1699-51.0742L10.4492-59.082C9.7168-59.4727 9.13086-59.4238 8.83789-58.9355C8.54492-58.3008 8.69141-57.7148 9.375-57.373L23.1934-49.4629L10.4004-42.041C9.66797-41.6504 9.47266-41.1621 9.76562-40.5762C10.1562-40.0391 10.7422-39.9414 11.4746-40.332L25.1465-48.3398L34.1309-43.0664L48.6328-35.2051L34.1797-27.2949L25.1953-22.1191L11.2793-30.1758C10.5957-30.5664 10.2051-30.4199 9.81445-29.9805C9.52148-29.2969 9.66797-28.9062 10.3027-28.5156L23.2422-20.9473L9.42383-13.0371C8.78906-12.5977 8.54492-12.0605 8.83789-11.6699C9.17969-11.0352 9.81445-10.9375 10.4492-11.2793L24.1699-19.2871L24.1699-4.54102C24.1699-3.75977 24.5605-3.27148 25.1465-3.27148C25.7324-3.27148 26.1719-3.75977 26.1719-4.54102L26.1719-20.459L35.1562-25.5371L49.2188-33.5449L48.877-17.7734L48.877-7.42188L34.9121 0.683594C34.3262 1.02539 34.1309 1.51367 34.375 2.05078C34.7168 2.58789 35.2051 2.68555 35.791 2.34375L48.877-5.17578L48.877 10.791C48.877 11.5723 49.2188 12.0605 49.8047 12.0605Z"/>
  </g>
  <g id="Black-S" transform="matrix(1 0 0 1 2889.58 696)">
   <path d="M43.7988 6.64062C46.7773 6.64062 48.7305 4.54102 48.7305 1.41602L48.7305-4.39453L50.8301-2.29492C52.832-0.292969 55.5176-0.244141 57.2266-2.39258C58.6914-4.3457 58.5449-6.88477 56.2012-8.44727L48.7305-13.3301L48.7305-17.4805L47.6562-28.418L56.7383-22.0215L60.2539-19.9707L60.791-11.1328C60.9863-8.30078 63.1348-6.93359 65.5273-7.27539C68.2617-7.61719 69.5312-9.96094 68.8477-12.6465L68.0664-15.4785L73.0957-12.5977C75.7812-11.0352 78.6133-11.7188 80.0293-14.3066C81.4453-16.8457 80.6641-19.6777 78.0273-21.1914L73.0469-24.1211L75.8789-24.8535C78.5156-25.5371 79.9805-27.8809 78.9062-30.4688C77.9785-32.666 75.7324-33.7891 73.1934-32.5684L65.2344-28.6133L61.6699-30.6641L51.6113-35.2539L61.6699-39.8438L65.2344-41.8945L73.1934-37.8906C75.7324-36.6211 77.9785-37.8418 78.9551-40.0879C80.0293-42.5781 78.5645-44.9219 75.8789-45.6543L73.0469-46.3867L78.0273-49.3164C80.7129-50.8789 81.4941-53.6133 80.0781-56.1523C78.6133-58.6914 75.7324-59.4238 73.0957-57.9102L68.0664-55.0293L68.8477-57.8125C69.5801-60.5469 68.2617-62.9395 65.5273-63.2324C63.1836-63.5254 60.9863-62.1582 60.791-59.375L60.2539-50.4395L56.7383-48.3887L47.6562-41.9922L48.7305-53.0273L48.7305-57.1777L56.2012-62.0605C58.5449-63.623 58.6426-66.1621 57.2266-68.1152C55.5664-70.2637 52.832-70.2148 50.8301-68.2129L48.7305-66.1133L48.7305-71.9238C48.7305-75.0488 46.7773-77.1484 43.7988-77.1484C40.8691-77.1484 38.8672-75 38.8672-71.9238L38.8672-66.1133L36.7676-68.2129C34.7656-70.2148 32.0801-70.2637 30.3711-68.1152C28.9062-66.1621 29.0527-63.623 31.3965-62.0605L38.8672-57.1777L38.8672-53.0273L39.9414-41.9434L30.8594-48.3887L27.3438-50.4883L26.8066-59.375C26.6113-62.1582 24.4141-63.5254 22.0703-63.2324C19.3359-62.9395 18.0664-60.498 18.75-57.8613L19.5312-55.0293L14.502-57.9102C11.8652-59.4238 8.98438-58.6914 7.51953-56.1523C6.10352-53.6133 6.88477-50.8301 9.52148-49.3164L14.5508-46.3867L11.7188-45.6543C9.0332-44.9219 7.61719-42.5293 8.69141-40.0391C9.66797-37.8418 11.8652-36.6211 14.4043-37.8906L22.3145-41.8945L25.9277-39.8438L35.9863-35.2539L25.9277-30.6641L22.3633-28.6133L14.4043-32.6172C11.8652-33.8867 9.61914-32.666 8.64258-30.4199C7.56836-27.9297 9.0332-25.5859 11.7188-24.8535L14.5508-24.1211L9.57031-21.1914C6.93359-19.6777 6.05469-16.8457 7.51953-14.3066C8.98438-11.7188 11.8164-11.0352 14.502-12.5977L19.5312-15.4785L18.75-12.6953C18.0176-9.96094 19.3359-7.56836 22.0703-7.27539C24.4629-6.98242 26.6113-8.34961 26.8066-11.1328L27.3438-20.0684L30.8594-22.1191L39.9414-28.5156L38.8672-17.4805L38.8672-13.3301L31.3965-8.44727C29.0527-6.88477 28.9551-4.3457 30.3711-2.39258C32.0312-0.244141 34.7656-0.292969 36.7676-2.29492L38.8672-4.39453L38.8672 1.41602C38.8672 4.49219 40.8691 6.64062 43.7988 6.64062Z"/>
  </g>
  <g id="Heavy-S" transform="matrix(1 0 0 1 2593.52 696)">
   <path d="M43.1641 5.95703C45.8984 5.95703 47.6562 4.05273 47.6562 1.2207L47.6562-4.98047L50.6348-2.58789C52.5391-0.878906 54.9805-0.878906 56.543-2.88086C57.8125-4.6875 57.6172-7.03125 55.4199-8.44727L47.6562-13.3301L47.6562-17.4805L46.6309-29.1504L56.2988-22.4121L59.8633-20.3613L60.2539-11.2305C60.4004-8.64258 62.3047-7.27539 64.502-7.56836C67.041-7.8125 68.2617-9.91211 67.7246-12.4023L67.1387-16.2109L72.5098-13.0859C74.9512-11.6699 77.4902-12.3047 78.8086-14.6484C80.127-16.9922 79.3945-19.5312 77.002-20.8984L71.6797-24.0234L75.1953-25.3906C77.5879-26.1719 78.9062-28.3203 77.832-30.6641C76.9531-32.666 74.8047-33.5938 72.5098-32.4219L64.4043-28.2227L60.791-30.2734L50.1465-35.2539L60.791-40.2344L64.4043-42.2852L72.5098-38.0371C74.8047-36.8164 76.9531-37.8418 77.8809-39.8926C78.9062-42.1875 77.6367-44.3359 75.1953-45.1172L71.6797-46.4844L77.002-49.6094C79.4434-51.0254 80.1758-53.4668 78.8574-55.8105C77.5391-58.1543 74.9023-58.7891 72.5098-57.4219L67.1387-54.3457L67.7246-58.0566C68.2617-60.5957 67.041-62.7441 64.5508-62.9395C62.3535-63.1836 60.4004-61.8164 60.2539-59.2773L59.8633-50.0977L56.2988-47.998L46.6309-41.3086L47.6562-53.0273L47.6562-57.1777L55.4199-62.0605C57.6172-63.4766 57.7637-65.8203 56.543-67.627C55.0293-69.6289 52.5391-69.6289 50.6348-67.9199L47.6562-65.5273L47.6562-71.7285C47.6562-74.5605 45.8984-76.4648 43.1641-76.4648C40.4785-76.4648 38.6719-74.5117 38.6719-71.7285L38.6719-65.5273L35.6934-67.9199C33.7891-69.6289 31.3477-69.6289 29.834-67.627C28.5156-65.8203 28.7598-63.4766 30.9082-62.0605L38.6719-57.1777L38.6719-53.0273L39.6973-41.2598L30.0293-47.998L26.4648-50.0977L26.0742-59.2773C25.9277-61.8164 23.9746-63.1836 21.8262-62.9395C19.2871-62.7441 18.1152-60.5469 18.6035-58.1055L19.1895-54.3457L13.8184-57.4219C11.4258-58.7891 8.83789-58.1543 7.4707-55.8105C6.15234-53.4668 6.88477-50.9766 9.27734-49.6094L14.6484-46.4844L11.1328-45.1172C8.69141-44.3359 7.4707-42.1387 8.49609-39.8438C9.42383-37.8418 11.5234-36.8164 13.8672-38.0371L21.9238-42.2852L25.5371-40.2344L36.1816-35.2539L25.5371-30.2734L21.9727-28.2227L13.8672-32.4707C11.5234-33.6914 9.375-32.666 8.49609-30.6152C7.42188-28.3203 8.69141-26.1719 11.1328-25.3906L14.6484-24.0234L9.32617-20.8984C6.93359-19.5312 6.15234-16.9434 7.4707-14.6484C8.83789-12.2559 11.4258-11.6699 13.8184-13.0859L19.1895-16.1621L18.6035-12.4512C18.0664-9.91211 19.2871-7.76367 21.8262-7.56836C24.0234-7.32422 25.9277-8.69141 26.0742-11.2305L26.4648-20.459L30.0293-22.5098L39.6973-29.1992L38.6719-17.4805L38.6719-13.3301L30.9082-8.44727C28.7598-7.03125 28.5645-4.6875 29.834-2.88086C31.2988-0.878906 33.7891-0.878906 35.6934-2.58789L38.6719-4.98047L38.6719 1.2207C38.6719 4.00391 40.4785 5.95703 43.1641 5.95703Z"/>
  </g>
  <g id="Bold-S" transform="matrix(1 0 0 1 2297.55 696)">
   <path d="M42.4316 5.17578C44.873 5.17578 46.4355 3.4668 46.4355 0.976562L46.4355-5.66406L50.4395-2.92969C52.2461-1.51367 54.3945-1.5625 55.7129-3.41797C56.8359-5.07812 56.543-7.17773 54.541-8.44727L46.4355-13.3301L46.4355-17.4805L45.459-29.9316L55.8105-22.9004L59.4238-20.8008L59.6191-11.377C59.7168-9.0332 61.377-7.66602 63.3789-7.86133C65.6738-8.00781 66.7969-9.86328 66.4551-12.1582L66.0645-16.9922L71.875-13.6719C74.0234-12.3535 76.2695-12.9395 77.4414-15.0391C78.5645-17.0898 77.9785-19.3848 75.8301-20.6055L70.1172-23.9258L74.4629-26.0254C76.5625-26.8555 77.6367-28.7598 76.6602-30.8105C75.7324-32.6172 73.7793-33.3984 71.6797-32.3242L63.4277-27.7832L59.8145-29.834L48.4863-35.2539L59.8145-40.625L63.4277-42.7246L71.6797-38.1836C73.7793-37.0605 75.7812-37.8906 76.6602-39.6973C77.6367-41.6992 76.5625-43.6523 74.4629-44.4824L70.1172-46.582L75.8301-49.9023C78.0273-51.1719 78.6133-53.3691 77.4414-55.4688C76.2695-57.5195 73.9746-58.1055 71.875-56.8359L66.0645-53.5645L66.4551-58.3496C66.7969-60.6445 65.6738-62.5 63.3789-62.6465C61.4258-62.793 59.7168-61.4746 59.6191-59.1309L59.4238-49.6582L55.8105-47.6074L45.459-40.5273L46.4355-53.0273L46.4355-57.1777L54.541-62.0605C56.543-63.3301 56.7871-65.4297 55.7129-67.0898C54.4434-68.9453 52.2461-68.9941 50.4395-67.5781L46.4355-64.8438L46.4355-71.4844C46.4355-73.9746 44.873-75.6836 42.4316-75.6836C40.0879-75.6836 38.4766-73.9746 38.4766-71.4844L38.4766-64.8438L34.4238-67.5781C32.6172-68.9941 30.5176-68.9453 29.1504-67.0898C28.0273-65.4297 28.3691-63.3301 30.3711-62.0605L38.4766-57.1777L38.4766-53.0273L39.4531-40.4785L29.0527-47.6074L25.4883-49.707L25.2441-59.1309C25.1953-61.4746 23.4863-62.793 21.5332-62.6465C19.2383-62.5 18.1152-60.5957 18.457-58.3496L18.7988-53.5645L13.0371-56.8359C10.9375-58.1055 8.59375-57.5195 7.42188-55.4688C6.25-53.3691 6.88477-51.123 9.0332-49.9023L14.7949-46.582L10.4492-44.4824C8.30078-43.6523 7.27539-41.748 8.25195-39.6484C9.13086-37.8906 11.084-37.0605 13.1836-38.1836L21.4355-42.7246L25.0488-40.625L36.377-35.2539L25.0488-29.834L21.4844-27.7832L13.1836-32.3242C11.1328-33.4473 9.13086-32.6172 8.25195-30.8105C7.27539-28.7598 8.30078-26.8555 10.4492-26.0254L14.7949-23.9258L9.0332-20.6055C6.93359-19.3848 6.25-17.0898 7.42188-15.0391C8.64258-12.8906 10.9375-12.4023 13.0371-13.6719L18.7988-16.9434L18.457-12.1582C18.0664-9.86328 19.2383-8.00781 21.5332-7.86133C23.4863-7.71484 25.1953-9.0332 25.2441-11.377L25.4883-20.8496L29.0527-22.9004L39.4531-29.9805L38.4766-17.4805L38.4766-13.3301L30.3711-8.44727C28.3691-7.17773 28.0762-5.07812 29.1504-3.41797C30.4688-1.5625 32.6172-1.51367 34.4238-2.92969L38.4766-5.66406L38.4766 0.976562C38.4766 3.4668 40.0879 5.17578 42.4316 5.17578Z"/>
  </g>
  <g id="Semibold-S" transform="matrix(1 0 0 1 2001.32 696)">
   <path d="M41.9434 4.6875C44.1895 4.6875 45.6055 3.125 45.6055 0.830078L45.6055-6.10352L50.293-3.17383C52.002-1.95312 54.0039-2.00195 55.1758-3.80859C56.1523-5.32227 55.7617-7.27539 53.9062-8.44727L45.6055-13.3301L45.6055-17.4805L44.6289-30.5176L55.5176-23.1934L59.082-21.0938L59.2285-11.4746C59.2285-9.27734 60.7422-7.95898 62.5977-8.05664C64.7461-8.20312 65.7715-9.86328 65.5762-11.9629L65.332-17.5293L71.3867-14.0137C73.3887-12.8418 75.3906-13.3789 76.4648-15.2832C77.5391-17.1875 76.9531-19.2871 75.0488-20.3613L69.043-23.877L73.9258-26.4648C75.8301-27.2949 76.7578-29.1016 75.8301-30.957C74.9512-32.6172 73.0469-33.252 71.1426-32.2266L62.7441-27.4902L59.1309-29.541L47.3633-35.2539L59.1309-40.918L62.7441-43.0176L71.1426-38.2812C73.0469-37.2559 74.9512-37.8906 75.8301-39.5508C76.7578-41.4062 75.8301-43.1641 73.9258-44.043L69.043-46.6309L75.0488-50.1465C77.002-51.2695 77.5879-53.2715 76.5137-55.2246C75.4395-57.0801 73.3398-57.6172 71.3867-56.4941L65.332-53.0273L65.5762-58.5449C65.7715-60.6445 64.7461-62.3535 62.5977-62.4512C60.791-62.5488 59.2285-61.1816 59.2285-59.0332L59.082-49.4141L55.5176-47.3145L44.6289-39.9902L45.6055-53.0273L45.6055-57.1777L53.9062-62.0605C55.7617-63.2324 56.1523-65.1855 55.1758-66.6992C54.0039-68.5059 52.002-68.5547 50.293-67.334L45.6055-64.4043L45.6055-71.3379C45.6055-73.6328 44.1895-75.1953 41.9434-75.1953C39.7461-75.1953 38.2812-73.584 38.2812-71.3379L38.2812-64.4043L33.5938-67.334C31.8359-68.5547 29.9316-68.5059 28.7109-66.6992C27.7344-65.1855 28.125-63.2324 29.9805-62.0605L38.2812-57.1777L38.2812-53.0273L39.2578-39.9414L28.418-47.3145L24.8047-49.4141L24.6582-59.0332C24.6582-61.1816 23.0957-62.5488 21.3379-62.4512C19.1406-62.3535 18.1152-60.6445 18.3594-58.5449L18.5547-53.0273L12.5-56.4941C10.5957-57.6172 8.44727-57.0801 7.37305-55.2246C6.25-53.2715 6.88477-51.2207 8.83789-50.1465L14.8438-46.6309L9.96094-44.043C8.05664-43.1641 7.12891-41.4551 8.05664-39.502C8.88672-37.8906 10.8398-37.2559 12.7441-38.2812L21.1426-43.0176L24.7559-40.918L36.5234-35.2539L24.7559-29.541L21.1426-27.4902L12.7441-32.2266C10.8398-33.252 8.93555-32.6172 8.10547-30.957C7.12891-29.0527 8.05664-27.3438 9.96094-26.4648L14.8438-23.877L8.83789-20.3613C6.93359-19.2871 6.29883-17.1875 7.37305-15.2832C8.49609-13.3301 10.5957-12.8906 12.5-14.0137L18.5547-17.4805L18.3594-11.9629C18.1152-9.86328 19.1406-8.1543 21.2891-8.05664C23.1445-7.95898 24.6582-9.32617 24.6582-11.4746L24.8047-21.1426L28.418-23.1934L39.2578-30.5176L38.2812-17.4805L38.2812-13.3301L29.9805-8.44727C28.125-7.27539 27.7344-5.32227 28.7109-3.80859C29.8828-2.00195 31.8359-1.95312 33.5938-3.17383L38.2812-6.10352L38.2812 0.830078C38.2812 3.07617 39.7461 4.6875 41.9434 4.6875Z"/>
  </g>
  <g id="Medium-S" transform="matrix(1 0 0 1 1705 696)">
   <path d="M41.5527 4.24805C43.7012 4.24805 44.9707 2.83203 44.9707 0.683594L44.9707-6.44531L50.1465-3.36914C51.8555-2.24609 53.6621-2.39258 54.7363-4.05273C55.6152-5.51758 55.2246-7.37305 53.418-8.44727L44.9707-13.3301L44.9707-17.4805L44.043-30.9082L55.2246-23.4375L58.8867-21.3379L58.8867-11.5723C58.8867-9.52148 60.2539-8.1543 61.9629-8.25195C64.0137-8.30078 64.9902-9.81445 64.8926-11.8164L64.7949-17.9688L71.0449-14.3066C72.9004-13.2324 74.7559-13.7207 75.7812-15.4785C76.7578-17.2852 76.2207-19.1895 74.4141-20.2148L68.2129-23.8281L73.5352-26.7578C75.293-27.6855 76.123-29.3457 75.1953-31.0547C74.3164-32.6172 72.5098-33.1055 70.752-32.1289L62.2559-27.2461L58.6426-29.3457L46.4844-35.2539L58.6426-41.1621L62.207-43.2617L70.7031-38.3789C72.5098-37.3535 74.3652-37.8906 75.1953-39.4043C76.123-41.1621 75.293-42.8223 73.5352-43.75L68.2129-46.6797L74.4141-50.293C76.2695-51.3184 76.8066-53.1738 75.7812-55.0293C74.7559-56.7383 72.8516-57.2754 71.0449-56.2012L64.7949-52.6367L64.8926-58.6914C65.0391-60.6934 64.0137-62.207 62.0117-62.2559C60.3027-62.3047 58.8867-60.9863 58.8867-58.9355L58.8867-49.1699L55.2246-47.0703L44.043-39.5508L44.9707-53.0273L44.9707-57.1777L53.418-62.0605C55.2246-63.1348 55.6152-64.9902 54.7363-66.4551C53.6621-68.1152 51.8555-68.2617 50.1465-67.1387L44.9707-64.0625L44.9707-71.1914C44.9707-73.3398 43.7012-74.7559 41.5527-74.7559C39.5508-74.7559 38.1836-73.291 38.1836-71.1914L38.1836-64.0625L32.9102-67.1387C31.25-68.2617 29.4434-68.1152 28.3691-66.4551C27.4902-64.9902 27.9297-63.1348 29.6875-62.0605L38.1836-57.1777L38.1836-53.0273L39.1113-39.5508L27.8809-47.0703L24.2676-49.1699L24.2676-58.9355C24.2676-60.9863 22.8516-62.3047 21.1426-62.2559C19.1406-62.207 18.1152-60.6445 18.2617-58.6914L18.3594-52.6367L12.1094-56.2012C10.3516-57.2266 8.34961-56.7383 7.37305-55.0293C6.29883-53.1738 6.88477-51.3184 8.69141-50.293L14.8926-46.6797L9.61914-43.75C7.86133-42.8223 7.03125-41.2598 7.95898-39.4043C8.74023-37.8906 10.5957-37.3535 12.4023-38.3789L20.8984-43.2129L24.5117-41.1621L36.6211-35.2539L24.5117-29.3457L20.8496-27.2461L12.4023-32.1289C10.6445-33.1543 8.78906-32.6172 8.00781-31.1035C7.03125-29.248 7.86133-27.6855 9.61914-26.7578L14.8926-23.8281L8.69141-20.2148C6.93359-19.1895 6.34766-17.2363 7.37305-15.4785C8.39844-13.6719 10.3516-13.2812 12.1094-14.3066L18.3594-17.8711L18.2617-11.8164C18.1152-9.81445 19.1406-8.30078 21.1426-8.25195C22.8516-8.20312 24.2676-9.52148 24.2676-11.5723L24.3164-21.3379L27.8809-23.4375L39.1113-30.957L38.1836-17.4805L38.1836-13.3301L29.6875-8.44727C27.9297-7.37305 27.4902-5.51758 28.3691-4.05273C29.4434-2.39258 31.25-2.24609 32.9102-3.36914L38.1836-6.44531L38.1836 0.683594C38.1836 2.7832 39.5508 4.24805 41.5527 4.24805Z"/>
  </g>
  <g id="Regular-S" transform="matrix(1 0 0 1 1408.78 696)">
   <path d="M41.0645 3.75977C43.0176 3.75977 44.1406 2.44141 44.1406 0.537109L44.1406-6.88477L50-3.56445C51.6113-2.68555 53.2715-2.83203 54.1992-4.44336C54.9316-5.81055 54.4922-7.4707 52.832-8.44727L44.1406-13.3301L44.1406-17.5293L43.2129-31.4941L54.9316-23.7305L58.5449-21.6309L58.4473-11.6211C58.3984-9.76562 59.6191-8.44727 61.1816-8.44727C63.0859-8.44727 64.0137-9.81445 64.0137-11.6211L64.0625-18.5059L70.6055-14.6973C72.2168-13.7207 73.877-14.1113 74.8047-15.7227C75.7324-17.3828 75.2441-19.0918 73.6328-20.0195L67.1387-23.7305L72.998-27.1973C74.5605-28.125 75.2441-29.6387 74.3652-31.2012C73.5352-32.6172 71.7773-32.959 70.166-32.0312L61.6211-26.9531L57.959-29.0527L45.3613-35.2539L57.959-41.4551L61.5723-43.5547L70.166-38.4766C71.7773-37.5488 73.584-37.8906 74.3652-39.2578C75.2441-40.8691 74.5605-42.3828 72.998-43.3105L67.1387-46.7773L73.6328-50.4883C75.293-51.4648 75.7812-53.0762 74.8047-54.7852C73.9258-56.3477 72.2168-56.7871 70.6055-55.8105L64.0625-52.0996L64.0137-58.8867C64.0137-60.6934 63.0859-62.0605 61.2305-62.0605C59.6191-62.0605 58.3984-60.7422 58.4473-58.8867L58.5449-48.9258L54.9316-46.7773L43.2129-39.0137L44.1406-52.9785L44.1406-57.1777L52.832-62.0605C54.4922-63.0371 54.9316-64.6973 54.1992-66.0645C53.2715-67.6758 51.6113-67.8223 50-66.9434L44.1406-63.623L44.1406-71.0449C44.1406-72.9492 43.0176-74.2676 41.0645-74.2676C39.2578-74.2676 38.0371-72.9492 38.0371-71.0449L38.0371-63.623L32.0801-66.9434C30.4688-67.8223 28.9062-67.6758 27.9297-66.0645C27.1484-64.6973 27.6855-63.0371 29.2969-62.0605L38.0371-57.1777L38.0371-52.9785L38.916-39.0137L27.2461-46.7773L23.584-48.9258L23.6816-58.8867C23.7305-60.7422 22.5098-62.0605 20.9473-62.0605C19.0918-62.0605 18.1152-60.6934 18.1152-58.8867L18.0664-52.0996L11.5723-55.8105C10.0098-56.7383 8.20312-56.3477 7.32422-54.7852C6.34766-53.0762 6.88477-51.416 8.49609-50.4883L14.9902-46.7773L9.13086-43.3105C7.56836-42.3828 6.88477-40.9668 7.76367-39.2578C8.54492-37.8906 10.3027-37.5488 11.9629-38.4766L20.5566-43.5059L24.1699-41.4551L36.7676-35.2539L24.1699-29.0527L20.5566-26.9531L11.9629-32.0312C10.3516-32.959 8.59375-32.6172 7.86133-31.25C6.93359-29.541 7.56836-28.125 9.13086-27.1973L14.9902-23.7305L8.49609-20.0195C6.88477-19.0918 6.39648-17.334 7.32422-15.7227C8.25195-14.0625 10.0098-13.7695 11.5723-14.6973L18.0664-18.4082L18.1152-11.6211C18.1152-9.81445 19.0918-8.44727 20.9473-8.44727C22.5098-8.44727 23.7305-9.76562 23.6816-11.6211L23.6328-21.6309L27.2461-23.6816L38.916-31.4941L38.0371-17.5293L38.0371-13.3301L29.2969-8.44727C27.6855-7.4707 27.1484-5.81055 27.9297-4.44336C28.9062-2.83203 30.4688-2.68555 32.0801-3.56445L38.0371-6.88477L38.0371 0.537109C38.0371 2.44141 39.2578 3.75977 41.0645 3.75977Z"/>
  </g>
  <g id="Light-S" transform="matrix(1 0 0 1 1112.7 696)">
   <path d="M40.4297 3.17383C41.8945 3.17383 42.7734 2.14844 42.7734 0.634766L42.7734-8.39844L49.9512-4.29688C51.2207-3.56445 52.4902-3.71094 53.2227-4.93164C53.8086-6.00586 53.4668-7.27539 52.1484-8.00781L42.7734-13.3301L42.7734-18.75L42.0898-32.2266L53.5645-24.9512L58.252-22.2656L58.2031-11.4746C58.1543-10.0098 59.082-8.98438 60.3027-8.98438C61.7676-8.98438 62.5-10.0586 62.5-11.4746L62.5-19.8242L70.3613-15.2344C71.6797-14.502 72.9492-14.7949 73.6816-16.0156C74.3652-17.2852 73.9746-18.6035 72.7051-19.3359L64.8926-23.8281L72.0703-28.0762C73.291-28.8086 73.8281-29.9805 73.0957-31.1523C72.4121-32.2754 71.1426-32.5195 69.873-31.7871L60.5469-26.3672L55.8594-29.0527L43.7012-35.2539L55.9082-41.4062L60.5469-44.1406L69.873-38.7207C71.1426-37.9883 72.5098-38.2324 73.1445-39.3066C73.8281-40.5273 73.291-41.6992 72.0215-42.4805L64.8926-46.6309L72.7539-51.1719C74.0234-51.9043 74.4141-53.1738 73.6816-54.4922C72.998-55.6641 71.6797-56.0059 70.3613-55.2246L62.5-50.6836L62.4512-59.0332C62.4512-60.498 61.7188-61.5234 60.3027-61.4746C59.082-61.4746 58.1543-60.498 58.2031-59.0332L58.252-48.2422L53.5645-45.5078L42.0898-38.2324L42.7734-51.7578L42.7734-57.1777L52.1484-62.5C53.4668-63.2324 53.8086-64.502 53.2227-65.5762C52.4902-66.7969 51.2207-66.9434 49.9512-66.2109L42.7734-62.1094L42.7734-71.1426C42.7734-72.6562 41.8945-73.6816 40.4297-73.6816C39.0137-73.6816 38.1348-72.6562 38.1348-71.1426L38.1348-62.1094L30.8105-66.2109C29.5898-66.9434 28.3691-66.7969 27.6367-65.5762C27.0508-64.502 27.4414-63.2324 28.7109-62.5L38.1348-57.1289L38.1348-51.7578L38.8184-38.2324L27.3438-45.5078L22.6074-48.2422L22.7051-59.0332C22.7051-60.498 21.8262-61.4746 20.6055-61.4746C19.1406-61.4746 18.4082-60.4492 18.4082-59.0332L18.3594-50.6836L10.498-55.2246C9.27734-55.957 7.91016-55.6641 7.22656-54.4922C6.44531-53.1738 6.88477-51.8555 8.1543-51.1719L15.9668-46.6309L8.83789-42.4805C7.56836-41.6992 7.08008-40.625 7.76367-39.3066C8.34961-38.2324 9.7168-37.9883 11.0352-38.7207L20.3125-44.1406L25-41.4062L37.207-35.2539L25-29.0527L20.3125-26.3184L10.9863-31.7871C9.7168-32.5195 8.39844-32.2754 7.8125-31.2012C7.12891-29.8828 7.56836-28.8086 8.83789-28.0762L16.0156-23.8281L8.1543-19.3359C6.88477-18.6035 6.49414-17.2363 7.22656-16.0645C7.95898-14.7949 9.27734-14.502 10.498-15.2344L18.3594-19.7266L18.4082-11.4746C18.4082-10.0586 19.1406-8.98438 20.5566-8.98438C21.7773-8.98438 22.7051-10.0098 22.7051-11.4746L22.6562-22.2656L27.3438-24.9512L38.8184-32.2266L38.1348-18.75L38.1348-13.3789L28.7109-8.00781C27.4414-7.27539 27.0508-6.00586 27.6367-4.93164C28.3691-3.71094 29.5898-3.56445 30.8105-4.29688L38.1348-8.39844L38.1348 0.634766C38.1348 2.14844 39.0137 3.17383 40.4297 3.17383Z"/>
  </g>
  <g id="Thin-S" transform="matrix(1 0 0 1 816.823 696)">
   <path d="M39.5996 2.34375C40.4785 2.34375 41.0156 1.70898 41.0156 0.732422L41.0156-10.3516L49.8535-5.17578C50.6836-4.73633 51.4648-4.83398 51.9531-5.56641C52.3438-6.25 52.0996-7.03125 51.2695-7.51953L41.0156-13.3789L41.0156-20.4102L40.5762-33.2031L51.7578-26.5625L57.8613-23.0957L57.8125-11.3281C57.8125-10.3516 58.3984-9.7168 59.1309-9.7168C60.0098-9.7168 60.4492-10.3516 60.4492-11.3281L60.498-21.5332L70.0684-15.9668C70.9473-15.5273 71.7285-15.6738 72.1191-16.4551C72.5586-17.1875 72.2656-17.9688 71.4844-18.457L61.8652-23.9258L70.8008-29.1992C71.6309-29.6875 71.9238-30.3711 71.4844-31.1035C70.9961-31.7871 70.3125-31.9824 69.4824-31.4941L59.1309-25.5371L53.125-29.0039L41.4551-35.2051L53.1738-41.4062L59.2285-44.9707L69.4336-39.0137C70.2637-38.5254 71.0938-38.7207 71.4844-39.4043C71.9238-40.1367 71.582-40.8203 70.8008-41.3574L61.9141-46.4844L71.5332-52.002C72.3633-52.4414 72.6074-53.2715 72.168-54.0527C71.7285-54.7852 70.8984-54.9805 70.1172-54.4434L60.498-48.877L60.4492-59.2285C60.4492-60.2051 59.9609-60.791 59.082-60.7422C58.3008-60.7422 57.8125-60.1562 57.8125-59.2285L57.8125-47.3633L51.7578-43.8477L40.5762-37.207L41.0156-50.0977L41.0156-57.1289L51.2695-62.9883C52.0996-63.4766 52.3438-64.2578 51.9531-64.9414C51.4648-65.6738 50.6836-65.7715 49.8535-65.332L41.0156-60.1562L41.0156-71.2402C41.0156-72.2168 40.4785-72.8516 39.5996-72.8516C38.7695-72.8516 38.2324-72.2168 38.2324-71.2402L38.2324-60.1562L29.1992-65.332C28.418-65.7715 27.6855-65.6738 27.2461-64.9414C26.8555-64.2578 27.0996-63.4766 27.9297-63.0371L38.2324-57.1289L38.2324-50.0977L38.6719-37.1582L27.4902-43.8477L21.3867-47.3633L21.3867-59.2285C21.3867-60.1562 20.8984-60.7422 20.1172-60.7422C19.1895-60.7422 18.7988-60.1562 18.7988-59.2285L18.75-48.877L9.13086-54.4434C8.30078-54.9316 7.4707-54.7852 7.03125-54.0527C6.5918-53.2715 6.88477-52.4414 7.66602-52.002L17.2852-46.4844L8.44727-41.3574C7.56836-40.8203 7.27539-40.1855 7.71484-39.3555C8.10547-38.6719 8.93555-38.5254 9.81445-39.0137L19.9707-44.9219L26.0742-41.4062L37.7441-35.2051L26.0742-29.0039L19.9707-25.5371L9.7168-31.4941C8.88672-31.9824 8.1543-31.7871 7.76367-31.1523C7.32422-30.2734 7.56836-29.6875 8.39844-29.1992L17.334-23.9258L7.71484-18.457C6.88477-17.9688 6.64062-17.1387 7.03125-16.4551C7.51953-15.6738 8.34961-15.5273 9.13086-15.9668L18.75-21.5332L18.75-11.3281C18.75-10.3516 19.1895-9.7168 20.0684-9.7168C20.8496-9.7168 21.3867-10.3516 21.3867-11.3281L21.3867-23.0957L27.4902-26.5625L38.6719-33.252L38.2324-20.4102L38.2324-13.3789L27.9297-7.4707C27.0996-7.03125 26.8555-6.25 27.2461-5.56641C27.6855-4.83398 28.418-4.73633 29.1992-5.17578L38.2324-10.3516L38.2324 0.732422C38.2324 1.70898 38.7695 2.34375 39.5996 2.34375Z"/>
  </g>
  <g id="Ultralight-S" transform="matrix(1 0 0 1 520.527 696)">
   <path d="M39.1602 1.95312C39.7461 1.95312 40.1367 1.51367 40.1367 0.830078L40.1367-11.3281L49.8535-5.66406C50.4395-5.32227 50.9766-5.41992 51.2695-5.9082C51.5625-6.39648 51.416-6.93359 50.7812-7.22656L40.1367-13.3789L40.1367-21.2891L39.7949-33.7402L50.8301-27.3926L57.6172-23.5352L57.6172-11.1816C57.6172-10.498 58.0078-10.0586 58.5449-10.0586C59.1309-10.0586 59.4238-10.498 59.4238-11.1816L59.4238-22.4609L69.9219-16.3574C70.5566-16.0645 71.0938-16.1621 71.3379-16.6504C71.6309-17.1387 71.3867-17.6758 70.8496-17.9688L60.3516-24.0234L70.166-29.7852C70.752-30.127 70.9473-30.6152 70.6055-31.0547C70.2637-31.543 69.873-31.6406 69.2871-31.3477L58.4473-25.1465L51.709-29.0039L40.332-35.2051L51.7578-41.3574L58.5938-45.3613L69.1895-39.1602C69.7754-38.8672 70.3613-38.9648 70.6543-39.4531C70.9473-39.8926 70.7031-40.3809 70.1172-40.7715L60.4004-46.3867L70.8984-52.4414C71.4844-52.7832 71.6797-53.3203 71.3867-53.8574C71.0938-54.2969 70.5078-54.4434 69.9707-54.0527L59.4238-47.9004L59.375-59.3262C59.375-60.0586 59.082-60.4004 58.4473-60.3516C57.9102-60.3516 57.6172-60.0098 57.6172-59.3262L57.5684-46.875L50.8301-42.9688L39.7949-36.6699L40.1367-49.2188L40.1367-57.1289L50.7812-63.2812C51.416-63.5742 51.5625-64.1113 51.2695-64.5996C50.9766-65.0879 50.4395-65.1855 49.8535-64.8438L40.1367-59.1797L40.1367-71.3379C40.1367-72.0215 39.7461-72.4609 39.1602-72.4609C38.623-72.4609 38.2812-72.0215 38.2812-71.3379L38.2812-59.1309L28.3203-64.8438C27.7832-65.1855 27.3438-65.0879 27.002-64.5996C26.8066-64.1113 26.9531-63.623 27.4902-63.3301L38.2812-57.0801L38.2812-49.2188L38.623-36.6211L27.5391-42.9688L20.7031-46.875L20.7031-59.3262C20.752-60.0098 20.459-60.3516 19.873-60.3516C19.2383-60.3516 18.9453-60.0098 18.9453-59.3262L18.8965-47.9004L8.44727-54.0527C7.8125-54.3945 7.22656-54.2969 6.98242-53.8574C6.68945-53.3203 6.83594-52.7832 7.42188-52.4414L17.9688-46.3867L8.20312-40.7715C7.56836-40.3809 7.42188-39.9414 7.66602-39.4043C8.00781-38.916 8.54492-38.8672 9.17969-39.1602L19.7754-45.3613L26.6113-41.3574L38.0371-35.2051L26.6602-29.0039L19.8242-25.0977L9.0332-31.3477C8.44727-31.6406 8.05664-31.543 7.71484-31.1035C7.4707-30.5176 7.56836-30.127 8.1543-29.7852L18.0176-24.0234L7.4707-17.9688C6.88477-17.627 6.68945-17.0898 6.98242-16.6992C7.27539-16.1621 7.86133-16.0645 8.44727-16.3574L18.8965-22.4609L18.9453-11.1816C18.9453-10.498 19.2383-10.0586 19.8242-10.0586C20.3613-10.0586 20.752-10.498 20.7031-11.1816L20.7031-23.5352L27.5391-27.3926L38.623-33.7891L38.2812-21.2891L38.2812-13.4277L27.4902-7.17773C26.9531-6.88477 26.8066-6.39648 27.002-5.9082C27.3438-5.41992 27.7832-5.32227 28.3203-5.66406L38.2812-11.377L38.2812 0.830078C38.2812 1.51367 38.623 1.95312 39.1602 1.95312Z"/>
  </g>
 </g>
</svg>
