<?xml version="1.0" encoding="UTF-8"?>
<!--Generator: Apple Native CoreSVG 149-->
<!DOCTYPE svg
PUBLIC "-//W3C//DTD SVG 1.1//EN"
       "http://www.w3.org/Graphics/SVG/1.1/DTD/svg11.dtd">
<svg version="1.1" xmlns="http://www.w3.org/2000/svg" xmlns:xlink="http://www.w3.org/1999/xlink" width="3300" height="2200">
 <!--glyph: "uni100629.medium", point size: 100.000000, font version: "Version 16.0d12e3", template writer version: "8"-->
 <g id="Notes">
  <rect height="2200" id="artboard" style="fill:white;opacity:1" width="3300" x="0" y="0"/>
  <line id="" style="fill:none;stroke:black;opacity:1;stroke-width:0.5;" x1="263" x2="3036" y1="292" y2="292"/>
  <text style="stroke:none;fill:black;font-family:-apple-system,&quot;SF Pro Display&quot;,&quot;SF Pro Text&quot;,Helvetica,sans-serif;font-weight:bold;" transform="matrix(1 0 0 1 263 322)">Weight/Scale Variations</text>
  <text style="stroke:none;fill:black;font-family:-apple-system,&quot;SF Pro Display&quot;,&quot;SF Pro Text&quot;,Helvetica,sans-serif;text-anchor:middle;" transform="matrix(1 0 0 1 559.711 322)">Ultralight</text>
  <text style="stroke:none;fill:black;font-family:-apple-system,&quot;SF Pro Display&quot;,&quot;SF Pro Text&quot;,Helvetica,sans-serif;text-anchor:middle;" transform="matrix(1 0 0 1 856.422 322)">Thin</text>
  <text style="stroke:none;fill:black;font-family:-apple-system,&quot;SF Pro Display&quot;,&quot;SF Pro Text&quot;,Helvetica,sans-serif;text-anchor:middle;" transform="matrix(1 0 0 1 1153.13 322)">Light</text>
  <text style="stroke:none;fill:black;font-family:-apple-system,&quot;SF Pro Display&quot;,&quot;SF Pro Text&quot;,Helvetica,sans-serif;text-anchor:middle;" transform="matrix(1 0 0 1 1449.84 322)">Regular</text>
  <text style="stroke:none;fill:black;font-family:-apple-system,&quot;SF Pro Display&quot;,&quot;SF Pro Text&quot;,Helvetica,sans-serif;text-anchor:middle;" transform="matrix(1 0 0 1 1746.56 322)">Medium</text>
  <text style="stroke:none;fill:black;font-family:-apple-system,&quot;SF Pro Display&quot;,&quot;SF Pro Text&quot;,Helvetica,sans-serif;text-anchor:middle;" transform="matrix(1 0 0 1 2043.27 322)">Semibold</text>
  <text style="stroke:none;fill:black;font-family:-apple-system,&quot;SF Pro Display&quot;,&quot;SF Pro Text&quot;,Helvetica,sans-serif;text-anchor:middle;" transform="matrix(1 0 0 1 2339.98 322)">Bold</text>
  <text style="stroke:none;fill:black;font-family:-apple-system,&quot;SF Pro Display&quot;,&quot;SF Pro Text&quot;,Helvetica,sans-serif;text-anchor:middle;" transform="matrix(1 0 0 1 2636.69 322)">Heavy</text>
  <text style="stroke:none;fill:black;font-family:-apple-system,&quot;SF Pro Display&quot;,&quot;SF Pro Text&quot;,Helvetica,sans-serif;text-anchor:middle;" transform="matrix(1 0 0 1 2933.4 322)">Black</text>
  <line id="" style="fill:none;stroke:black;opacity:1;stroke-width:0.5;" x1="263" x2="3036" y1="1903" y2="1903"/>
  <g id="" transform="matrix(1 0 0 1 263 1933)">
   <path d="M9.24805 0.830078C13.5547 0.830078 17.1387-2.74414 17.1387-7.05078C17.1387-11.3574 13.5449-14.9316 9.23828-14.9316C4.94141-14.9316 1.36719-11.3574 1.36719-7.05078C1.36719-2.74414 4.95117 0.830078 9.24805 0.830078ZM9.24805-0.654297C5.70312-0.654297 2.87109-3.49609 2.87109-7.05078C2.87109-10.6055 5.69336-13.4473 9.23828-13.4473C12.793-13.4473 15.6348-10.6055 15.6445-7.05078C15.6543-3.49609 12.8027-0.654297 9.24805-0.654297ZM9.22852-3.62305C9.69727-3.62305 9.9707-3.93555 9.9707-4.45312L9.9707-6.31836L12.002-6.31836C12.5-6.31836 12.832-6.57227 12.832-7.04102C12.832-7.51953 12.5195-7.7832 12.002-7.7832L9.9707-7.7832L9.9707-9.81445C9.9707-10.332 9.69727-10.6543 9.22852-10.6543C8.75977-10.6543 8.50586-10.3125 8.50586-9.81445L8.50586-7.7832L6.49414-7.7832C5.97656-7.7832 5.64453-7.51953 5.64453-7.04102C5.64453-6.57227 5.99609-6.31836 6.49414-6.31836L8.50586-6.31836L8.50586-4.45312C8.50586-3.95508 8.75977-3.62305 9.22852-3.62305Z"/>
  </g>
  <g id="" transform="matrix(1 0 0 1 281.506 1933)">
   <path d="M11.709 2.91016C17.1582 2.91016 21.6699-1.61133 21.6699-7.05078C21.6699-12.5 17.1484-17.0117 11.6992-17.0117C6.25977-17.0117 1.74805-12.5 1.74805-7.05078C1.74805-1.61133 6.26953 2.91016 11.709 2.91016ZM11.709 1.25C7.09961 1.25 3.41797-2.44141 3.41797-7.05078C3.41797-11.6602 7.08984-15.3516 11.6992-15.3516C16.3086-15.3516 20-11.6602 20.0098-7.05078C20.0195-2.44141 16.3184 1.25 11.709 1.25ZM11.6797-2.66602C12.207-2.66602 12.5098-3.01758 12.5098-3.59375L12.5098-6.23047L15.3223-6.23047C15.8691-6.23047 16.25-6.51367 16.25-7.03125C16.25-7.55859 15.8887-7.86133 15.3223-7.86133L12.5098-7.86133L12.5098-10.6836C12.5098-11.25 12.207-11.6113 11.6797-11.6113C11.1621-11.6113 10.8789-11.2305 10.8789-10.6836L10.8789-7.86133L8.07617-7.86133C7.50977-7.86133 7.13867-7.55859 7.13867-7.03125C7.13867-6.51367 7.5293-6.23047 8.07617-6.23047L10.8789-6.23047L10.8789-3.59375C10.8789-3.03711 11.1621-2.66602 11.6797-2.66602Z"/>
  </g>
  <g id="" transform="matrix(1 0 0 1 304.924 1933)">
   <path d="M14.9707 5.66406C21.9336 5.66406 27.6953-0.0976562 27.6953-7.05078C27.6953-14.0137 21.9238-19.7754 14.9609-19.7754C8.00781-19.7754 2.25586-14.0137 2.25586-7.05078C2.25586-0.0976562 8.01758 5.66406 14.9707 5.66406ZM14.9707 3.84766C8.93555 3.84766 4.08203-1.01562 4.08203-7.05078C4.08203-13.0957 8.92578-17.9492 14.9609-17.9492C21.0059-17.9492 25.8594-13.0957 25.8691-7.05078C25.8789-1.01562 21.0156 3.84766 14.9707 3.84766ZM14.9414-1.38672C15.5176-1.38672 15.8594-1.77734 15.8594-2.38281L15.8594-6.13281L19.7754-6.13281C20.3711-6.13281 20.7812-6.46484 20.7812-7.02148C20.7812-7.59766 20.3906-7.93945 19.7754-7.93945L15.8594-7.93945L15.8594-11.8652C15.8594-12.4805 15.5176-12.8711 14.9414-12.8711C14.375-12.8711 14.0527-12.4609 14.0527-11.8652L14.0527-7.93945L10.1465-7.93945C9.53125-7.93945 9.13086-7.59766 9.13086-7.02148C9.13086-6.46484 9.55078-6.13281 10.1465-6.13281L14.0527-6.13281L14.0527-2.38281C14.0527-1.79688 14.375-1.38672 14.9414-1.38672Z"/>
  </g>
  <text style="stroke:none;fill:black;font-family:-apple-system,&quot;SF Pro Display&quot;,&quot;SF Pro Text&quot;,Helvetica,sans-serif;font-weight:bold;" transform="matrix(1 0 0 1 263 1953)">Design Variations</text>
  <text style="stroke:none;fill:black;font-family:-apple-system,&quot;SF Pro Display&quot;,&quot;SF Pro Text&quot;,Helvetica,sans-serif;" transform="matrix(1 0 0 1 263 1971)">Symbols are supported in up to nine weights and three scales.</text>
  <text style="stroke:none;fill:black;font-family:-apple-system,&quot;SF Pro Display&quot;,&quot;SF Pro Text&quot;,Helvetica,sans-serif;" transform="matrix(1 0 0 1 263 1989)">For optimal layout with text and other symbols, vertically align</text>
  <text style="stroke:none;fill:black;font-family:-apple-system,&quot;SF Pro Display&quot;,&quot;SF Pro Text&quot;,Helvetica,sans-serif;" transform="matrix(1 0 0 1 263 2007)">symbols with the adjacent text.</text>
  <line id="" style="fill:none;stroke:#00AEEF;stroke-width:0.5;opacity:1.0;" x1="776" x2="776" y1="1919" y2="1933"/>
  <g id="" transform="matrix(1 0 0 1 776 1933)">
   <path d="M3.31055 0.126953C3.82812 0.126953 4.08203-0.0683594 4.26758-0.605469L5.52734-4.0625L11.2891-4.0625L12.5488-0.605469C12.7344-0.0683594 12.9883 0.126953 13.4961 0.126953C14.0137 0.126953 14.3457-0.185547 14.3457-0.673828C14.3457-0.839844 14.3164-0.986328 14.2383-1.20117L9.6582-13.3887C9.43359-13.9941 9.0332-14.2871 8.4082-14.2871C7.80273-14.2871 7.39258-13.9941 7.17773-13.3984L2.59766-1.19141C2.51953-0.976562 2.49023-0.830078 2.49023-0.664062C2.49023-0.175781 2.80273 0.126953 3.31055 0.126953ZM6.00586-5.53711L8.37891-12.1094L8.42773-12.1094L10.8008-5.53711Z"/>
  </g>
  <line id="" style="fill:none;stroke:#00AEEF;stroke-width:0.5;opacity:1.0;" x1="792.836" x2="792.836" y1="1919" y2="1933"/>
  <text style="stroke:none;fill:black;font-family:-apple-system,&quot;SF Pro Display&quot;,&quot;SF Pro Text&quot;,Helvetica,sans-serif;font-weight:bold;" transform="matrix(1 0 0 1 776 1953)">Margins</text>
  <text style="stroke:none;fill:black;font-family:-apple-system,&quot;SF Pro Display&quot;,&quot;SF Pro Text&quot;,Helvetica,sans-serif;" transform="matrix(1 0 0 1 776 1971)">Leading and trailing margins on the left and right side of each symbol</text>
  <text style="stroke:none;fill:black;font-family:-apple-system,&quot;SF Pro Display&quot;,&quot;SF Pro Text&quot;,Helvetica,sans-serif;" transform="matrix(1 0 0 1 776 1989)">can be adjusted by modifying the x-location of the margin guidelines.</text>
  <text style="stroke:none;fill:black;font-family:-apple-system,&quot;SF Pro Display&quot;,&quot;SF Pro Text&quot;,Helvetica,sans-serif;" transform="matrix(1 0 0 1 776 2007)">Modifications are automatically applied proportionally to all</text>
  <text style="stroke:none;fill:black;font-family:-apple-system,&quot;SF Pro Display&quot;,&quot;SF Pro Text&quot;,Helvetica,sans-serif;" transform="matrix(1 0 0 1 776 2025)">scales and weights.</text>
  <g id="" transform="matrix(1 0 0 1 1289 1933)">
   <path d="M2.8418 1.86523L4.54102 3.57422C5.40039 4.44336 6.38672 4.38477 7.31445 3.35938L17.4902-7.85156C17.7539-7.76367 18.0273-7.7832 18.3398-7.8418L19.4043-8.03711L20.0684-7.36328L20.0293-6.80664C19.9902-6.30859 20.1172-5.92773 20.6055-5.44922L21.3672-4.70703C21.8457-4.22852 22.4609-4.19922 22.9297-4.66797L25.8398-7.58789C26.3086-8.05664 26.2891-8.65234 25.8105-9.13086L25.0391-9.89258C24.5605-10.3711 24.1895-10.5273 23.7109-10.4883L23.1348-10.4395L22.4902-11.0742L22.7344-12.1973C22.8613-12.7637 22.7051-13.2031 22.1191-13.7891L19.9219-15.9766C16.582-19.2969 12.1484-19.2188 9.25781-16.3281C8.83789-15.918 8.80859-15.3418 9.04297-14.9512C9.27734-14.5898 9.73633-14.3555 10.3809-14.5215C11.8457-14.8633 13.3691-14.9219 14.7949-13.9844L14.209-12.5293C14.0137-12.0508 13.9844-11.6504 14.1113-11.2891L3.04688-0.898438C2.06055 0.0195312 1.98242 0.996094 2.8418 1.86523ZM10.752-15.957C13.1836-17.7344 16.4746-17.4316 18.7012-15.2051L21.1328-12.793C21.3672-12.5586 21.4062-12.373 21.3379-12.0312L21.0156-10.5469L22.5195-9.0625L23.5059-9.12109C23.7598-9.13086 23.8379-9.11133 24.0332-8.91602L24.6094-8.33984L22.168-5.89844L21.5918-6.47461C21.3965-6.66992 21.3672-6.74805 21.377-7.01172L21.4453-7.98828L19.9512-9.47266L18.4277-9.21875C18.1055-9.15039 17.959-9.17969 17.7148-9.41406L15.7129-11.416C15.459-11.6504 15.4297-11.8164 15.5859-12.1875L16.4648-14.2773C14.9023-15.7324 12.8711-16.3574 10.8398-15.7617C10.6836-15.7227 10.625-15.8496 10.752-15.957ZM5.27344 2.30469L4.10156 1.14258C3.63281 0.683594 3.74023 0.341797 4.14062-0.0195312L14.9512-10.1953L16.416-8.71094L6.42578 2.27539C6.07422 2.67578 5.74219 2.77344 5.27344 2.30469Z"/>
  </g>
  <text style="stroke:none;fill:black;font-family:-apple-system,&quot;SF Pro Display&quot;,&quot;SF Pro Text&quot;,Helvetica,sans-serif;font-weight:bold;" transform="matrix(1 0 0 1 1289 1953)">Exporting</text>
  <text style="stroke:none;fill:black;font-family:-apple-system,&quot;SF Pro Display&quot;,&quot;SF Pro Text&quot;,Helvetica,sans-serif;" transform="matrix(1 0 0 1 1289 1971)">Symbols should be outlined when exporting to ensure the</text>
  <text style="stroke:none;fill:black;font-family:-apple-system,&quot;SF Pro Display&quot;,&quot;SF Pro Text&quot;,Helvetica,sans-serif;" transform="matrix(1 0 0 1 1289 1989)">design is preserved when submitting to Xcode.</text>
  <text id="template-version" style="stroke:none;fill:black;font-family:-apple-system,&quot;SF Pro Display&quot;,&quot;SF Pro Text&quot;,Helvetica,sans-serif;text-anchor:end;" transform="matrix(1 0 0 1 3036 1933)">Template v.2.0</text>
  <text style="stroke:none;fill:black;font-family:-apple-system,&quot;SF Pro Display&quot;,&quot;SF Pro Text&quot;,Helvetica,sans-serif;text-anchor:end;" transform="matrix(1 0 0 1 3036 1951)">Requires Xcode 12 or greater</text>
  <text style="stroke:none;fill:black;font-family:-apple-system,&quot;SF Pro Display&quot;,&quot;SF Pro Text&quot;,Helvetica,sans-serif;text-anchor:end;" transform="matrix(1 0 0 1 3036 1969)">Generated from gobackward.minus</text>
  <text style="stroke:none;fill:black;font-family:-apple-system,&quot;SF Pro Display&quot;,&quot;SF Pro Text&quot;,Helvetica,sans-serif;text-anchor:end;" transform="matrix(1 0 0 1 3036 1987)">Typeset at 100 points</text>
  <text style="stroke:none;fill:black;font-family:-apple-system,&quot;SF Pro Display&quot;,&quot;SF Pro Text&quot;,Helvetica,sans-serif;" transform="matrix(1 0 0 1 263 726)">Small</text>
  <text style="stroke:none;fill:black;font-family:-apple-system,&quot;SF Pro Display&quot;,&quot;SF Pro Text&quot;,Helvetica,sans-serif;" transform="matrix(1 0 0 1 263 1156)">Medium</text>
  <text style="stroke:none;fill:black;font-family:-apple-system,&quot;SF Pro Display&quot;,&quot;SF Pro Text&quot;,Helvetica,sans-serif;" transform="matrix(1 0 0 1 263 1586)">Large</text>
 </g>
 <g id="Guides">
  <g id="H-reference" style="fill:#27AAE1;stroke:none;" transform="matrix(1 0 0 1 339 696)">
   <path d="M0.976562 0L3.66211 0L12.9883-24.4629L45.752-24.4629L55.127 0L57.7637 0L30.6152-70.459L28.125-70.459ZM29.3457-67.1387L29.4434-67.1387L44.873-26.709L13.8672-26.709Z"/>
  </g>
  <line id="Baseline-S" style="fill:none;stroke:#27AAE1;opacity:1;stroke-width:0.5;" x1="263" x2="3036" y1="696" y2="696"/>
  <line id="Capline-S" style="fill:none;stroke:#27AAE1;opacity:1;stroke-width:0.5;" x1="263" x2="3036" y1="625.541" y2="625.541"/>
  <g id="H-reference" style="fill:#27AAE1;stroke:none;" transform="matrix(1 0 0 1 339 1126)">
   <path d="M0.976562 0L3.66211 0L12.9883-24.4629L45.752-24.4629L55.127 0L57.7637 0L30.6152-70.459L28.125-70.459ZM29.3457-67.1387L29.4434-67.1387L44.873-26.709L13.8672-26.709Z"/>
  </g>
  <line id="Baseline-M" style="fill:none;stroke:#27AAE1;opacity:1;stroke-width:0.5;" x1="263" x2="3036" y1="1126" y2="1126"/>
  <line id="Capline-M" style="fill:none;stroke:#27AAE1;opacity:1;stroke-width:0.5;" x1="263" x2="3036" y1="1055.54" y2="1055.54"/>
  <g id="H-reference" style="fill:#27AAE1;stroke:none;" transform="matrix(1 0 0 1 339 1556)">
   <path d="M0.976562 0L3.66211 0L12.9883-24.4629L45.752-24.4629L55.127 0L57.7637 0L30.6152-70.459L28.125-70.459ZM29.3457-67.1387L29.4434-67.1387L44.873-26.709L13.8672-26.709Z"/>
  </g>
  <line id="Baseline-L" style="fill:none;stroke:#27AAE1;opacity:1;stroke-width:0.5;" x1="263" x2="3036" y1="1556" y2="1556"/>
  <line id="Capline-L" style="fill:none;stroke:#27AAE1;opacity:1;stroke-width:0.5;" x1="263" x2="3036" y1="1485.54" y2="1485.54"/>
  <line id="left-margin" style="fill:none;stroke:#00AEEF;stroke-width:0.5;opacity:1.0;" x1="1391.3" x2="1391.3" y1="1030.79" y2="1150.12"/>
  <line id="right-margin" style="fill:none;stroke:#00AEEF;stroke-width:0.5;opacity:1.0;" x1="1508.39" x2="1508.39" y1="1030.79" y2="1150.12"/>
 </g>
 <g id="Symbols">
  <g id="Black-L" transform="matrix(1 0 0 1 2854.05 1556)">
   <path d="M79.3457 32.8125C116.748 32.8125 147.412 2.14844 147.412-35.2539C147.412-67.334 124.951-94.3848 95.0195-101.514L95.0195-111.572C95.0195-117.578 89.6973-119.434 84.3262-115.479L59.5215-97.3145C55.2246-94.1895 55.3223-89.0137 59.5215-85.9375L84.3262-67.6758C89.6484-63.7695 95.0195-65.4297 95.0195-71.6309L95.0195-80.2734C113.672-73.8281 126.953-56.1523 126.953-35.2539C126.953-8.88672 105.713 12.3535 79.3457 12.3535C52.9785 12.3535 31.6895-8.88672 31.7383-35.2539C31.7383-48.5352 37.0117-59.8145 45.8984-68.9941C50.1465-73.584 51.6113-79.6875 47.3145-84.3262C43.457-88.5254 37.3535-88.5742 31.8848-83.6914C19.5801-73.0957 11.2793-52.9297 11.2793-35.2539C11.2793 2.14844 41.9434 32.8125 79.3457 32.8125ZM58.4961-26.9531L100.342-26.9531C105.029-26.9531 108.545-30.3223 108.545-35.1074C108.545-39.8926 105.078-43.3105 100.342-43.3105L58.4961-43.3105C53.7109-43.3105 50.2441-39.8926 50.2441-35.1074C50.2441-30.3223 53.7598-26.9531 58.4961-26.9531Z"/>
  </g>
  <g id="Heavy-L" transform="matrix(1 0 0 1 2558.39 1556)">
   <path d="M78.2715 31.7383C115.088 31.7383 145.312 1.5625 145.312-35.2539C145.312-66.9922 122.852-93.8477 93.0176-100.635L93.0176-110.498C93.0176-116.016 88.3301-117.725 83.4961-114.16L59.8633-96.9727C56.0059-94.1895 56.0547-89.5996 59.8633-86.8164L83.4961-69.5801C88.3301-66.0645 93.0176-67.627 93.0176-73.2422L93.0176-82.2754C113.086-76.0254 127.49-57.4219 127.49-35.2539C127.49-8.00781 105.566 13.9648 78.2715 13.9648C51.0254 13.9648 29.0039-8.00781 29.0527-35.2539C29.0527-49.8047 35.3027-62.3047 45.459-71.582C49.2188-75.4883 50.5371-80.7617 46.9238-84.8633C43.6523-88.5254 38.2812-88.7207 33.5938-84.5703C20.2148-73.7793 11.2793-53.8574 11.2793-35.2539C11.2793 1.5625 41.5039 31.7383 78.2715 31.7383ZM56.3965-27.832L100.537-27.832C104.834-27.832 108.008-30.8105 108.008-35.1074C108.008-39.4531 104.932-42.4805 100.537-42.4805L56.3965-42.4805C52.002-42.4805 48.9258-39.4531 48.9258-35.1074C48.9258-30.8105 52.0996-27.832 56.3965-27.832Z"/>
  </g>
  <g id="Bold-L" transform="matrix(1 0 0 1 2262.88 1556)">
   <path d="M77.0996 30.5664C113.232 30.5664 142.92 0.878906 142.92-35.2539C142.92-66.6504 120.459-93.2129 90.8691-99.6094L90.8691-109.277C90.8691-114.258 86.8164-115.771 82.5684-112.695L60.2539-96.6309C56.8359-94.1895 56.8848-90.2344 60.2539-87.793L82.5684-71.7285C86.8164-68.6035 90.8691-70.0195 90.8691-75.0977L90.8691-84.4238C112.402-78.4668 128.125-58.7891 128.125-35.2539C128.125-6.93359 105.371 15.8203 77.0996 15.8203C48.8281 15.8203 26.0254-6.93359 26.0254-35.2539C26.0742-51.2207 33.3984-65.0879 45.0195-74.5117C48.1934-77.6367 49.2676-81.9336 46.4355-85.4004C43.8965-88.5742 39.3555-88.8672 35.4492-85.5469C20.9473-74.5117 11.2793-54.834 11.2793-35.2539C11.2793 0.878906 41.0156 30.5664 77.0996 30.5664ZM54.0527-28.8086L100.781-28.8086C104.639-28.8086 107.422-31.3477 107.422-35.1074C107.422-38.9648 104.736-41.5039 100.781-41.5039L54.0527-41.5039C50.1465-41.5039 47.4121-38.9648 47.4121-35.1074C47.4121-31.3477 50.1953-28.8086 54.0527-28.8086Z"/>
  </g>
  <g id="Semibold-L" transform="matrix(1 0 0 1 1966.97 1556)">
   <path d="M76.2695 29.7852C111.914 29.7852 141.309 0.390625 141.309-35.2051C141.309-66.4062 118.848-92.8223 89.3555-98.9258L89.3555-108.447C89.3555-113.086 85.791-114.404 81.9336-111.67L60.5469-96.3867C57.4219-94.1895 57.4219-90.7227 60.5469-88.4277L81.9336-73.1934C85.791-70.4102 89.3555-71.6797 89.3555-76.3672L89.3555-85.9375C111.963-80.1758 128.564-59.7168 128.564-35.2051C128.564-6.25 105.273 17.0898 76.2695 17.0898C47.3145 17.0898 23.9258-6.25 23.9746-35.2051C24.0234-52.1973 32.0801-66.9922 44.6777-76.5137C47.5098-79.1016 48.4375-82.7637 46.1426-85.791C44.043-88.5742 40.0879-89.0137 36.7676-86.2305C21.4355-75 11.2793-55.5176 11.2793-35.2051C11.2793 0.390625 40.6738 29.7852 76.2695 29.7852ZM52.4414-29.4922L100.977-29.4922C104.492-29.4922 107.031-31.6895 107.031-35.1074C107.031-38.623 104.59-40.8691 100.977-40.8691L52.4414-40.8691C48.8281-40.8691 46.3379-38.623 46.3379-35.1074C46.3379-31.6895 48.9258-29.4922 52.4414-29.4922Z"/>
  </g>
  <g id="Medium-L" transform="matrix(1 0 0 1 1670.87 1556)">
   <path d="M75.6836 29.1992C110.938 29.1992 140.088 0.0488281 140.088-35.2051C140.088-66.2109 117.578-92.4805 88.1836-98.3887L88.1836-107.861C88.1836-112.158 85.0098-113.379 81.4453-110.889L60.791-96.2402C57.8613-94.1895 57.8613-91.0645 60.791-88.9648L81.4453-74.3164C84.9609-71.7285 88.1836-72.9492 88.1836-77.3438L88.1836-87.0117C111.621-81.4453 128.906-60.4492 128.906-35.2051C128.906-5.71289 105.176 18.0176 75.6836 18.0176C46.1426 18.0176 22.3633-5.71289 22.4121-35.2051C22.4609-52.9297 31.1035-68.457 44.4336-78.0273C46.9727-80.2246 47.8027-83.3984 45.8984-86.084C44.1895-88.5742 40.6738-89.1113 37.7441-86.7676C21.8262-75.3906 11.2793-56.0547 11.2793-35.2051C11.2793 0.0488281 40.3809 29.1992 75.6836 29.1992ZM51.2207-30.0293L101.074-30.0293C104.346-30.0293 106.689-31.9824 106.689-35.1074C106.689-38.3301 104.492-40.332 101.074-40.332L51.2207-40.332C47.8516-40.332 45.5566-38.3301 45.5566-35.1074C45.5566-31.9824 47.9492-30.0293 51.2207-30.0293Z"/>
  </g>
  <g id="Regular-L" transform="matrix(1 0 0 1 1374.97 1556)">
   <path d="M74.8535 28.3691C109.668 28.3691 138.477-0.390625 138.477-35.2051C138.477-66.0156 115.967-92.0898 86.6699-97.7051L86.6699-107.031C86.6699-110.986 83.9355-112.061 80.8594-109.863L61.0352-95.9961C58.4473-94.1895 58.3984-91.5039 61.0352-89.5996L80.8105-75.7324C83.9355-73.4863 86.6699-74.6094 86.6699-78.5645L86.6699-88.4277C111.182-83.1055 129.297-61.377 129.297-35.2051C129.297-5.0293 105.078 19.2871 74.8535 19.2871C44.6777 19.2871 20.3125-5.0293 20.3613-35.2051C20.4102-53.9062 29.7852-70.3125 44.0918-80.0293C46.2891-81.6406 46.9727-84.1797 45.6055-86.4258C44.3359-88.5742 41.4062-89.209 39.0137-87.4023C22.3145-75.9277 11.2793-56.7383 11.2793-35.2051C11.2793-0.390625 40.0879 28.3691 74.8535 28.3691ZM49.6582-30.6641L101.27-30.6641C104.199-30.6641 106.299-32.3242 106.299-35.1074C106.299-37.9883 104.346-39.6973 101.27-39.6973L49.6582-39.6973C46.5332-39.6973 44.5312-37.9883 44.5312-35.1074C44.5312-32.3242 46.6797-30.6641 49.6582-30.6641Z"/>
  </g>
  <g id="Light-L" transform="matrix(1 0 0 1 1079.18 1556)">
   <path d="M73.9258 27.4902C108.301 27.4902 136.621-0.830078 136.621-35.1562C136.621-65.6738 114.307-91.4062 85.3027-96.7773L85.3027-106.641C85.3027-109.863 83.0078-110.84 80.3711-108.984L60.9863-95.4102C58.7402-93.8477 58.7402-91.6504 60.9863-90.0391L80.3223-76.5137C83.0078-74.5605 85.3027-75.5371 85.3027-78.8086L85.3027-89.7949C110.693-84.5703 129.688-62.1582 129.688-35.1562C129.688-4.3457 104.785 20.6055 73.9258 20.6055C43.1152 20.6055 18.1641-4.3457 18.1641-35.1562C18.2129-54.9316 28.4668-72.2168 43.9453-82.0312C45.6055-83.2031 46.1426-85.1562 45.1172-86.8652C44.1895-88.5254 41.9922-89.0137 40.1855-87.6953C22.8516-76.5137 11.2793-57.0801 11.2793-35.1562C11.2793-0.830078 39.5996 27.4902 73.9258 27.4902ZM47.5098-31.7383L102.148-31.7383C104.346-31.7383 105.957-33.0566 105.957-35.1074C105.957-37.2559 104.443-38.623 102.148-38.623L47.5098-38.623C45.2148-38.623 43.7012-37.2559 43.7012-35.1074C43.7012-33.0566 45.3613-31.7383 47.5098-31.7383Z"/>
  </g>
  <g id="Thin-L" transform="matrix(1 0 0 1 783.693 1556)">
   <path d="M72.7051 26.3184C106.494 26.3184 134.18-1.36719 134.18-35.1074C134.18-65.2344 112.158-90.5273 83.4473-95.6055L83.4473-106.152C83.4473-108.447 81.7871-109.277 79.7363-107.812L60.9375-94.6777C59.1797-93.457 59.1797-91.8457 60.9375-90.625L79.7363-77.4902C81.7871-75.9766 83.4473-76.8555 83.4473-79.1016L83.4473-91.6016C110.01-86.5723 130.176-63.1836 130.176-35.1074C130.176-3.41797 104.443 22.3145 72.7051 22.3145C41.0156 22.3145 15.2832-3.41797 15.2832-35.1074C15.2832-56.25 26.709-74.6582 43.75-84.668C44.7266-85.3027 45.0195-86.4746 44.4824-87.4512C43.9941-88.3789 42.7734-88.7207 41.6992-88.0371C23.4863-77.2949 11.2793-57.5684 11.2793-35.1074C11.2793-1.36719 38.9648 26.3184 72.7051 26.3184ZM44.7266-33.1543L103.369-33.1543C104.492-33.1543 105.469-34.0332 105.469-35.1074C105.469-36.3281 104.59-37.2559 103.369-37.2559L44.7266-37.2559C43.5059-37.2559 42.627-36.3281 42.627-35.1074C42.627-34.0332 43.6035-33.1543 44.7266-33.1543Z"/>
  </g>
  <g id="Ultralight-L" transform="matrix(1 0 0 1 487.616 1556)">
   <path d="M72.1191 25.7324C105.566 25.7324 132.91-1.61133 132.91-35.1074C132.91-65.0391 111.035-90.0879 82.4707-95.0195L82.4707-105.908C82.4707-107.715 81.2012-108.447 79.3945-107.178L60.8887-94.2871C59.375-93.2129 59.375-91.9434 60.8887-90.918L79.3945-77.9785C81.2012-76.709 82.4707-77.4902 82.4707-79.248L82.4707-92.4805C109.668-87.5488 130.42-63.6719 130.42-35.1074C130.42-2.97852 104.248 23.2422 72.1191 23.2422C39.9414 23.2422 13.7695-2.97852 13.7695-35.1074C13.7695-56.8848 25.7812-75.9277 43.6523-86.0352C44.2871-86.377 44.4824-87.1582 44.1895-87.7441C43.8965-88.3301 43.1641-88.623 42.4316-88.1836C23.8281-77.6855 11.2793-57.8125 11.2793-35.1074C11.2793-1.61133 38.623 25.7324 72.1191 25.7324ZM43.3105-33.8379L103.955-33.8379C104.59-33.8379 105.273-34.5703 105.273-35.1074C105.273-35.8398 104.688-36.5234 103.955-36.5234L43.3105-36.5234C42.627-36.5234 42.041-35.8398 42.041-35.1074C42.041-34.5703 42.6758-33.8379 43.3105-33.8379Z"/>
  </g>
  <g id="Black-M" transform="matrix(1 0 0 1 2870.97 1126)">
   <path d="M62.4023 18.4082C91.9922 18.4082 116.113-5.66406 116.113-35.2539C116.113-60.3516 98.8281-81.4453 75.5371-87.3047L75.5371-95.6543C75.5371-100.586 70.8496-102.197 66.2109-98.7305L45.6055-83.4473C41.9434-80.7617 42.0898-76.2207 45.6055-73.584L66.2109-58.2031C70.8008-54.834 75.5371-56.25 75.5371-61.3281L75.5371-68.1641C88.623-62.9395 97.8027-50.1953 97.8027-35.2539C97.8027-15.7227 81.9824 0.146484 62.4023 0.146484C42.8711 0.146484 27.002-15.7227 27.002-35.2539C27.002-44.3848 30.2246-51.9531 36.084-58.9355C39.7461-63.2324 41.0645-68.7988 36.9141-72.8516C33.3496-76.4648 27.9785-76.2207 23.0469-71.7773C14.5508-64.0137 8.74023-47.9492 8.74023-35.2539C8.74023-5.66406 32.8125 18.4082 62.4023 18.4082ZM47.0215-28.1738L77.9297-28.1738C81.7383-28.1738 84.6191-31.2012 84.6191-35.1562C84.6191-39.0625 81.7383-42.0898 77.9297-42.0898L47.0215-42.0898C43.2129-42.0898 40.332-39.0625 40.332-35.1562C40.332-31.2012 43.2129-28.1738 47.0215-28.1738Z"/>
  </g>
  <g id="Heavy-M" transform="matrix(1 0 0 1 2575.19 1126)">
   <path d="M61.5234 17.5293C90.5273 17.5293 114.258-6.20117 114.258-35.2539C114.258-60.1074 96.9238-81.0059 73.7305-86.5723L73.7305-94.5801C73.7305-99.1699 69.6289-100.635 65.4297-97.5098L45.9961-83.252C42.6758-80.8105 42.7734-76.8066 45.9961-74.4141L65.4297-60.1074C69.5801-57.0312 73.7305-58.3496 73.7305-63.0859L73.7305-70.0195C88.0859-64.9902 98.3398-51.3672 98.3398-35.2539C98.3398-14.8926 81.8848 1.61133 61.5234 1.61133C41.1133 1.61133 24.6582-14.8926 24.6582-35.2539C24.6582-45.5078 28.7598-54.1992 35.6445-61.2793C38.916-64.8926 40.0391-69.6777 36.6211-73.291C33.5938-76.5137 28.8574-76.4648 24.6094-72.6562C15.1367-64.5996 8.74023-48.8281 8.74023-35.2539C8.74023-6.20117 32.4707 17.5293 61.5234 17.5293ZM45.3125-28.8574L77.9297-28.8574C81.4941-28.8574 84.1309-31.4941 84.1309-35.1562C84.1309-38.7695 81.543-41.4551 77.9297-41.4551L45.3125-41.4551C41.6992-41.4551 39.0625-38.7695 39.0625-35.1562C39.0625-31.4941 41.748-28.8574 45.3125-28.8574Z"/>
  </g>
  <g id="Bold-M" transform="matrix(1 0 0 1 2279.5 1126)">
   <path d="M60.498 16.5039C88.8672 16.5039 112.207-6.83594 112.207-35.2539C112.207-59.8145 94.8242-80.5664 71.7285-85.7422L71.7285-93.3594C71.7285-97.5586 68.2129-98.8281 64.5508-96.1426L46.4844-83.0566C43.5547-80.9082 43.5547-77.4902 46.4844-75.3418L64.5508-62.207C68.2129-59.5215 71.7285-60.7422 71.7285-65.0391L71.7285-72.0215C87.5-67.2363 98.9258-52.6367 98.9258-35.2539C98.9258-13.9648 81.7871 3.22266 60.498 3.22266C39.1602 3.22266 22.0215-13.9648 22.0215-35.2539C22.0703-46.7773 27.0508-56.6406 35.1562-63.8672C37.9883-66.748 38.9648-70.7031 36.2793-73.7793C33.8867-76.5625 29.834-76.709 26.3184-73.6328C15.7715-65.2344 8.74023-49.8047 8.74023-35.2539C8.74023-6.83594 32.0801 16.5039 60.498 16.5039ZM43.3594-29.6387L77.9297-29.6387C81.2012-29.6387 83.5938-31.8848 83.5938-35.1562C83.5938-38.4277 81.2988-40.6738 77.9297-40.6738L43.3594-40.6738C40.0391-40.6738 37.6465-38.4277 37.6465-35.1562C37.6465-31.8848 40.0879-29.6387 43.3594-29.6387Z"/>
  </g>
  <g id="Semibold-M" transform="matrix(1 0 0 1 1983.5 1126)">
   <path d="M59.7656 15.7715C87.7441 15.7715 110.791-7.27539 110.791-35.2539C110.791-59.6191 93.3594-80.2246 70.3613-85.1562L70.3613-92.5293C70.3613-96.4844 67.2852-97.6074 63.9648-95.2148L46.7773-82.9102C44.0918-80.957 44.1406-77.9297 46.7773-76.0254L63.916-63.6719C67.2363-61.2793 70.3613-62.3535 70.3613-66.3574L70.3613-73.3887C87.1094-68.7988 99.3164-53.5156 99.3164-35.2539C99.3164-13.3301 81.6895 4.3457 59.7656 4.3457C37.8418 4.3457 20.166-13.3301 20.2148-35.2539C20.2637-47.6074 25.8789-58.3984 34.8145-65.6738C37.3535-68.0664 38.1836-71.3867 36.0352-74.0723C34.082-76.5625 30.5176-76.9043 27.4902-74.3164C16.2109-65.6738 8.74023-50.4883 8.74023-35.2539C8.74023-7.27539 31.7871 15.7715 59.7656 15.7715ZM41.9922-30.1758L77.9785-30.1758C81.0547-30.1758 83.252-32.1289 83.252-35.1562C83.252-38.1836 81.1035-40.1855 77.9785-40.1855L41.9922-40.1855C38.8672-40.1855 36.6699-38.1836 36.6699-35.1562C36.6699-32.1289 38.916-30.1758 41.9922-30.1758Z"/>
  </g>
  <g id="Medium-M" transform="matrix(1 0 0 1 1687.3 1126)">
   <path d="M59.2285 15.2832C86.9141 15.2832 109.766-7.56836 109.766-35.2539C109.766-59.4727 92.2363-79.9805 69.3359-84.7168L69.3359-91.8945C69.3359-95.6055 66.5527-96.6797 63.5254-94.4824L47.0215-82.8125C44.5312-81.0059 44.5312-78.2715 47.0215-76.5137L63.4766-64.7949C66.5039-62.5977 69.3359-63.5742 69.3359-67.3828L69.3359-74.4141C86.8164-69.9707 99.6094-54.1992 99.6094-35.2539C99.6094-12.8418 81.6406 5.17578 59.2285 5.17578C36.8164 5.17578 18.7988-12.8418 18.8477-35.2539C18.8965-48.291 25-59.668 34.5703-67.041C36.8652-69.043 37.5977-71.9238 35.8398-74.3164C34.2285-76.6113 31.0547-77.002 28.418-74.8535C16.5527-65.9668 8.74023-51.0254 8.74023-35.2539C8.74023-7.56836 31.5918 15.2832 59.2285 15.2832ZM41.0156-30.5664L77.9785-30.5664C80.9082-30.5664 82.959-32.3242 82.959-35.1562C82.959-38.0371 80.957-39.7949 77.9785-39.7949L41.0156-39.7949C37.9883-39.7949 35.9375-38.0371 35.9375-35.1562C35.9375-32.3242 38.0859-30.5664 41.0156-30.5664Z"/>
  </g>
  <g id="Regular-M" transform="matrix(1 0 0 1 1391.3 1126)">
   <path d="M58.5449 14.5508C85.791 14.5508 108.35-8.00781 108.35-35.2539C108.35-59.2773 90.8203-79.6387 67.9688-84.1309L67.9688-91.0645C67.9688-94.5312 65.5762-95.459 62.9395-93.5547L47.3633-82.666C45.1172-81.1035 45.0684-78.7598 47.3633-77.1484L62.8906-66.2109C65.5762-64.2578 67.9688-65.1855 67.9688-68.7012L67.9688-75.6836C86.4258-71.4844 100-55.0293 100-35.2539C100-12.207 81.5918 6.25 58.5449 6.25C35.498 6.25 16.9922-12.207 17.041-35.2539C17.0898-49.1211 23.8281-61.377 34.2285-68.7988C36.2305-70.3125 36.8652-72.6074 35.6445-74.6582C34.4238-76.6602 31.7383-77.1973 29.5898-75.5371C17.041-66.4062 8.74023-51.6602 8.74023-35.2539C8.74023-8.00781 31.3477 14.5508 58.5449 14.5508ZM39.6484-31.1035L77.9785-31.1035C80.7129-31.1035 82.5684-32.5684 82.5684-35.1562C82.5684-37.793 80.8105-39.3066 77.9785-39.3066L39.6484-39.3066C36.8164-39.3066 35.0098-37.793 35.0098-35.1562C35.0098-32.5684 36.9141-31.1035 39.6484-31.1035Z"/>
  </g>
  <g id="Light-M" transform="matrix(1 0 0 1 1095.42 1126)">
   <path d="M57.7148 13.7695C84.5215 13.7695 106.689-8.39844 106.689-35.2051C106.689-58.9844 89.3555-79.0527 66.6992-83.3496L66.6992-90.7715C66.6992-93.5547 64.7461-94.3848 62.5-92.7734L47.3145-82.1289C45.4102-80.8105 45.3613-78.8574 47.3145-77.5391L62.4512-66.8945C64.7461-65.2344 66.6992-66.0645 66.6992-68.8965L66.6992-76.9043C85.9863-72.8027 100.342-55.7129 100.342-35.2051C100.342-11.5723 81.3477 7.4707 57.7148 7.4707C34.082 7.4707 15.0391-11.5723 15.0879-35.2051C15.0879-50.0488 22.6562-63.0371 34.1309-70.6055C35.6445-71.7285 36.1328-73.4863 35.2051-75.0488C34.2773-76.5625 32.2754-77.002 30.6152-75.7324C17.4805-66.9434 8.74023-52.002 8.74023-35.2051C8.74023-8.39844 30.9082 13.7695 57.7148 13.7695ZM37.793-32.0312L78.7598-32.0312C80.8105-32.0312 82.2754-33.2031 82.2754-35.1562C82.2754-37.1582 80.9082-38.3301 78.7598-38.3301L37.793-38.3301C35.6445-38.3301 34.2285-37.1582 34.2285-35.1562C34.2285-33.2031 35.7422-32.0312 37.793-32.0312Z"/>
  </g>
  <g id="Thin-M" transform="matrix(1 0 0 1 799.806 1126)">
   <path d="M56.6406 12.7441C82.9102 12.7441 104.492-8.83789 104.492-35.1562C104.492-58.5938 87.4023-78.2715 65.0391-82.2754L65.0391-90.332C65.0391-92.2852 63.6719-92.9688 61.9141-91.6992L47.2168-81.4453C45.752-80.4199 45.752-79.0527 47.2168-78.0273L61.9141-67.7734C63.6719-66.5039 65.0391-67.1875 65.0391-69.1895L65.0391-78.5156C85.4004-74.5605 100.781-56.6406 100.781-35.1562C100.781-10.791 81.0059 8.98438 56.6406 8.98438C32.2266 8.98438 12.4512-10.791 12.4512-35.1562C12.4512-51.2207 21.0938-65.2344 33.9355-72.998C34.8633-73.584 35.1074-74.6582 34.6191-75.5859C34.1309-76.4648 32.959-76.7578 31.9824-76.0742C18.0664-67.627 8.74023-52.4414 8.74023-35.1562C8.74023-8.83789 30.3223 12.7441 56.6406 12.7441ZM35.3027-33.3008L79.834-33.3008C80.957-33.3008 81.8359-34.082 81.8359-35.1562C81.8359-36.2793 81.0547-37.1094 79.834-37.1094L35.3027-37.1094C34.082-37.1094 33.252-36.2793 33.252-35.1562C33.252-34.082 34.1797-33.3008 35.3027-33.3008Z"/>
  </g>
  <g id="Ultralight-M" transform="matrix(1 0 0 1 503.656 1126)">
   <path d="M56.0547 12.207C82.0801 12.207 103.369-9.08203 103.369-35.1562C103.369-58.3984 86.377-77.8809 64.209-81.7383L64.209-90.0879C64.209-91.6016 63.0859-92.2363 61.6211-91.1621L47.168-81.1035C45.9473-80.2246 45.9473-79.1504 47.168-78.2715L61.6211-68.2129C63.0859-67.1387 64.209-67.7734 64.209-69.2871L64.209-79.3457C85.1074-75.4883 100.977-57.1289 100.977-35.1562C100.977-10.3516 80.8594 9.81445 56.0547 9.81445C31.2988 9.81445 11.1328-10.3516 11.1328-35.1562C11.1328-51.8066 20.2637-66.4062 33.8379-74.1699C34.4238-74.5605 34.6191-75.2441 34.3262-75.8789C34.0332-76.3672 33.3008-76.6113 32.666-76.2207C18.3594-68.0176 8.74023-52.6855 8.74023-35.1562C8.74023-9.08203 30.0293 12.207 56.0547 12.207ZM33.9844-33.9355L80.4199-33.9355C81.0547-33.9355 81.6406-34.5703 81.6406-35.1562C81.6406-35.8398 81.1035-36.4746 80.4199-36.4746L33.9844-36.4746C33.3008-36.4746 32.7637-35.8398 32.7637-35.1562C32.7637-34.5703 33.3496-33.9355 33.9844-33.9355Z"/>
  </g>
  <g id="Black-S" transform="matrix(1 0 0 1 2884.57 696)">
   <path d="M48.8281 6.73828C71.9727 6.73828 90.8203-12.1094 90.8203-35.2539C90.8203-54.8828 77.2949-71.4355 59.0332-75.9766L59.0332-82.4707C59.0332-86.3281 55.4199-87.5977 51.8066-84.9121L35.7422-72.998C32.9102-70.8984 33.0078-67.3828 35.7422-65.332L51.8066-53.3691C55.3711-50.7324 59.0332-51.8555 59.0332-55.8105L59.0332-61.1816C69.3848-57.0801 76.6602-47.0703 76.6602-35.2539C76.6602-19.873 64.209-7.42188 48.8281-7.42188C33.4473-7.42188 20.9961-19.873 20.9961-35.2539C20.9961-42.4805 23.584-48.4863 28.2227-53.9551C31.0547-57.2754 32.0801-61.5723 28.9062-64.7461C26.123-67.5293 21.9727-67.3828 18.1641-63.916C11.4258-57.8125 6.83594-45.2637 6.83594-35.2539C6.83594-12.1094 25.6836 6.73828 48.8281 6.73828ZM36.7188-29.7363L61.0352-29.7363C64.0137-29.7363 66.2598-32.0801 66.2598-35.1562C66.2598-38.2324 64.0137-40.5762 61.0352-40.5762L36.7188-40.5762C33.7402-40.5762 31.4941-38.2324 31.4941-35.1562C31.4941-32.0801 33.7402-29.7363 36.7188-29.7363Z"/>
  </g>
  <g id="Heavy-S" transform="matrix(1 0 0 1 2588.47 696)">
   <path d="M48.2422 6.15234C70.9961 6.15234 89.5996-12.5 89.5996-35.2539C89.5996-54.7363 75.9766-71.1426 57.8125-75.5371L57.8125-81.6895C57.8125-85.3516 54.541-86.4746 51.2695-84.082L36.084-72.9004C33.4473-70.9961 33.4961-67.8223 36.084-65.918L51.2695-54.7363C54.541-52.3438 57.8125-53.3691 57.8125-57.1289L57.8125-62.4512C69.043-58.4961 77.002-47.8516 77.002-35.2539C77.002-19.2871 64.1602-6.44531 48.2422-6.44531C32.2754-6.44531 19.3848-19.2871 19.4336-35.2539C19.4336-43.2617 22.5586-50 27.9297-55.5176C30.4688-58.3984 31.3965-62.1582 28.7109-65.0391C26.3184-67.5781 22.6074-67.5781 19.2383-64.5508C11.8164-58.2031 6.83594-45.8984 6.83594-35.2539C6.83594-12.5 25.4395 6.15234 48.2422 6.15234ZM35.5957-30.1758L60.9375-30.1758C63.8184-30.1758 65.918-32.2754 65.918-35.1562C65.918-38.0859 63.8184-40.1855 60.9375-40.1855L35.5957-40.1855C32.7148-40.1855 30.6152-38.0859 30.6152-35.1562C30.6152-32.2754 32.7637-30.1758 35.5957-30.1758Z"/>
  </g>
  <g id="Bold-S" transform="matrix(1 0 0 1 2292.44 696)">
   <path d="M47.5586 5.46875C69.873 5.46875 88.2324-12.9395 88.2324-35.2539C88.2324-54.541 74.5605-70.8496 56.4453-74.9512L56.4453-80.8105C56.4453-84.2285 53.6133-85.2539 50.6348-83.1055L36.4258-72.8027C34.0332-71.0938 34.082-68.3105 36.4258-66.6016L50.6348-56.2988C53.5645-54.1504 56.4453-55.0781 56.4453-58.5938L56.4453-63.8184C68.6523-60.0586 77.4414-48.7305 77.4414-35.2539C77.4414-18.7012 64.1113-5.37109 47.5586-5.37109C30.957-5.37109 17.627-18.7012 17.627-35.2539C17.6758-44.0918 21.4355-51.709 27.5391-57.3242C29.8828-59.668 30.6641-62.8418 28.5156-65.332C26.5625-67.627 23.291-67.7734 20.4102-65.2832C12.2559-58.5938 6.83594-46.6309 6.83594-35.2539C6.83594-12.9395 25.1953 5.46875 47.5586 5.46875ZM34.375-30.6641L60.8398-30.6641C63.5742-30.6641 65.5762-32.4707 65.5762-35.1562C65.5762-37.8906 63.623-39.7461 60.8398-39.7461L34.375-39.7461C31.5918-39.7461 29.6387-37.8906 29.6387-35.1562C29.6387-32.4707 31.6406-30.6641 34.375-30.6641Z"/>
  </g>
  <g id="Semibold-S" transform="matrix(1 0 0 1 1996.2 696)">
   <path d="M47.0703 4.98047C69.0918 4.98047 87.3047-13.2324 87.3047-35.2539C87.3047-54.3945 73.584-70.6543 55.5176-74.6094L55.5176-80.2246C55.5176-83.4961 52.9297-84.4238 50.2441-82.4707L36.6699-72.7539C34.4727-71.1914 34.4727-68.6523 36.6699-67.0898L50.1953-57.3242C52.9297-55.3711 55.5176-56.25 55.5176-59.5703L55.5176-64.7461C68.3594-61.1328 77.6855-49.3652 77.6855-35.2539C77.6855-18.2617 64.0625-4.58984 47.0703-4.58984C30.0781-4.58984 16.4062-18.2617 16.4062-35.2539C16.4551-44.6777 20.6055-52.8809 27.2949-58.5449C29.4434-60.498 30.127-63.2812 28.3691-65.5762C26.7578-67.6758 23.7793-67.9199 21.2402-65.8203C12.5488-58.8867 6.83594-47.1191 6.83594-35.2539C6.83594-13.2324 25.0488 4.98047 47.0703 4.98047ZM33.4961-30.957L60.791-30.957C63.4277-30.957 65.2832-32.5684 65.2832-35.1562C65.2832-37.7441 63.4766-39.4043 60.791-39.4043L33.4961-39.4043C30.7617-39.4043 28.9551-37.7441 28.9551-35.1562C28.9551-32.5684 30.8594-30.957 33.4961-30.957Z"/>
  </g>
  <g id="Medium-S" transform="matrix(1 0 0 1 1699.83 696)">
   <path d="M46.7285 4.63867C68.5547 4.63867 86.6211-13.4277 86.6211-35.2539C86.6211-54.2969 72.8516-70.5078 54.7852-74.3164L54.7852-79.7363C54.7852-82.9102 52.4414-83.7891 49.9023-81.9824L36.8652-72.7051C34.7656-71.2402 34.7656-68.9453 36.8652-67.4316L49.8535-58.1543C52.4414-56.2988 54.7852-57.1289 54.7852-60.3516L54.7852-65.4297C68.1641-61.9141 77.8809-49.8047 77.8809-35.2539C77.8809-17.9199 64.0625-4.05273 46.7285-4.05273C29.3945-4.05273 15.4785-17.9199 15.4785-35.2539C15.5273-45.1172 20.0195-53.7598 27.1484-59.4727C29.1016-61.1816 29.7363-63.623 28.2715-65.7227C26.8555-67.6758 24.1211-68.0176 21.875-66.2109C12.793-59.1309 6.83594-47.4609 6.83594-35.2539C6.83594-13.4277 24.9023 4.63867 46.7285 4.63867ZM32.8125-31.2012L60.7422-31.2012C63.3301-31.2012 65.0879-32.666 65.0879-35.1562C65.0879-37.6465 63.3789-39.1602 60.7422-39.1602L32.8125-39.1602C30.1758-39.1602 28.418-37.6465 28.418-35.1562C28.418-32.666 30.2734-31.2012 32.8125-31.2012Z"/>
  </g>
  <g id="Regular-S" transform="matrix(1 0 0 1 1403.58 696)">
   <path d="M46.2402 4.15039C67.7734 4.15039 85.6934-13.7207 85.6934-35.2539C85.6934-54.1992 71.8262-70.3125 53.8574-73.9258L53.8574-79.1504C53.8574-82.1777 51.7578-82.959 49.5117-81.2988L37.1094-72.6074C35.2051-71.2891 35.1562-69.2383 37.1094-67.8711L49.4629-59.1797C51.7578-57.5195 53.8574-58.3008 53.8574-61.377L53.8574-66.3086C67.9199-62.9883 78.1738-50.3906 78.1738-35.2539C78.1738-17.4805 64.0137-3.27148 46.2402-3.27148C28.5156-3.27148 14.2578-17.4805 14.3066-35.2539C14.3555-45.7031 19.2383-54.8828 26.9043-60.6934C28.6621-62.0117 29.248-64.1113 28.125-65.918C27.0508-67.7246 24.6094-68.1641 22.6562-66.6992C13.0859-59.4238 6.83594-47.9492 6.83594-35.2539C6.83594-13.7207 24.7559 4.15039 46.2402 4.15039ZM31.9824-31.543L60.6934-31.543C63.1348-31.543 64.8438-32.8125 64.8438-35.1562C64.8438-37.5488 63.2324-38.8672 60.6934-38.8672L31.9824-38.8672C29.3945-38.8672 27.7832-37.5488 27.7832-35.1562C27.7832-32.8125 29.4922-31.543 31.9824-31.543Z"/>
  </g>
  <g id="Light-S" transform="matrix(1 0 0 1 1107.6 696)">
   <path d="M45.5078 3.4668C66.6992 3.4668 84.2285-14.0625 84.2285-35.2051C84.2285-53.9551 70.5566-69.8242 52.7344-73.2422L52.7344-78.8574C52.7344-81.2988 51.0254-81.9824 49.1211-80.6152L37.0605-72.168C35.4492-71.0449 35.4004-69.3848 37.0605-68.2129L49.0723-59.7656C51.0254-58.3496 52.7344-59.0332 52.7344-61.5234L52.7344-67.4316C67.5293-64.1602 78.4668-51.0254 78.4668-35.2051C78.4668-16.9434 63.8184-2.24609 45.5078-2.24609C27.2461-2.24609 12.5-16.9434 12.5488-35.2051C12.5977-46.4844 18.2129-56.3965 26.7578-62.2559C28.125-63.2812 28.5645-64.8926 27.7344-66.2598C26.9043-67.627 25.0488-68.0176 23.584-66.8945C13.5254-59.8633 6.83594-48.2422 6.83594-35.2051C6.83594-14.0625 24.3652 3.4668 45.5078 3.4668ZM30.3223-32.373L61.377-32.373C63.2324-32.373 64.5508-33.3984 64.5508-35.1562C64.5508-36.9629 63.3301-38.0371 61.377-38.0371L30.3223-38.0371C28.3691-38.0371 27.0996-36.9629 27.0996-35.1562C27.0996-33.3984 28.4668-32.373 30.3223-32.373Z"/>
  </g>
  <g id="Thin-S" transform="matrix(1 0 0 1 811.867 696)">
   <path d="M44.5801 2.53906C65.2832 2.53906 82.2754-14.4531 82.2754-35.2051C82.2754-53.6133 68.7988-69.0918 51.2695-72.3145L51.2695-78.4668C51.2695-80.1758 50.0977-80.7129 48.6328-79.6875L37.0117-71.582C35.791-70.7031 35.7422-69.5312 37.0117-68.6523L48.584-60.5469C50.0977-59.4727 51.2695-60.0586 51.2695-61.7676L51.2695-68.8477C66.9922-65.7227 78.8574-51.8555 78.8574-35.2051C78.8574-16.2109 63.5254-0.878906 44.5801-0.878906C25.5859-0.878906 10.2539-16.2109 10.2539-35.2051C10.2539-47.5098 16.7969-58.3496 26.6113-64.3555C27.4414-64.9414 27.6855-65.918 27.2461-66.748C26.7578-67.5293 25.6836-67.8223 24.7559-67.1387C14.0137-60.498 6.83594-48.6328 6.83594-35.2051C6.83594-14.4531 23.877 2.53906 44.5801 2.53906ZM28.125-33.4961L62.3535-33.4961C63.3789-33.4961 64.209-34.1797 64.209-35.1562C64.209-36.2305 63.4277-36.9141 62.3535-36.9141L28.125-36.9141C27.002-36.9141 26.2207-36.2305 26.2207-35.1562C26.2207-34.1797 27.0508-33.4961 28.125-33.4961Z"/>
  </g>
  <g id="Ultralight-S" transform="matrix(1 0 0 1 515.644 696)">
   <path d="M44.043 2.05078C64.502 2.05078 81.2988-14.6973 81.2988-35.1562C81.2988-53.418 67.9199-68.75 50.5371-71.8262L50.5371-78.2715C50.5371-79.5898 49.5605-80.0781 48.3398-79.1992L36.9629-71.2402C35.9375-70.5566 35.9375-69.6289 36.9629-68.8965L48.3398-60.9375C49.5605-60.0586 50.5371-60.5957 50.5371-61.8652L50.5371-69.5801C66.748-66.5527 79.0527-52.2461 79.0527-35.1562C79.0527-15.8691 63.3789-0.146484 44.043-0.146484C24.7559-0.146484 9.08203-15.8691 9.08203-35.1562C9.08203-48.0469 16.0645-59.3262 26.5137-65.4297C27.0996-65.7715 27.2461-66.4551 26.9531-66.9922C26.6602-67.4805 26.0254-67.7246 25.3906-67.2852C14.3066-60.8398 6.83594-48.8281 6.83594-35.1562C6.83594-14.6973 23.584 2.05078 44.043 2.05078ZM26.9531-34.0332L62.8418-34.0332C63.4766-34.0332 64.0137-34.5703 64.0137-35.1562C64.0137-35.8398 63.5254-36.377 62.8418-36.377L26.9531-36.377C26.2695-36.377 25.7812-35.8398 25.7812-35.1562C25.7812-34.5703 26.3184-34.0332 26.9531-34.0332Z"/>
  </g>
 </g>
</svg>
